<?xml version="1.0" encoding="utf-8"?>
<!-- Generator: Adobe Illustrator 23.0.1, SVG Export Plug-In . SVG Version: 6.00 Build 0)  -->
<svg version="1.1" id="Layer_1" xmlns="http://www.w3.org/2000/svg" xmlns:xlink="http://www.w3.org/1999/xlink" x="0px" y="0px"
	 viewBox="0 0 336.2 171" style="enable-background:new 0 0 336.2 171;" xml:space="preserve">
<style type="text/css">
	.st0{fill:#00459A;stroke:#2550FF;stroke-miterlimit:10;}
	.st1{font-family:'ArialMT';}
	.st2{font-size:115.2px;}
	.st3{fill:#001777;stroke:#2550FF;stroke-miterlimit:10;}
	.st4{font-size:36.2681px;}
	.st5{fill:#6CE8FF;stroke:#2550FF;stroke-miterlimit:10;}
</style>
<desc>Created with Fabric.js 1.6.0-rc.1</desc>
<g transform="translate(109.58 86.94) scale(2.7 2.88)">
	<text transform="matrix(0.3487 0 0 0.3472 -36.38 8.9801)" class="st0 st1 st2">C</text>
	<text transform="matrix(0.3487 0 0 0.3472 -10.9908 8.9801)" class="st0 st1 st2">a</text>
	<text transform="matrix(0.3487 0 0 0.3472 5.3995 8.9801)" class="st0 st1 st2">r</text>
	<text transform="matrix(0.3487 0 0 0.3472 19.2993 8.9801)" class="st0 st1 st2">s</text>
</g>
<g transform="translate(233.66 134.47) scale(1.22 0.82)">
	<text transform="matrix(1.3114 0 0 1.2195 -50.8596 12.6104)" class="st3 st1 st4">T</text>
	<text transform="matrix(1.3114 0 0 1.2195 -18.1375 12.6104)" class="st3 st1 st4">o</text>
	<text transform="matrix(1.3114 0 0 1.2195 16.6281 12.6104)" class="st3 st1 st4">u</text>
	<text transform="matrix(1.3114 0 0 1.2195 48.0654 12.6104)" class="st3 st1 st4">r</text>
</g>
<g transform="translate(206 60.56) scale(0.81 0.81)">
	<path class="st5" d="M157.2,34.6c-10.8,10.7-37.7,20.6-69.5,24.5c-42.1,5.1-77-2.1-77.9-16.2c-0.6-9.8,15.3-20.4,39.1-27.6
		c-15.6,6.4-25.3,14.3-24.8,21.8C25,50.5,58.1,57.5,98,52.5C122.9,49.5,144.6,42.7,157.2,34.6L157.2,34.6z"/>
	<path class="st5" d="M144.3,35.4c-9.8,9-34.2,17.1-63.2,19.8c-38.3,3.6-70-3.3-70.8-15.5c-0.6-8.5,13.8-17.3,35.5-23
		c-14.2,5.2-23,11.9-22.6,18.4C24,46.7,54.1,53.2,90.4,49.8C113.1,47.6,132.8,42.1,144.3,35.4L144.3,35.4z"/>
	<path class="st5" d="M37.1,41h-5.6H31l-0.3-0.4c-1.1-1.3-2-3-2.4-4.5c-0.1-0.4-0.2-0.6-0.2-0.9l-1-0.2l0.1-1.1c0-0.2,0-0.5,0-0.7
		c0-1.2,0.1-2.8,0.5-4.1l0,0l0,0l0.5-0.6c0.5-0.2,0.9-0.5,1.3-0.6c0.1,0,0.2-0.1,0.3-0.1c1.1-2.3,2.7-5.1,5.9-7.5
		c3.3-2.5,8.3-4.4,16.1-4.4c14.6-13,32.3-17.5,49.1-12c3.3,1.1,6.5,2.6,9.7,4.5c3.1,1.9,6.1,4,9.1,6.8c0.2,0,0.4,0,0.8,0.2l0.3,0.2
		c1,1.1,1.8,2,2.6,2.8c0.7,0.8,1.5,1.7,2.5,2.7c1.4,0.9,2.7,2.1,3.5,3.4c0.2,0.2,0.3,0.6,0.5,0.8c0.1,0.1,0.1,0.2,0.2,0.4
		c0.6,0.4,1.1,0.7,1.5,1.1c0.5,0.5,1,1.1,1.4,1.7l0.2,0.7l0.2,5.1l-0.1,0.5c-0.4,1.2-0.9,2.1-1.4,3.1s-1.1,1.8-1.8,2.6l-0.3,0.5
		h-0.5h-3h-1.1v-1.2v-2.3l0,0l0,0c0-2.8-1.1-5.5-2.8-7.2l0,0c-1.7-1.9-4.1-3.1-6.7-3.1l0,0l0,0l0,0l0,0l0,0c-2.6,0-5,1.2-6.7,3.1
		l0,0c-1.7,1.9-2.8,4.4-2.8,7.2l0,0l0,0V39l0,0v1.9v1.2h-1.1l-46.4-0.4h-1.1v-1.2v-1.2V37l0,0l0,0c0-2.8-1.1-5.5-2.8-7.2l0,0
		c-1.7-1.9-4.1-3.1-6.7-3.1l0,0l0,0l0,0l0,0l0,0c-2.6,0-5,1.2-6.7,3.1l0,0c-1.7,1.9-2.8,4.4-2.8,7.2l0,0l0,0v2.7v1.2L37.1,41
		L37.1,41z"/>
	<path class="st5" d="M32.2,38.9h5.5v-3c0-6.9,4.7-12.4,10.5-12.4l0,0c5.8,0,10.5,5.6,10.5,12.4v2.5v1.2l45.8,0.4v-2v-1.5
		c0-6.9,4.7-12.4,10.5-12.4l0,0c5.8,0,10.5,5.6,10.5,12.4v2.4h3c1.2-1.7,2.2-3.4,2.9-5.7c-0.1-1.8-0.1-3.7-0.2-5.5
		c-0.8-1.2-1.6-2.1-2.9-2.8c-0.5-1.7-2-3.7-3.9-5c-1.9-2.3-3.2-3.9-5.1-6.2c-0.3-0.2-0.4,0-0.7-0.1C97.8-7.1,72.3-5,52.5,14.1
		c-15.4,0-19.2,7.9-21.3,12.6c-0.5,0.4-1.1,0.5-1.8,0.9c-0.5,1.5-0.4,3.8-0.5,4.9c0.3,0.1,0.5,0.1,0.8,0.2
		C29.8,34.5,30.8,37.1,32.2,38.9L32.2,38.9z"/>
	<rect x="30.2" y="29.6" class="st5" width="3.6" height="2.4"/>
	<path class="st5" d="M63.5,36.1V36c0-1.5-0.2-3-0.5-4.4c-0.3-1.4-0.7-2.7-1.3-4c-2.8-6.5-8.5-11-15.2-11l0,0l0,0
		c-4.6-0.1-8.7,2.1-11.6,4.7c1.3-1.4,2.8-2.6,4.4-3.4l0,0c0.3-0.1,0.6-0.4,0.9-0.5c2-0.8,4.1-1.3,6.2-1.3l0,0l0,0
		c6.8,0,12.7,4.6,15.5,11.3c0.6,1.3,1,2.7,1.3,4.1c0.3,1.4,0.5,3,0.5,4.5v0.1H63.5L63.5,36.1z"/>
	<path class="st5" d="M38.7,19.6l-0.3,0.4l0,0l0,0l0,0l0,0h-0.1h-0.1h-0.1H38h-0.1h-0.1h-0.1h-0.1h-0.1h-0.1h-0.1h-0.1h-0.1l0,0.1
		L37,20.1h-0.2l-0.1,0.1l-0.1,0.1l-0.1,0.1l-0.1,0.1l-0.1,0.1l-0.1,0.1L36.1,21l-0.3,0l-0.1,0.1l-0.1,0.1l-0.1,0.1l-0.1,0.1
		l-0.1,0.1L35,21.2l0.1-0.1l0.1-0.1l0.1-0.1l0.1-0.1l0.1-0.1l0.1-0.1l0.1-0.1l0.1-0.1l0.1-0.1L36,20l0.1-0.1l0.1-0.1l0.1-0.1
		l0.1-0.1l0.1-0.1l0.1-0.1l0.1-0.1h0.1h0.1H37h0.1h0.1h0.1h0.1h0.1h0.1h0.1h0.1h0.1H38L38.7,19.6L38.7,19.6L38.7,19.6L38.7,19.6z
		 M37.1,24.1l-0.3-0.4l0,0l0.1-0.1l0.1-0.1l0.1-0.1l0.1-0.1l0.1-0.1l0.1-0.1l0.1-0.1l0.1-0.1l0.1-0.1l0.1-0.1l0.1-0.1l0.1-0.1
		l0.1-0.1l0.1-0.1l0.1-0.1l0.1-0.1v-0.1v-0.1v-0.1v-0.1v-0.1v-0.1V21v-0.1v-0.1v-0.1v-0.1v-0.1v-0.1l0,0l0,0l0,0l0.3-0.4l0.1,0.1
		l0.1,0.1v0.1v0.1v0.1v0.1v0.1v0.1V21v0.1v0.1v0.1v0.1v0.1v0.1l-0.1,0.1l-0.1,0.1L38.6,22l-0.1,0.1l-0.1,0.1l-0.1,0.1l0,0l-0.1,0.1
		l-0.1,0.1L38,22.8l-0.1,0.1l-0.1,0.4l-0.1,0.1l-0.2,0.2l-0.1,0.1l-0.1,0.1L37.1,24.1L37.1,24.1L37.1,24.1z M33.4,25.8l0.3-0.4l0,0
		l0,0l0,0l0,0h0.1h0.1H34h0.1h0.1h0.1h0.1h0.1h0.1h0.1h0.1h0.1H35l0.1-0.1l0.1-0.1l0.1-0.1l0.1-0.1l0.1-0.1l0.1-0.1l0.1-0.1l0.1,0.1
		l0.1-0.1l0.1-0.1l0.1-0.1l0.1-0.1l0.1-0.1l0.1-0.1l0.1-0.1l0.1-0.1l0.3,0.4l-0.1,0.1l-0.1,0.1l-0.1,0.1l-0.1,0.1v0.1l-0.1,0.1
		L36.3,25l-0.1,0.1l-0.1,0.1l-0.3,0.1l-0.1,0.1l-0.1,0.1l-0.1,0.1l-0.1,0.1L35.3,26l-0.1,0.1L34.9,26h-0.1h-0.1h-0.1h-0.1h-0.1h-0.1
		h-0.1h-0.1H34h-0.1h-0.1h-0.1h-0.1L33.4,25.8L33.4,25.8L33.4,25.8L33.4,25.8z M34.9,21.4l0.3,0.4l0,0l-0.1,0.1L35,22l-0.2,0.1
		l-0.1,0.1l-0.1,0.1l-0.1,0.1l-0.1,0.1l-0.1,0.1l-0.1,0.1L34.1,23v0.1L34,23.6l-0.1,0.1l-0.1,0.1v0.1v0.1v0.1v0.1v0.1v0.1v0.1v0.1
		v0.1V25v0.1v0.1v0.1v0.1v0.1l0,0l0,0l0,0L33.5,26l-0.1-0.1l-0.1-0.1v-0.1v-0.1v-0.1v-0.1v-0.1V25v-0.1v-0.1v-0.1v-0.1v-0.1v-0.1
		v-0.1l0.1-0.1l0.1-0.1l0.1-0.1l0.1-0.1l0.1-0.1l0.1-0.1l0.1-0.1l0.1-0.1l0.1-0.1l0.1-0.1l0.1-0.1l0.1-0.1l0.1-0.1l0.1-0.1l0.1-0.1
		l0.1-0.1L34.9,21.4L34.9,21.4L34.9,21.4z"/>
	<path class="st5" d="M35,21.6c1.4-1.7,3-2.5,3.5-1.8c0.5,0.6-0.1,2.5-1.5,4.1c-1.4,1.7-3,2.5-3.5,1.8C33,25,33.7,23.2,35,21.6z"/>
	<path class="st5" d="M99.4,36.1V36c0-1.4,0.2-2.8,0.4-4.3c0.3-1.3,0.6-2.6,1.1-3.9c2.4-6.3,7.5-10.8,13.3-11l0,0l0,0
		c4-0.4,7.6,1.8,10.1,4.1c-1.2-1.3-2.5-2.4-3.9-3.1l0,0c-0.3-0.1-0.6-0.2-0.8-0.4c-1.7-0.7-3.6-1.2-5.4-1.1l0,0l0,0
		c-5.9,0.2-11.1,4.9-13.6,11.4c-0.5,1.3-0.9,2.6-1.1,4c-0.3,1.4-0.4,2.8-0.4,4.3v0.1L99.4,36.1L99.4,36.1z"/>
	<path class="st5" d="M57.1,15.4l52.9-0.6C90.1-10.1,62,6.4,57.1,15.4z M60.5,12.9h2.9v1.7l25.4-0.2V3.1
		C76.3,1.2,64.4,7.5,60.5,12.9z M93.4,14.2V4.1c5,1.7,10,4.7,14.4,10L93.4,14.2z"/>
	<path class="st5" d="M60.4,12.9c0.4-0.8,1-1.5,1.8-2.3c0.4-0.4,0.8-0.6,1.2-0.8v3.1H60.4z"/>
	<path class="st5" d="M93.4,14.2V4.1c5,1.7,10,4.7,14.4,10L93.4,14.2z"/>
	<path class="st5" d="M60.5,12.9h2.9v1.7l25.4-0.2V3.1C76.3,1.2,64.4,7.5,60.5,12.9z"/>
	<path class="st5" d="M60.4,12.9c0.4-0.8,1-1.5,1.8-2.3c0.4-0.4,0.8-0.6,1.2-0.8v3.1H60.4L60.4,12.9z"/>
	<polygon class="st5" points="62.6,39.6 63.7,36.3 99.2,36.3 100.8,39.9 	"/>
	<path class="st5" d="M122.8,19.9L122.8,19.9L122.8,19.9l0.2-0.1h0.1h0.1h0.1h0.1h0.1h0.1h0.1h0.1h0.1h0.1h0.1h0.1h0.1l0.1,0.1
		l0.1,0.1l0.1,0.1l0.2-0.1l0.1,0.1l0.1,0.1l0.1,0.1l0.1,0.1l0.1,0.1l0.1,0.1l0.1,0.1l0.1,0.1l0.1,0.1l0.1,0.1l0.1,0.1l0.1,0.1
		l0.1,0.1l-0.3,0.4l-0.1-0.1l-0.1-0.1l-0.1-0.1l-0.1-0.1l-0.1-0.1l-0.1-0.1l-0.1-0.1L125,21l-0.1-0.1l-0.1-0.1l-0.1-0.1l-0.1-0.1
		l-0.1-0.1l-0.1-0.1l-0.1-0.1l-0.1-0.1h-0.1H124h-0.1h-0.1h-0.1h-0.1h-0.1h-0.1h-0.1h-0.1h-0.1H123h-0.1l0,0l0,0l0,0l0,0L122.8,19.9
		L122.8,19.9z M124.3,24.3L124.3,24.3l-0.1-0.1l-0.1-0.1l-0.1-0.1l-0.1-0.1l-0.1-0.1l-0.1-0.1l-0.1-0.1l-0.1-0.1l-0.1-0.1l-0.1-0.1
		l-0.1-0.1l-0.1-0.1l-0.1-0.1l-0.1-0.1l-0.1-0.1l-0.1-0.1l-0.1-0.1v-0.1V22v-0.1v-0.1v-0.1v-0.1v-0.1v-0.1v-0.1v-0.1V21v-0.1v-0.1
		l0.1-0.1l0.1-0.1l0.3,0.4l0,0l0,0l0,0V21v0.1v0.1v0.1v0.1v0.1v0.1v0.1v0.1V22v0.1v0.1v0.1l0.1,0.1l0.1,0.1l0.1,0.1l0.1,0.1l0.1,0.1
		l0.1,0.1l0.1,0.1l0.1,0.1l0.1,0.1l0.1,0.1l0.1,0.1l0.1,0.1l0.1,0.1l0.1,0.1l0.1,0.1l0.1,0.1l0,0L124.3,24.3L124.3,24.3z
		 M128.1,26.2L128.1,26.2L128.1,26.2l-0.2,0.1h-0.1h-0.1h-0.1h-0.1h-0.1h-0.1h-0.1h-0.1H127h-0.1h-0.1h-0.1h-0.1l-0.1-0.1l-0.1-0.1
		l-0.1-0.1l-0.1-0.1l-0.1-0.1l-0.1-0.1l-0.1-0.1l-0.1-0.1l-0.1-0.1l-0.1-0.1l-0.1-0.1l-0.1-0.1l-0.1-0.1l-0.1-0.1l-0.1-0.1l-0.1-0.1
		l-0.1-0.1l0.3-0.4l0.1,0.1l0.1,0.1l0.1,0.1l0.1,0.1l0.1,0.1l0.1,0.1l0.1,0.1l0.1,0.1l0.1,0.1l0.1,0.1h0.1l0.1,0.1l0.1,0.1l0.1,0.1
		l0.1,0.1l0.1,0.1h0.1h0.1h0.1h0.1h0.1h0.1h0.1h0.1h0.1h0.1h0.1h0.1h0.1l0,0l0,0l0,0l0,0L128.1,26.2L128.1,26.2z M126.6,21.7
		L126.6,21.7l0.1,0.1l0.1,0.1l0.1,0.1l0.1,0.1l0.1,0.1l0.1,0.1l0.1,0.1l0.1,0.1l0.1,0.1l0.1,0.1l0.1,0.1l0.1,0.1l0.1,0.1l0.1,0.1
		l0.1,0.1l0.1,0.1l0.1,0.1v0.1v0.1v0.1v0.1v0.1v0.1v0.1v0.1v0.1v0.1V25v0.1v0.1l-0.1,0.1l-0.1,0.1l-0.3-0.4l0,0l0,0l0,0V25v-0.1
		v-0.1v-0.1v-0.1v-0.1v-0.1v-0.1v-0.1v-0.1v-0.1v-0.1v-0.1l-0.1-0.1l-0.1-0.1l-0.1-0.1l-0.1-0.1l-0.1-0.1l-0.1-0.1l-0.1-0.1
		l-0.1-0.1l-0.1-0.1l-0.1-0.1l-0.1-0.1l-0.1-0.1l-0.1-0.1l-0.1-0.1l-0.1-0.1l-0.1-0.1l0,0L126.6,21.7L126.6,21.7z"/>
	<path class="st5" d="M126.4,21.8c-1.4-1.7-3-2.5-3.5-1.8c-0.5,0.6,0.1,2.5,1.5,4.1s3,2.5,3.5,1.8C128.5,25.4,127.8,23.5,126.4,21.8
		z"/>
	<path class="st5" d="M49.6,14.2c0.9,0.8,2.5,1.3,4.1,1.1c3.9-4.5,9.7-8.7,16.2-12.3c-0.4-0.1-0.9-0.1-1.3-0.1L68.1,3
		c0.3,0,0.7,0,0.9,0.2C65,5.6,59.4,9,54.6,13.9C52.6,14.1,51.4,14.1,49.6,14.2z"/>
	<path class="st5" d="M54.1,14.8c-0.8,0.9-1.6,1.9-2.2,2.8c0.6-1.2,1.4-2.3,2.2-3.2V14.8L54.1,14.8z"/>
	<path class="st5" d="M101,2v0.7L100.9,3c2.6,1.3,5.3,2.8,7.9,4.7c2.7,1.9,5.2,4.1,7.5,6.8l0,0l2.6-0.6l-1.3-1.4l-2.4,0.2
		c-2-2.1-4.1-3.8-6.3-5.3c-1.3-0.9-2.6-1.8-3.9-2.5l0.2-1.4L101,2z"/>
	<path class="st5" d="M47.4,23.3h1.5c5.4,0.5,9.8,5.9,9.8,12.4v1.7h-21v-1.7C37.7,29.3,42,23.8,47.4,23.3z"/>
	<path class="st5" d="M125.5,36.9h-21v-0.5c0-6.9,4.7-12.4,10.5-12.4l0,0c5.8,0,10.5,5.6,10.5,12.4V36.9L125.5,36.9z"/>
	<ellipse class="st5" cx="115" cy="35.4" rx="7.1" ry="8.4"/>
	<ellipse class="st5" cx="115" cy="35.4" rx="4.2" ry="5"/>
	<ellipse class="st5" cx="113.7" cy="31.9" rx="1.1" ry="1.3"/>
	<ellipse class="st5" cx="111.9" cy="35.8" rx="1.1" ry="1.3"/>
	<ellipse class="st5" cx="114.6" cy="39" rx="1.1" ry="1.3"/>
	<ellipse class="st5" cx="118" cy="37" rx="1.1" ry="1.3"/>
	<ellipse class="st5" cx="117.4" cy="32.6" rx="1.1" ry="1.3"/>
	<ellipse class="st5" cx="115" cy="34.5" rx="0.2" ry="0.3"/>
	<ellipse class="st5" cx="114.3" cy="35.1" rx="0.2" ry="0.3"/>
	<ellipse class="st5" cx="114.5" cy="36.1" rx="0.2" ry="0.3"/>
	<ellipse class="st5" cx="115.4" cy="36.1" rx="0.2" ry="0.3"/>
	<ellipse class="st5" cx="115.8" cy="35.2" rx="0.2" ry="0.3"/>
	<ellipse class="st5" cx="115" cy="35.3" rx="0.2" ry="0.3"/>
	<ellipse class="st5" cx="48.1" cy="35.4" rx="7.1" ry="8.4"/>
	<ellipse class="st5" cx="48.1" cy="35.4" rx="4.2" ry="5"/>
	<ellipse class="st5" cx="46.7" cy="31.9" rx="1.1" ry="1.3"/>
	<ellipse class="st5" cx="45" cy="35.8" rx="1.1" ry="1.3"/>
	<ellipse class="st5" cx="47.6" cy="39" rx="1.1" ry="1.3"/>
	<ellipse class="st5" cx="51" cy="37" rx="1.1" ry="1.3"/>
	<ellipse class="st5" cx="50.4" cy="32.6" rx="1.1" ry="1.3"/>
	<ellipse class="st5" cx="48.1" cy="34.5" rx="0.2" ry="0.3"/>
	<ellipse class="st5" cx="47.3" cy="35.1" rx="0.2" ry="0.3"/>
	<ellipse class="st5" cx="47.5" cy="36.1" rx="0.2" ry="0.3"/>
	<ellipse class="st5" cx="48.5" cy="36.1" rx="0.2" ry="0.3"/>
	<ellipse class="st5" cx="48.8" cy="35.2" rx="0.2" ry="0.3"/>
	<ellipse class="st5" cx="48" cy="35.3" rx="0.2" ry="0.3"/>
</g>
</svg>
