<?xml version="1.0" encoding="UTF-8" standalone="no" ?>
<!DOCTYPE svg PUBLIC "-//W3C//DTD SVG 1.1//EN" "http://www.w3.org/Graphics/SVG/1.1/DTD/svg11.dtd">
<svg xmlns="http://www.w3.org/2000/svg" xmlns:xlink="http://www.w3.org/1999/xlink" version="1.1" width="336.204" height="171.00415999999998" xml:space="preserve">
<desc>Created with Fabric.js 1.6.0-rc.1</desc>
<defs></defs>
  <g transform="translate(109.58 86.94) scale(2.7 2.88)">
   <text font-family="Cloister Black" font-size="40" font-weight="normal" style="stroke: none; stroke-width: 1; stroke-dasharray: none; stroke-linecap: butt; stroke-linejoin: miter; stroke-miterlimit: 10; fill: #050404; fill-rule: nonzero; opacity: 1;" ><tspan x="-36.38" y="8.98" style="stroke: none; stroke-width: 0; stroke-dasharray: none; stroke-linecap: butt; stroke-linejoin: miter; stroke-miterlimit: 4; fill: #050404; fill-rule: ; opacity: 1;">C</tspan><tspan x="-11.1" y="8.98" style="stroke: none; stroke-width: 0; stroke-dasharray: none; stroke-linecap: butt; stroke-linejoin: miter; stroke-miterlimit: 4; fill: #050404; fill-rule: ; opacity: 1;">a</tspan><tspan x="5.22" y="8.98" style="stroke: none; stroke-width: 0; stroke-dasharray: none; stroke-linecap: butt; stroke-linejoin: miter; stroke-miterlimit: 4; fill: #050404; fill-rule: ; opacity: 1;">r</tspan><tspan x="19.06" y="8.98" style="stroke: none; stroke-width: 0; stroke-dasharray: none; stroke-linecap: butt; stroke-linejoin: miter; stroke-miterlimit: 4; fill: #050404; fill-rule: ; opacity: 1;">s</tspan></text>
 </g>
  <g transform="translate(233.66 134.47) scale(1.22 0.82)">
   <text font-family="Florencesans Shaded" font-size="40" font-weight="normal" style="stroke: none; stroke-width: 1; stroke-dasharray: none; stroke-linecap: butt; stroke-linejoin: miter; stroke-miterlimit: 10; fill: #000000; fill-rule: nonzero; opacity: 1;" ><tspan x="-50.86" y="8.98" style="stroke: none; stroke-width: 0; stroke-dasharray: none; stroke-linecap: butt; stroke-linejoin: miter; stroke-miterlimit: 4; fill: #000000; fill-rule: ; opacity: 1;">T</tspan><tspan x="-23.34" y="8.98" style="stroke: none; stroke-width: 0; stroke-dasharray: none; stroke-linecap: butt; stroke-linejoin: miter; stroke-miterlimit: 4; fill: #000000; fill-rule: ; opacity: 1;">o</tspan><tspan x="5.9" y="8.98" style="stroke: none; stroke-width: 0; stroke-dasharray: none; stroke-linecap: butt; stroke-linejoin: miter; stroke-miterlimit: 4; fill: #000000; fill-rule: ; opacity: 1;">u</tspan><tspan x="32.34" y="8.98" style="stroke: none; stroke-width: 0; stroke-dasharray: none; stroke-linecap: butt; stroke-linejoin: miter; stroke-miterlimit: 4; fill: #000000; fill-rule: ; opacity: 1;">r</tspan></text>
 </g>
<g style="stroke: none; stroke-width: 1; stroke-dasharray: none; stroke-linecap: butt; stroke-linejoin: miter; stroke-miterlimit: 10; fill: none; fill-rule: nonzero; opacity: 1;" transform="translate(206 60.56) scale(0.81 0.81)" >
  <path d="M 147.4 30.3 c -10.8 9 -37.7 17.4 -69.5 20.7 C 35.8 55.3 0.9 49.2 0 37.3 C -0.6 29 15.3 20.1 39.1 14 c -15.6 5.4 -25.3 12.1 -24.8 18.4 c 0.9 11.3 34 17.2 73.9 13 C 113.1 42.9 134.8 37.1 147.4 30.3 L 147.4 30.3 z" style="stroke: none; stroke-width: 1; stroke-dasharray: none; stroke-linecap: butt; stroke-linejoin: miter; stroke-miterlimit: 10; fill: #1F1A17; fill-rule: nonzero; opacity: 1;" transform=" matrix(1 0 0 1 0 0) " stroke-linecap="round" />
  <path d="M 134.5 31 c -9.8 7.6 -34.2 14.4 -63.2 16.7 C 33 50.7 1.3 44.9 0.5 34.6 C -0.1 27.4 14.3 20 36 15.2 c -14.2 4.4 -23 10 -22.6 15.5 c 0.8 9.8 30.9 15.3 67.2 12.4 C 103.3 41.3 123 36.6 134.5 31 L 134.5 31 z" style="stroke: none; stroke-width: 1; stroke-dasharray: none; stroke-linecap: butt; stroke-linejoin: miter; stroke-miterlimit: 10; fill: #4d4d42; fill-rule: nonzero; opacity: 1;" transform=" matrix(1 0 0 1 0 0) " stroke-linecap="round" />
  <path d="M 27.3 35.7 h -5.6 h -0.5 l -0.3 -0.3 c -1.1 -1.1 -2 -2.5 -2.4 -3.8 c -0.1 -0.3 -0.2 -0.5 -0.2 -0.8 l -1 -0.2 l 0.1 -0.9 c 0 -0.2 0 -0.4 0 -0.6 c 0 -1 0.1 -2.4 0.5 -3.5 l 0 0 l 0 0 l 0.5 -0.5 c 0.5 -0.2 0.9 -0.4 1.3 -0.5 c 0.1 0 0.2 -0.1 0.3 -0.1 c 1.1 -1.9 2.7 -4.3 5.9 -6.3 c 3.3 -2.1 8.3 -3.7 16.1 -3.7 C 56.6 3.5 74.3 -0.3 91.1 4.4 c 3.3 0.9 6.5 2.2 9.7 3.8 c 3.1 1.6 6.1 3.4 9.1 5.7 c 0.2 0 0.4 0 0.8 0.2 l 0.3 0.2 c 1 0.9 1.8 1.7 2.6 2.4 c 0.7 0.7 1.5 1.4 2.5 2.3 c 1.4 0.8 2.7 1.8 3.5 2.9 c 0.2 0.2 0.3 0.5 0.5 0.7 c 0.1 0.1 0.1 0.2 0.2 0.3 c 0.6 0.3 1.1 0.6 1.5 0.9 c 0.5 0.4 1 0.9 1.4 1.4 l 0.2 0.6 l 0.2 4.3 l -0.1 0.4 c -0.4 1 -0.9 1.8 -1.4 2.6 c -0.5 0.8 -1.1 1.5 -1.8 2.2 l -0.3 0.4 h -0.5 h -3 h -1.1 v -1 v -1.9 v 0 h 0 c 0 -2.4 -1.1 -4.6 -2.8 -6.1 v 0 c -1.7 -1.6 -4.1 -2.6 -6.7 -2.6 v 0 h 0 l 0 0 h 0 v 0 c -2.6 0 -5 1 -6.7 2.6 h 0 c -1.7 1.6 -2.8 3.7 -2.8 6.1 h 0 v 0 v 1.2 h 0 v 1.6 v 1 l -1.1 0 l -46.4 -0.3 l -1.1 0 v -1 v -1 v -2 v 0 h 0 c 0 -2.4 -1.1 -4.6 -2.8 -6.1 v 0 c -1.7 -1.6 -4.1 -2.6 -6.7 -2.6 v 0 h 0 l 0 0 h 0 v 0 c -2.6 0 -5 1 -6.7 2.6 h 0 c -1.7 1.6 -2.8 3.7 -2.8 6.1 h 0 v 0 v 2.3 v 1 L 27.3 35.7 L 27.3 35.7 z" style="stroke: none; stroke-width: 1; stroke-dasharray: none; stroke-linecap: butt; stroke-linejoin: miter; stroke-miterlimit: 10; fill: #FFFFFF; fill-rule: nonzero; opacity: 1;" transform=" matrix(1 0 0 1 0 0) " stroke-linecap="round" />
  <path d="M 22.4 33.9 h 5.5 v -2.5 c 0 -5.8 4.7 -10.5 10.5 -10.5 l 0 0 c 5.8 0 10.5 4.7 10.5 10.5 v 2.1 v 1 l 45.8 0.3 v -1.7 v -1.3 c 0 -5.8 4.7 -10.5 10.5 -10.5 l 0 0 c 5.8 0 10.5 4.7 10.5 10.5 v 2 h 3 c 1.2 -1.4 2.2 -2.9 2.9 -4.8 c -0.1 -1.5 -0.1 -3.1 -0.2 -4.6 c -0.8 -1 -1.6 -1.8 -2.9 -2.4 c -0.5 -1.4 -2 -3.1 -3.9 -4.2 c -1.9 -1.9 -3.2 -3.3 -5.1 -5.2 c -0.3 -0.2 -0.4 0 -0.7 -0.1 C 88 -4.9 62.5 -3.1 42.7 13 c -15.4 0 -19.2 6.7 -21.3 10.6 c -0.5 0.3 -1.1 0.4 -1.8 0.8 c -0.5 1.3 -0.4 3.2 -0.5 4.1 c 0.3 0.1 0.5 0.1 0.8 0.2 C 20 30.2 21 32.4 22.4 33.9 L 22.4 33.9 z" style="stroke: #1F1A17; stroke-width: 0; stroke-dasharray: none; stroke-linecap: butt; stroke-linejoin: miter; stroke-miterlimit: 10; fill: #4d4d42; fill-rule: nonzero; opacity: 1;" transform=" matrix(1 0 0 1 0 0) " stroke-linecap="round" />
  <rect x="20.4" y="26.1" rx="0" ry="0" width="3.6" height="2" style="stroke: #1F1A17; stroke-width: 0; stroke-dasharray: none; stroke-linecap: butt; stroke-linejoin: miter; stroke-miterlimit: 10; fill: #FFFFFF; fill-rule: nonzero; opacity: 1;" transform=" matrix(1 0 0 1 0 0) "/>
  <path d="M 53.7 31.6 l 0 -0.1 c 0 -1.3 -0.2 -2.5 -0.5 -3.7 c -0.3 -1.2 -0.7 -2.3 -1.3 -3.4 c -2.8 -5.5 -8.5 -9.3 -15.2 -9.3 h 0 v 0 c -4.6 -0.1 -8.7 1.8 -11.6 4 c 1.3 -1.2 2.8 -2.2 4.4 -2.9 l 0 0 c 0.3 -0.1 0.6 -0.3 0.9 -0.4 c 2 -0.7 4.1 -1.1 6.2 -1.1 v 0 h 0 c 6.8 0 12.7 3.9 15.5 9.5 c 0.6 1.1 1 2.3 1.3 3.5 c 0.3 1.2 0.5 2.5 0.5 3.8 l 0 0.1 L 53.7 31.6 L 53.7 31.6 z" style="stroke: none; stroke-width: 1; stroke-dasharray: none; stroke-linecap: butt; stroke-linejoin: miter; stroke-miterlimit: 10; fill: #1F1A17; fill-rule: nonzero; opacity: 1;" transform=" matrix(1 0 0 1 0 0) " stroke-linecap="round" />
  <line x1="0" y1="-8.85" x2="0" y2="8.85" style="stroke: #1F1A17; stroke-width: 0; stroke-dasharray: none; stroke-linecap: butt; stroke-linejoin: miter; stroke-miterlimit: 10; fill: none; fill-rule: nonzero; opacity: 1;" transform=" matrix(1 0 0 1 0 0) "/>
  <path d="M 28.9 17.6 l -0.3 0.3 l 0 0 l 0 0 l 0 0 l 0 0 l -0.1 0 l -0.1 0 l -0.1 0 l -0.1 0 h -0.1 l -0.1 0 l -0.1 0 l -0.1 0 l -0.1 0 l -0.1 0 l -0.1 0 l -0.1 0 l -0.1 0 L 27.3 18 l -0.1 0.1 L 27 18.1 l -0.1 0.1 l -0.1 0.1 l -0.1 0.1 l -0.1 0.1 l -0.1 0.1 l -0.1 0.1 l -0.1 0.1 L 26 18.8 l -0.1 0.1 l -0.1 0.1 l -0.1 0.1 l -0.1 0.1 l -0.1 0.1 l -0.3 -0.3 l 0.1 -0.1 l 0.1 -0.1 l 0.1 -0.1 l 0.1 -0.1 l 0.1 -0.1 l 0.1 -0.1 l 0.1 -0.1 l 0.1 -0.1 l 0.1 -0.1 l 0.1 -0.1 l 0.1 -0.1 l 0.1 -0.1 l 0.1 -0.1 l 0.1 -0.1 l 0.1 -0.1 l 0.1 -0.1 l 0.1 -0.1 l 0.1 0 l 0.1 0 l 0.1 0 l 0.1 0 l 0.1 0 l 0.1 0 l 0.1 0 h 0.1 l 0.1 0 l 0.1 0 l 0.1 0 l 0.1 0 l 0.1 0 L 28.9 17.6 L 28.9 17.6 L 28.9 17.6 L 28.9 17.6 z M 27.3 21.4 l -0.3 -0.3 l 0 0 l 0.1 -0.1 l 0.1 -0.1 l 0.1 -0.1 l 0.1 -0.1 l 0.1 -0.1 l 0.1 -0.1 l 0.1 -0.1 l 0.1 -0.1 l 0.1 -0.1 l 0.1 -0.1 l 0.1 -0.1 l 0.1 -0.1 l 0.1 -0.1 l 0.1 -0.1 l 0.1 -0.1 l 0.1 -0.1 l 0 -0.1 l 0 -0.1 l 0 -0.1 l 0 -0.1 l 0 -0.1 l 0 -0.1 l 0 -0.1 l 0 -0.1 l 0 -0.1 l 0 -0.1 l 0 -0.1 l 0 -0.1 l 0 -0.1 l 0 0 l 0 0 l 0 0 l 0.3 -0.3 l 0.1 0.1 l 0.1 0.1 l 0 0.1 l 0 0.1 l 0 0.1 l 0 0.1 l 0 0.1 l 0 0.1 l 0 0.1 l 0 0.1 l 0 0.1 l 0 0.1 l 0 0.1 l 0 0.1 l 0 0.1 l -0.1 0.1 l -0.1 0.1 l -0.1 0.1 l -0.1 0.1 l -0.1 0.1 l -0.1 0.1 L 28.5 20 l -0.1 0.1 l -0.1 0.1 l -0.1 0.1 l -0.1 0.1 L 28 20.7 l -0.1 0.1 L 27.7 21 l -0.1 0.1 l -0.1 0.1 L 27.3 21.4 L 27.3 21.4 L 27.3 21.4 z M 23.6 22.9 l 0.3 -0.3 l 0 0 l 0 0 l 0 0 l 0 0 l 0.1 0 l 0.1 0 l 0.1 0 l 0.1 0 l 0.1 0 l 0.1 0 l 0.1 0 l 0.1 0 l 0.1 0 l 0.1 0 l 0.1 0 l 0.1 0 l 0.1 0 l 0.1 -0.1 l 0.1 -0.1 l 0.1 -0.1 l 0.1 -0.1 l 0.1 -0.1 l 0.1 -0.1 l 0.1 -0.1 L 26 22 l 0.1 -0.1 l 0.1 -0.1 l 0.1 -0.1 l 0.1 -0.1 l 0.1 -0.1 l 0.1 -0.1 l 0.1 -0.1 l 0.1 -0.1 l 0.3 0.3 l -0.1 0.1 l -0.1 0.1 l -0.1 0.1 l -0.1 0.1 L 26.7 22 l -0.1 0.1 l -0.1 0.1 l -0.1 0.1 l -0.1 0.1 L 26 22.5 l -0.1 0.1 l -0.1 0.1 l -0.1 0.1 l -0.1 0.1 l -0.1 0.1 l -0.1 0.1 L 25.1 23 L 25 23 l -0.1 0 l -0.1 0 l -0.1 0 l -0.1 0 l -0.1 0 l -0.1 0 l -0.1 0 l -0.1 0 l -0.1 0 l -0.1 0 l -0.1 0 l -0.1 0 L 23.6 22.9 L 23.6 22.9 L 23.6 22.9 L 23.6 22.9 z M 25.1 19.2 l 0.3 0.3 l 0 0 l -0.1 0.1 l -0.1 0.1 L 25 19.8 l -0.1 0.1 l -0.1 0.1 l -0.1 0.1 l -0.1 0.1 l -0.1 0.1 l -0.1 0.1 l -0.1 0.1 l 0 0.1 L 24.2 21 l -0.1 0.1 l -0.1 0.1 L 24 21.3 L 24 21.4 l 0 0.1 l 0 0.1 l 0 0.1 l 0 0.1 l 0 0.1 l 0 0.1 l 0 0.1 l 0 0.1 l 0 0.1 l 0 0.1 l 0 0.1 l 0 0.1 l 0 0.1 l 0 0 l 0 0 l 0 0 l -0.3 0.3 l -0.1 -0.1 l -0.1 -0.1 l 0 -0.1 l 0 -0.1 l 0 -0.1 l 0 -0.1 l 0 -0.1 l 0 -0.1 l 0 -0.1 l 0 -0.1 l 0 -0.1 l 0 -0.1 l 0 -0.1 l 0 -0.1 l 0 -0.1 l 0.1 -0.1 l 0.1 -0.1 l 0.1 -0.1 l 0.1 -0.1 l 0.1 -0.1 l 0.1 -0.1 l 0.1 -0.1 l 0.1 -0.1 l 0.1 -0.1 l 0.1 -0.1 l 0.1 -0.1 l 0.1 -0.1 l 0.1 -0.1 l 0.1 -0.1 l 0.1 -0.1 l 0.1 -0.1 L 25.1 19.2 L 25.1 19.2 L 25.1 19.2 z" style="stroke: none; stroke-width: 1; stroke-dasharray: none; stroke-linecap: butt; stroke-linejoin: miter; stroke-miterlimit: 10; fill: #1F1A17; fill-rule: nonzero; opacity: 1;" transform=" matrix(1 0 0 1 0 0) " stroke-linecap="round" />
  <path d="M 25.2 19.3 c 1.4 -1.4 3 -2.1 3.5 -1.5 c 0.5 0.5 -0.1 2.1 -1.5 3.5 c -1.4 1.4 -3 2.1 -3.5 1.5 S 23.9 20.7 25.2 19.3 z" style="stroke: none; stroke-width: 1; stroke-dasharray: none; stroke-linecap: butt; stroke-linejoin: miter; stroke-miterlimit: 10; fill: #1F1A17; fill-rule: nonzero; opacity: 1;" transform=" matrix(1 0 0 1 0 0) " stroke-linecap="round" />
  <path d="M 89.6 31.6 l 0 -0.1 c 0 -1.2 0.2 -2.4 0.4 -3.6 c 0.3 -1.1 0.6 -2.2 1.1 -3.3 c 2.4 -5.3 7.5 -9.1 13.3 -9.3 h 0 v 0 c 4 -0.3 7.6 1.5 10.1 3.5 c -1.2 -1.1 -2.5 -2 -3.9 -2.6 l 0 0 c -0.3 -0.1 -0.6 -0.2 -0.8 -0.3 c -1.7 -0.6 -3.6 -1 -5.4 -0.9 v 0 h 0 c -5.9 0.2 -11.1 4.1 -13.6 9.6 c -0.5 1.1 -0.9 2.2 -1.1 3.4 c -0.3 1.2 -0.4 2.4 -0.4 3.6 l 0 0.1 L 89.6 31.6 L 89.6 31.6 z" style="stroke: none; stroke-width: 1; stroke-dasharray: none; stroke-linecap: butt; stroke-linejoin: miter; stroke-miterlimit: 10; fill: #1F1A17; fill-rule: nonzero; opacity: 1;" transform=" matrix(1 0 0 1 0 0) " stroke-linecap="round" />
  <path d="M 47.3 14.1 l 52.9 -0.5 C 80.3 -7.4 52.2 6.5 47.3 14.1 z M 50.7 12 h 2.9 v 1.4 L 79 13.2 V 3.7 C 66.5 2.1 54.6 7.4 50.7 12 z M 83.6 13.1 V 4.6 c 5 1.4 10 4 14.4 8.4 C 98 13 83.6 13.1 83.6 13.1 z" style="stroke: none; stroke-width: 1; stroke-dasharray: none; stroke-linecap: butt; stroke-linejoin: miter; stroke-miterlimit: 10; fill: #1F1A17; fill-rule: nonzero; opacity: 1;" transform=" matrix(1 0 0 1 0 0) " stroke-linecap="round" />
  <path d="M 50.6 12 c 0.4 -0.7 1 -1.3 1.8 -1.9 c 0.4 -0.3 0.8 -0.5 1.2 -0.7 V 12 H 50.6 z" style="stroke: #1F1A17; stroke-width: 0; stroke-dasharray: none; stroke-linecap: butt; stroke-linejoin: miter; stroke-miterlimit: 10; fill: none; fill-rule: nonzero; opacity: 1;" transform=" matrix(1 0 0 1 0 0) " stroke-linecap="round" />
  <path d="M 83.6 13.1 V 4.6 c 5 1.4 10 4 14.4 8.4 C 98 13 83.6 13.1 83.6 13.1 z" style="stroke: #1F1A17; stroke-width: 0; stroke-dasharray: none; stroke-linecap: butt; stroke-linejoin: miter; stroke-miterlimit: 10; fill: #FFFFFF; fill-rule: nonzero; opacity: 1;" transform=" matrix(1 0 0 1 0 0) " stroke-linecap="round" />
  <path d="M 50.7 12 h 2.9 v 1.4 L 79 13.2 V 3.7 C 66.5 2.1 54.6 7.4 50.7 12 z" style="stroke: #1F1A17; stroke-width: 0; stroke-dasharray: none; stroke-linecap: butt; stroke-linejoin: miter; stroke-miterlimit: 10; fill: #FFFFFF; fill-rule: nonzero; opacity: 1;" transform=" matrix(1 0 0 1 0 0) " stroke-linecap="round" />
  <path d="M 50.6 12 c 0.4 -0.7 1 -1.3 1.8 -1.9 c 0.4 -0.3 0.8 -0.5 1.2 -0.7 V 12 H 50.6 L 50.6 12 z" style="stroke: #1F1A17; stroke-width: 0; stroke-dasharray: none; stroke-linecap: butt; stroke-linejoin: miter; stroke-miterlimit: 10; fill: #4d4d42; fill-rule: nonzero; opacity: 1;" transform=" matrix(1 0 0 1 0 0) " stroke-linecap="round" />
  <polygon points="52.8,34.5 53.9,31.7 89.4,31.7 91,34.8 " style="stroke: #1F1A17; stroke-width: 0; stroke-dasharray: none; stroke-linecap: butt; stroke-linejoin: miter; stroke-miterlimit: 10; fill: none; fill-rule: nonzero; opacity: 1;" transform="  matrix(1 0 0 1 0 0) "/>
  <path d="M 113 17.9 L 113 17.9 L 113 17.9 l 0.2 -0.1 l 0.1 0 l 0.1 0 l 0.1 0 l 0.1 0 l 0.1 0 h 0.1 l 0.1 0 l 0.1 0 l 0.1 0 l 0.1 0 l 0.1 0 l 0.1 0 l 0.1 0 l 0.1 0.1 l 0.1 0.1 l 0.1 0.1 L 115 18 l 0.1 0.1 l 0.1 0.1 l 0.1 0.1 l 0.1 0.1 l 0.1 0.1 l 0.1 0.1 l 0.1 0.1 l 0.1 0.1 l 0.1 0.1 l 0.1 0.1 l 0.1 0.1 l 0.1 0.1 l 0.1 0.1 l -0.3 0.3 l -0.1 -0.1 l -0.1 -0.1 l -0.1 -0.1 l -0.1 -0.1 l -0.1 -0.1 l -0.1 -0.1 l -0.1 -0.1 l -0.1 -0.1 l -0.1 -0.1 l -0.1 -0.1 l -0.1 -0.1 l -0.1 -0.1 l -0.1 -0.1 l -0.1 -0.1 l -0.1 -0.1 l -0.1 -0.1 l -0.1 0 l -0.1 0 l -0.1 0 l -0.1 0 l -0.1 0 l -0.1 0 l -0.1 0 l -0.1 0 h -0.1 l -0.1 0 l -0.1 0 l -0.1 0 l -0.1 0 l 0 0 l 0 0 l 0 0 l 0 0 L 113 17.9 L 113 17.9 z M 114.5 21.6 L 114.5 21.6 l -0.1 -0.1 l -0.1 -0.1 l -0.1 -0.1 l -0.1 -0.1 l -0.1 -0.1 l -0.1 -0.1 l -0.1 -0.1 l -0.1 -0.1 l -0.1 -0.1 l -0.1 -0.1 l -0.1 -0.1 l -0.1 -0.1 l -0.1 -0.1 l -0.1 -0.1 l -0.1 -0.1 l -0.1 -0.1 l -0.1 -0.1 l 0 -0.1 l 0 -0.1 l 0 -0.1 l 0 -0.1 l 0 -0.1 l 0 -0.1 l 0 -0.1 l 0 -0.1 l 0 -0.1 l 0 -0.1 l 0 -0.1 l 0 -0.1 l 0 -0.1 l 0.1 -0.1 l 0.1 -0.1 l 0.3 0.3 l 0 0 l 0 0 l 0 0 l 0 0.1 l 0 0.1 l 0 0.1 l 0 0.1 l 0 0.1 l 0 0.1 l 0 0.1 l 0 0.1 l 0 0.1 l 0 0.1 l 0 0.1 l 0 0.1 l 0 0.1 l 0.1 0.1 l 0.1 0.1 l 0.1 0.1 l 0.1 0.1 l 0.1 0.1 l 0.1 0.1 l 0.1 0.1 l 0.1 0.1 l 0.1 0.1 l 0.1 0.1 l 0.1 0.1 l 0.1 0.1 l 0.1 0.1 l 0.1 0.1 l 0.1 0.1 l 0.1 0.1 l 0 0 L 114.5 21.6 L 114.5 21.6 z M 118.3 23.2 L 118.3 23.2 L 118.3 23.2 l -0.2 0.1 l -0.1 0 l -0.1 0 l -0.1 0 l -0.1 0 l -0.1 0 l -0.1 0 l -0.1 0 l -0.1 0 l -0.1 0 l -0.1 0 l -0.1 0 l -0.1 0 l -0.1 0 l -0.1 -0.1 l -0.1 -0.1 l -0.1 -0.1 l -0.1 -0.1 l -0.1 -0.1 l -0.1 -0.1 l -0.1 -0.1 l -0.1 -0.1 l -0.1 -0.1 l -0.1 -0.1 l -0.1 -0.1 l -0.1 -0.1 l -0.1 -0.1 l -0.1 -0.1 l -0.1 -0.1 l -0.1 -0.1 l -0.1 -0.1 l 0.3 -0.3 l 0.1 0.1 l 0.1 0.1 l 0.1 0.1 l 0.1 0.1 l 0.1 0.1 l 0.1 0.1 l 0.1 0.1 l 0.1 0.1 l 0.1 0.1 l 0.1 0.1 l 0.1 0 l 0.1 0.1 l 0.1 0.1 l 0.1 0.1 l 0.1 0.1 l 0.1 0.1 l 0.1 0 l 0.1 0 l 0.1 0 l 0.1 0 l 0.1 0 l 0.1 0 l 0.1 0 l 0.1 0 l 0.1 0 l 0.1 0 l 0.1 0 l 0.1 0 l 0.1 0 l 0 0 l 0 0 l 0 0 l 0 0 L 118.3 23.2 L 118.3 23.2 z M 116.8 19.4 L 116.8 19.4 l 0.1 0.1 l 0.1 0.1 l 0.1 0.1 l 0.1 0.1 l 0.1 0.1 l 0.1 0.1 l 0.1 0.1 l 0.1 0.1 l 0.1 0.1 l 0.1 0.1 l 0.1 0.1 l 0.1 0.1 l 0.1 0.1 l 0.1 0.1 l 0.1 0.1 l 0.1 0.1 l 0.1 0.1 l 0 0.1 l 0 0.1 l 0 0.1 l 0 0.1 l 0 0.1 l 0 0.1 l 0 0.1 l 0 0.1 l 0 0.1 l 0 0.1 l 0 0.1 l 0 0.1 l 0 0.1 l -0.1 0.1 l -0.1 0.1 l -0.3 -0.3 l 0 0 l 0 0 l 0 0 l 0 -0.1 l 0 -0.1 l 0 -0.1 l 0 -0.1 l 0 -0.1 l 0 -0.1 l 0 -0.1 l 0 -0.1 l 0 -0.1 l 0 -0.1 l 0 -0.1 l 0 -0.1 l 0 -0.1 l -0.1 -0.1 l -0.1 -0.1 l -0.1 -0.1 l -0.1 -0.1 l -0.1 -0.1 l -0.1 -0.1 l -0.1 -0.1 l -0.1 -0.1 l -0.1 -0.1 l -0.1 -0.1 l -0.1 -0.1 l -0.1 -0.1 l -0.1 -0.1 l -0.1 -0.1 l -0.1 -0.1 l -0.1 -0.1 l 0 0 L 116.8 19.4 L 116.8 19.4 z" style="stroke: none; stroke-width: 1; stroke-dasharray: none; stroke-linecap: butt; stroke-linejoin: miter; stroke-miterlimit: 10; fill: #1F1A17; fill-rule: nonzero; opacity: 1;" transform=" matrix(1 0 0 1 0 0) " stroke-linecap="round" />
  <path d="M 116.6 19.5 c -1.4 -1.4 -3 -2.1 -3.5 -1.5 c -0.5 0.5 0.1 2.1 1.5 3.5 c 1.4 1.4 3 2.1 3.5 1.5 C 118.7 22.5 118 20.9 116.6 19.5 z" style="stroke: none; stroke-width: 1; stroke-dasharray: none; stroke-linecap: butt; stroke-linejoin: miter; stroke-miterlimit: 10; fill: #1F1A17; fill-rule: nonzero; opacity: 1;" transform=" matrix(1 0 0 1 0 0) " stroke-linecap="round" />
  <path d="M 39.8 13.1 c 0.9 0.7 2.5 1.1 4.1 0.9 c 3.9 -3.8 9.7 -7.3 16.2 -10.4 c -0.4 -0.1 -0.9 -0.1 -1.3 -0.1 l -0.5 0.1 c 0.3 0 0.7 0 0.9 0.2 c -4 2 -9.6 4.9 -14.4 9 C 42.8 13 41.6 13 39.8 13.1 z" style="stroke: none; stroke-width: 1; stroke-dasharray: none; stroke-linecap: butt; stroke-linejoin: miter; stroke-miterlimit: 10; fill: #1F1A17; fill-rule: nonzero; opacity: 1;" transform=" matrix(1 0 0 1 0 0) " stroke-linecap="round" />
  <path d="M 44.3 13.6 c -0.8 0.8 -1.6 1.6 -2.2 2.4 c 0.6 -1 1.4 -1.9 2.2 -2.7 V 13.6 L 44.3 13.6 z" style="stroke: none; stroke-width: 1; stroke-dasharray: none; stroke-linecap: butt; stroke-linejoin: miter; stroke-miterlimit: 10; fill: #1F1A17; fill-rule: nonzero; opacity: 1;" transform=" matrix(1 0 0 1 0 0) " stroke-linecap="round" />
  <path d="M 91.2 2.8 l 0 0.6 l -0.1 0.2 c 2.6 1.1 5.3 2.4 7.9 4 c 2.7 1.6 5.2 3.5 7.5 5.7 l 0 0 l 2.6 -0.5 l -1.3 -1.2 l -2.4 0.2 c -2 -1.8 -4.1 -3.2 -6.3 -4.5 c -1.3 -0.8 -2.6 -1.5 -3.9 -2.1 L 95.4 4 C 95.4 4 91.2 2.8 91.2 2.8 z" style="stroke: #1F1A17; stroke-width: 0; stroke-dasharray: none; stroke-linecap: butt; stroke-linejoin: miter; stroke-miterlimit: 10; fill: #1F1A17; fill-rule: nonzero; opacity: 1;" transform=" matrix(1 0 0 1 0 0) " stroke-linecap="round" />
  <path d="M 37.6 20.8 h 1.5 c 5.4 0.4 9.8 5 9.8 10.5 v 1.4 h -21 v -1.4 C 27.9 25.8 32.2 21.2 37.6 20.8 z" style="stroke: none; stroke-width: 1; stroke-dasharray: none; stroke-linecap: butt; stroke-linejoin: miter; stroke-miterlimit: 10; fill: #383431; fill-rule: nonzero; opacity: 1;" transform=" matrix(1 0 0 1 0 0) " stroke-linecap="round" />
  <path d="M 115.7 32.2 h -21 v -0.4 c 0 -5.8 4.7 -10.5 10.5 -10.5 l 0 0 c 5.8 0 10.5 4.7 10.5 10.5 L 115.7 32.2 L 115.7 32.2 z" style="stroke: none; stroke-width: 1; stroke-dasharray: none; stroke-linecap: butt; stroke-linejoin: miter; stroke-miterlimit: 10; fill: #383431; fill-rule: nonzero; opacity: 1;" transform=" matrix(1 0 0 1 0 0) " stroke-linecap="round" />
  <circle cx="105.2" cy="31" r="8.8" style="stroke: #1F1A17; stroke-width: 0; stroke-dasharray: none; stroke-linecap: butt; stroke-linejoin: miter; stroke-miterlimit: 10; fill: #1F1A17; fill-rule: nonzero; opacity: 1;" transform="  matrix(1 0 0 1 0 0) "/>
  <circle cx="105.2" cy="31" r="5.2" style="stroke: #1F1A17; stroke-width: 0; stroke-dasharray: none; stroke-linecap: butt; stroke-linejoin: miter; stroke-miterlimit: 10; fill: #FFFFFF; fill-rule: nonzero; opacity: 1;" transform="  matrix(1 0 0 1 0 0) "/>
  <circle cx="103.9" cy="28" r="1.4" style="stroke: none; stroke-width: 1; stroke-dasharray: none; stroke-linecap: butt; stroke-linejoin: miter; stroke-miterlimit: 10; fill: #1F1A17; fill-rule: nonzero; opacity: 1;" transform="  matrix(1 0 0 1 0 0) "/>
  <circle cx="102.10000000000001" cy="31.299999999999997" r="1.4" style="stroke: none; stroke-width: 1; stroke-dasharray: none; stroke-linecap: butt; stroke-linejoin: miter; stroke-miterlimit: 10; fill: #1F1A17; fill-rule: nonzero; opacity: 1;" transform="  matrix(1 0 0 1 0 0) "/>
  <circle cx="104.80000000000001" cy="34" r="1.4" style="stroke: none; stroke-width: 1; stroke-dasharray: none; stroke-linecap: butt; stroke-linejoin: miter; stroke-miterlimit: 10; fill: #1F1A17; fill-rule: nonzero; opacity: 1;" transform="  matrix(1 0 0 1 0 0) "/>
  <circle cx="108.2" cy="32.3" r="1.4" style="stroke: none; stroke-width: 1; stroke-dasharray: none; stroke-linecap: butt; stroke-linejoin: miter; stroke-miterlimit: 10; fill: #1F1A17; fill-rule: nonzero; opacity: 1;" transform="  matrix(1 0 0 1 0 0) "/>
  <circle cx="107.60000000000001" cy="28.599999999999998" r="1.4" style="stroke: none; stroke-width: 1; stroke-dasharray: none; stroke-linecap: butt; stroke-linejoin: miter; stroke-miterlimit: 10; fill: #1F1A17; fill-rule: nonzero; opacity: 1;" transform="  matrix(1 0 0 1 0 0) "/>
  <circle cx="105.2" cy="30.2" r="0.3" style="stroke: none; stroke-width: 1; stroke-dasharray: none; stroke-linecap: butt; stroke-linejoin: miter; stroke-miterlimit: 10; fill: #1F1A17; fill-rule: nonzero; opacity: 1;" transform="  matrix(1 0 0 1 0 0) "/>
  <circle cx="104.5" cy="30.7" r="0.3" style="stroke: none; stroke-width: 1; stroke-dasharray: none; stroke-linecap: butt; stroke-linejoin: miter; stroke-miterlimit: 10; fill: #1F1A17; fill-rule: nonzero; opacity: 1;" transform="  matrix(1 0 0 1 0 0) "/>
  <circle cx="104.7" cy="31.6" r="0.3" style="stroke: none; stroke-width: 1; stroke-dasharray: none; stroke-linecap: butt; stroke-linejoin: miter; stroke-miterlimit: 10; fill: #1F1A17; fill-rule: nonzero; opacity: 1;" transform="  matrix(1 0 0 1 0 0) "/>
  <circle cx="105.6" cy="31.6" r="0.3" style="stroke: none; stroke-width: 1; stroke-dasharray: none; stroke-linecap: butt; stroke-linejoin: miter; stroke-miterlimit: 10; fill: #1F1A17; fill-rule: nonzero; opacity: 1;" transform="  matrix(1 0 0 1 0 0) "/>
  <circle cx="106" cy="30.8" r="0.3" style="stroke: none; stroke-width: 1; stroke-dasharray: none; stroke-linecap: butt; stroke-linejoin: miter; stroke-miterlimit: 10; fill: #1F1A17; fill-rule: nonzero; opacity: 1;" transform="  matrix(1 0 0 1 0 0) "/>
  <circle cx="105.2" cy="30.900000000000002" r="0.3" style="stroke: none; stroke-width: 1; stroke-dasharray: none; stroke-linecap: butt; stroke-linejoin: miter; stroke-miterlimit: 10; fill: #1F1A17; fill-rule: nonzero; opacity: 1;" transform="  matrix(1 0 0 1 0 0) "/>
  <circle cx="38.3" cy="31" r="8.8" style="stroke: #1F1A17; stroke-width: 0; stroke-dasharray: none; stroke-linecap: butt; stroke-linejoin: miter; stroke-miterlimit: 10; fill: #1F1A17; fill-rule: nonzero; opacity: 1;" transform="  matrix(1 0 0 1 0 0) "/>
  <circle cx="38.300000000000004" cy="31" r="5.2" style="stroke: #1F1A17; stroke-width: 0; stroke-dasharray: none; stroke-linecap: butt; stroke-linejoin: miter; stroke-miterlimit: 10; fill: #FFFFFF; fill-rule: nonzero; opacity: 1;" transform="  matrix(1 0 0 1 0 0) "/>
  <circle cx="36.9" cy="28" r="1.4" style="stroke: none; stroke-width: 1; stroke-dasharray: none; stroke-linecap: butt; stroke-linejoin: miter; stroke-miterlimit: 10; fill: #1F1A17; fill-rule: nonzero; opacity: 1;" transform="  matrix(1 0 0 1 0 0) "/>
  <circle cx="35.199999999999996" cy="31.299999999999997" r="1.4" style="stroke: none; stroke-width: 1; stroke-dasharray: none; stroke-linecap: butt; stroke-linejoin: miter; stroke-miterlimit: 10; fill: #1F1A17; fill-rule: nonzero; opacity: 1;" transform="  matrix(1 0 0 1 0 0) "/>
  <circle cx="37.8" cy="34" r="1.4" style="stroke: none; stroke-width: 1; stroke-dasharray: none; stroke-linecap: butt; stroke-linejoin: miter; stroke-miterlimit: 10; fill: #1F1A17; fill-rule: nonzero; opacity: 1;" transform="  matrix(1 0 0 1 0 0) "/>
  <circle cx="41.199999999999996" cy="32.3" r="1.4" style="stroke: none; stroke-width: 1; stroke-dasharray: none; stroke-linecap: butt; stroke-linejoin: miter; stroke-miterlimit: 10; fill: #1F1A17; fill-rule: nonzero; opacity: 1;" transform="  matrix(1 0 0 1 0 0) "/>
  <circle cx="40.6" cy="28.599999999999998" r="1.4" style="stroke: none; stroke-width: 1; stroke-dasharray: none; stroke-linecap: butt; stroke-linejoin: miter; stroke-miterlimit: 10; fill: #1F1A17; fill-rule: nonzero; opacity: 1;" transform="  matrix(1 0 0 1 0 0) "/>
  <circle cx="38.3" cy="30.2" r="0.3" style="stroke: none; stroke-width: 1; stroke-dasharray: none; stroke-linecap: butt; stroke-linejoin: miter; stroke-miterlimit: 10; fill: #1F1A17; fill-rule: nonzero; opacity: 1;" transform="  matrix(1 0 0 1 0 0) "/>
  <circle cx="37.5" cy="30.7" r="0.3" style="stroke: none; stroke-width: 1; stroke-dasharray: none; stroke-linecap: butt; stroke-linejoin: miter; stroke-miterlimit: 10; fill: #1F1A17; fill-rule: nonzero; opacity: 1;" transform="  matrix(1 0 0 1 0 0) "/>
  <circle cx="37.699999999999996" cy="31.6" r="0.3" style="stroke: none; stroke-width: 1; stroke-dasharray: none; stroke-linecap: butt; stroke-linejoin: miter; stroke-miterlimit: 10; fill: #1F1A17; fill-rule: nonzero; opacity: 1;" transform="  matrix(1 0 0 1 0 0) "/>
  <circle cx="38.699999999999996" cy="31.6" r="0.3" style="stroke: none; stroke-width: 1; stroke-dasharray: none; stroke-linecap: butt; stroke-linejoin: miter; stroke-miterlimit: 10; fill: #1F1A17; fill-rule: nonzero; opacity: 1;" transform="  matrix(1 0 0 1 0 0) "/>
  <circle cx="39" cy="30.8" r="0.3" style="stroke: none; stroke-width: 1; stroke-dasharray: none; stroke-linecap: butt; stroke-linejoin: miter; stroke-miterlimit: 10; fill: #1F1A17; fill-rule: nonzero; opacity: 1;" transform="  matrix(1 0 0 1 0 0) "/>
  <circle cx="38.199999999999996" cy="30.900000000000002" r="0.3" style="stroke: none; stroke-width: 1; stroke-dasharray: none; stroke-linecap: butt; stroke-linejoin: miter; stroke-miterlimit: 10; fill: #1F1A17; fill-rule: nonzero; opacity: 1;" transform="  matrix(1 0 0 1 0 0) "/>
</g>
</svg>