<?xml version="1.0" encoding="utf-8"?>
<!-- Generator: Adobe Illustrator 23.0.1, SVG Export Plug-In . SVG Version: 6.00 Build 0)  -->
<svg version="1.1" id="Layer_1" xmlns="http://www.w3.org/2000/svg" xmlns:xlink="http://www.w3.org/1999/xlink" x="0px" y="0px"
	 viewBox="0 0 336.2 171" style="enable-background:new 0 0 336.2 171;" xml:space="preserve">
<style type="text/css">
	.st0{fill:#FFFFFF;stroke:#2550FF;stroke-miterlimit:10;}
	.st1{font-family:'ArialMT';}
	.st2{font-size:115.2px;}
	.st3{font-size:36.2681px;}
	.st4{fill:#D0FFFE;stroke:#2550FF;stroke-miterlimit:10;}
	.st5{font-family:'MyriadPro-Regular';}
	.st6{font-size:12px;}
</style>
<g transform="translate(109.58 86.94) scale(2.7 2.88)">
	<text transform="matrix(0.3772 0 0 0.3472 -36.3798 8.9801)" class="st0 st1 st2">C</text>
	<text transform="matrix(0.3487 0 0 0.3472 -10.9908 8.9801)" class="st0 st1 st2">a</text>
	<text transform="matrix(0.3772 0 0 0.3472 8.8162 8.9801)" class="st0 st1 st2">r</text>
	<text transform="matrix(0.3487 0 0 0.3472 19.2993 8.9801)" class="st0 st1 st2">s</text>
</g>
<g transform="translate(233.66 134.47) scale(1.22 0.82)">
	<text transform="matrix(1.3114 0 0 1.2195 -50.8596 12.6104)" class="st0 st1 st3">T</text>
	<text transform="matrix(1.3114 0 0 1.2195 -18.1375 12.6104)" class="st0 st1 st3">o</text>
	<text transform="matrix(1.3114 0 0 1.2195 16.6281 12.6104)" class="st0 st1 st3">u</text>
	<text transform="matrix(1.3114 0 0 1.2195 48.0654 12.6104)" class="st0 st1 st3">r</text>
</g>
<g transform="translate(206 60.56) scale(0.81 0.81)">
	<path class="st4" d="M155,33.8c-10.8,10.7-37.7,20.6-69.5,24.5c-42.1,5.1-77-2.1-77.9-16.2C7,32.3,22.9,21.7,46.7,14.5
		c-15.6,6.4-25.3,14.3-24.8,21.8c0.9,13.4,34,20.4,73.9,15.4C120.7,48.8,142.4,41.9,155,33.8L155,33.8z"/>
	<path class="st4" d="M145.3,35.8c-9.8,9-34.2,17.1-63.2,19.8c-38.3,3.6-70-3.3-70.8-15.5c-0.6-8.5,13.8-17.3,35.5-23
		c-14.2,5.2-23,11.9-22.6,18.4C25,47.1,55.1,53.6,91.4,50.2C114.1,48,133.8,42.5,145.3,35.8L145.3,35.8z"/>
	<path class="st4" d="M38.1,41.4h-5.6H32l-0.3-0.4c-1.1-1.3-2-3-2.4-4.5c-0.1-0.4-0.2-0.6-0.2-0.9l-1-0.2l0.1-1.1c0-0.2,0-0.5,0-0.7
		c0-1.2,0.1-2.8,0.5-4.1l0,0l0,0l0.5-0.6c0.5-0.2,0.9-0.5,1.3-0.6c0.1,0,0.2-0.1,0.3-0.1c1.1-2.3,2.7-5.1,5.9-7.5
		c3.3-2.5,8.3-4.4,16.1-4.4c14.6-13,32.3-17.5,49.1-12c3.3,1.1,6.5,2.6,9.7,4.5c3.1,1.9,6.1,4,9.1,6.8c0.2,0,0.4,0,0.8,0.2l0.3,0.2
		c1,1.1,1.8,2,2.6,2.8c0.7,0.8,1.5,1.7,2.5,2.7c1.4,0.9,2.7,2.1,3.5,3.4c0.2,0.2,0.3,0.6,0.5,0.8c0.1,0.1,0.1,0.2,0.2,0.4
		c0.6,0.4,1.1,0.7,1.5,1.1c0.5,0.5,1,1.1,1.4,1.7l0.2,0.7l0.2,5.1l-0.1,0.5c-0.4,1.2-0.9,2.1-1.4,3.1c-0.5,0.9-1.1,1.8-1.8,2.6
		l-0.3,0.5h-0.5h-3h-1.1v-1.2V38l0,0l0,0c0-2.8-1.1-5.5-2.8-7.2l0,0c-1.7-1.9-4.1-3.1-6.7-3.1l0,0l0,0l0,0l0,0l0,0
		c-2.6,0-5,1.2-6.7,3.1l0,0c-1.7,1.9-2.8,4.4-2.8,7.2l0,0l0,0v1.4l0,0v1.9v1.2h-1.1l-46.4-0.4h-1.1v-1.2v-1.2v-2.4l0,0l0,0
		c0-2.8-1.1-5.5-2.8-7.2l0,0c-1.7-1.9-4.1-3.1-6.7-3.1l0,0l0,0l0,0l0,0l0,0c-2.6,0-5,1.2-6.7,3.1l0,0c-1.7,1.9-2.8,4.4-2.8,7.2l0,0
		l0,0v2.7v1.2L38.1,41.4L38.1,41.4z"/>
	<path class="st4" d="M33.2,39.3h5.5v-3c0-6.9,4.7-12.4,10.5-12.4c5.8,0,10.5,5.6,10.5,12.4v2.5V40l45.8,0.4v-2v-1.5
		c0-6.9,4.7-12.4,10.5-12.4c5.8,0,10.5,5.6,10.5,12.4v2.4h3c1.2-1.7,2.2-3.4,2.9-5.7c-0.1-1.8-0.1-3.7-0.2-5.5
		c-0.8-1.2-1.6-2.1-2.9-2.8c-0.5-1.7-2-3.7-3.9-5c-1.9-2.3-3.2-3.9-5.1-6.2c-0.3-0.2-0.4,0-0.7-0.1C98.8-6.7,73.3-4.6,53.5,14.5
		c-15.4,0-19.2,7.9-21.3,12.6c-0.5,0.4-1.1,0.5-1.8,0.9c-0.5,1.5-0.4,3.8-0.5,4.9c0.3,0.1,0.5,0.1,0.8,0.2
		C30.8,34.9,31.8,37.5,33.2,39.3z"/>
	<rect x="31.2" y="30" class="st4" width="3.6" height="2.4"/>
	<path class="st4" d="M39.7,20l-0.3,0.4l0,0l0,0l0,0l0,0h-0.1h-0.1h-0.1H39h-0.1h-0.1h-0.1h-0.1h-0.1h-0.1h-0.1h-0.1h-0.1l0,0.1
		L38,20.5h-0.2l-0.1,0.1l-0.1,0.1l-0.1,0.1L37.4,21l-0.1,0.1l-0.1,0.1l-0.1,0.1l-0.3,0l-0.1,0.1l-0.1,0.1l-0.1,0.1l-0.1,0.1L36.3,22
		L36,21.6l0.1-0.1l0.1-0.1l0.1-0.1l0.1-0.1l0.1-0.1l0.1-0.1l0.1-0.1l0.1-0.1l0.1-0.1l0.1-0.1l0.1-0.1l0.1-0.1l0.1-0.1l0.1-0.1
		l0.1-0.1l0.1-0.1l0.1-0.1h0.1h0.1H38h0.1h0.1h0.1h0.1h0.1h0.1h0.1h0.1h0.1H39L39.7,20L39.7,20L39.7,20L39.7,20z M38.1,24.5
		l-0.3-0.4l0,0l0.1-0.1l0.1-0.1l0.1-0.1l0.1-0.1l0.1-0.1l0.1-0.1l0.1-0.1l0.1-0.1l0.1-0.1l0.1-0.1l0.1-0.1l0.1-0.1l0.1-0.1l0.1-0.1
		l0.1-0.1l0.1-0.1v-0.1V22v-0.1v-0.1v-0.1v-0.1v-0.1v-0.1v-0.1V21v-0.1v-0.1v-0.1l0,0l0,0l0,0l0.3-0.4l0.1,0.1l0.1,0.1v0.1v0.1v0.1
		V21v0.1v0.1v0.1v0.1v0.1v0.1v0.1V22v0.1l-0.1,0.1l-0.1,0.1l-0.1,0.1l-0.1,0.1l-0.1,0.1l-0.1,0.1l0,0l-0.1,0.1L39.1,23L39,23.2
		l-0.1,0.1l-0.1,0.4l-0.1,0.1L38.5,24l-0.1,0.1l-0.1,0.1L38.1,24.5L38.1,24.5L38.1,24.5z M34.4,26.2l0.3-0.4l0,0l0,0l0,0l0,0h0.1
		h0.1H35h0.1h0.1h0.1h0.1h0.1h0.1h0.1h0.1h0.1H36l0.1-0.1l0.1-0.1l0.1-0.1l0.1-0.1l0.1-0.1l0.1-0.1l0.1-0.1l0.1,0.1l0.1-0.1l0.1-0.1
		l0.1-0.1l0.1-0.1l0.1-0.1l0.1-0.1l0.1-0.1l0.1-0.1l0.3,0.4l-0.1,0.1l-0.1,0.1l-0.1,0.1l-0.1,0.1v0.1l-0.1,0.1l-0.1,0.1l-0.1,0.1
		l-0.1,0.1l-0.3,0.1l-0.1,0.1L36.6,26l-0.1,0.1l-0.1,0.1l-0.1,0.1l-0.1,0.1l-0.3-0.1h-0.1h-0.1h-0.1h-0.1h-0.1h-0.1h-0.1h-0.1H35
		h-0.1h-0.1h-0.1h-0.1L34.4,26.2L34.4,26.2L34.4,26.2L34.4,26.2z M35.9,21.8l0.3,0.4l0,0l-0.1,0.1L36,22.4l-0.2,0.1l-0.1,0.1
		l-0.1,0.1l-0.1,0.1L35.4,23l-0.1,0.1l-0.1,0.1l-0.1,0.1v0.1L35,24l-0.1,0.1l-0.1,0.1v0.1v0.1v0.1v0.1v0.1v0.1v0.1v0.1v0.1v0.1v0.1
		v0.1v0.1v0.1V26l0,0l0,0l0,0l-0.3,0.4l-0.1-0.1l-0.1-0.1V26v-0.1v-0.1v-0.1v-0.1v-0.1v-0.1v-0.1v-0.1v-0.1v-0.1v-0.1v-0.1l0.1-0.1
		l0.1-0.1l0.1-0.1l0.1-0.1l0.1-0.1l0.1-0.1l0.1-0.1l0.1-0.1l0.1-0.1l0.1-0.1l0.1-0.1l0.1-0.1l0.1-0.1l0.1-0.1l0.1-0.1l0.1-0.1
		L35.9,21.8L35.9,21.8L35.9,21.8z"/>
	<path class="st4" d="M36,22c1.4-1.7,3-2.5,3.5-1.8c0.5,0.6-0.1,2.5-1.5,4.1c-1.4,1.7-3,2.5-3.5,1.8S34.7,23.6,36,22z"/>
	<path class="st4" d="M61.4,13.3c0.4-0.8,1-1.5,1.8-2.3c0.4-0.4,0.8-0.6,1.2-0.8v3.1H61.4z"/>
	<path class="st4" d="M94.4,14.6V4.5c5,1.7,10,4.7,14.4,10L94.4,14.6z"/>
	<path class="st4" d="M61.5,13.3h2.9V15l25.4-0.2V3.5C77.3,1.6,65.4,7.9,61.5,13.3z"/>
	<path class="st4" d="M61.4,13.3c0.4-0.8,1-1.5,1.8-2.3c0.4-0.4,0.8-0.6,1.2-0.8v3.1H61.4L61.4,13.3z"/>
	<path class="st4" d="M123.8,20.3L123.8,20.3L123.8,20.3l0.2-0.1h0.1h0.1h0.1h0.1h0.1h0.1h0.1h0.1h0.1h0.1h0.1h0.1h0.1l0.1,0.1
		l0.1,0.1l0.1,0.1l0.2-0.1l0.1,0.1l0.1,0.1l0.1,0.1l0.1,0.1l0.1,0.1l0.1,0.1l0.1,0.1l0.1,0.1l0.1,0.1l0.1,0.1l0.1,0.1l0.1,0.1
		l0.1,0.1l-0.3,0.4l-0.1-0.1l-0.1-0.1l-0.1-0.1l-0.1-0.1l-0.1-0.1l-0.1-0.1l-0.1-0.1l-0.1-0.1l-0.1-0.1l-0.1-0.1l-0.1-0.1l-0.1-0.1
		l-0.1-0.1l-0.1-0.1l-0.1-0.1l-0.1-0.1h-0.1H125h-0.1h-0.1h-0.1h-0.1h-0.1h-0.1h-0.1h-0.1h-0.1H124h-0.1l0,0l0,0l0,0l0,0L123.8,20.3
		L123.8,20.3z M125.3,24.7L125.3,24.7l-0.1-0.1l-0.1-0.1l-0.1-0.1l-0.1-0.1l-0.1-0.1l-0.1-0.1l-0.1-0.1l-0.1-0.1l-0.1-0.1l-0.1-0.1
		l-0.1-0.1l-0.1-0.1l-0.1-0.1l-0.1-0.1l-0.1-0.1l-0.1-0.1l-0.1-0.1v-0.1v-0.1v-0.1v-0.1v-0.1V22v-0.1v-0.1v-0.1v-0.1v-0.1v-0.1v-0.1
		l0.1-0.1l0.1-0.1l0.3,0.4l0,0l0,0l0,0v0.1v0.1v0.1v0.1v0.1V22v0.1v0.1v0.1v0.1v0.1v0.1v0.1l0.1,0.1l0.1,0.1l0.1,0.1l0.1,0.1
		l0.1,0.1l0.1,0.1l0.1,0.1l0.1,0.1l0.1,0.1l0.1,0.1l0.1,0.1l0.1,0.1l0.1,0.1l0.1,0.1l0.1,0.1l0.1,0.1l0,0L125.3,24.7L125.3,24.7z
		 M129.1,26.6L129.1,26.6L129.1,26.6l-0.2,0.1h-0.1h-0.1h-0.1h-0.1h-0.1h-0.1h-0.1h-0.1H128h-0.1h-0.1h-0.1h-0.1l-0.1-0.1l-0.1-0.1
		l-0.1-0.1l-0.1-0.1l-0.1-0.1L127,26l-0.1-0.1l-0.1-0.1l-0.1-0.1l-0.1-0.1l-0.1-0.1l-0.1-0.1l-0.1-0.1l-0.1-0.1l-0.1-0.1l-0.1-0.1
		l-0.1-0.1l0.3-0.4l0.1,0.1l0.1,0.1l0.1,0.1l0.1,0.1l0.1,0.1l0.1,0.1l0.1,0.1l0.1,0.1l0.1,0.1l0.1,0.1h0.1l0.1,0.1l0.1,0.1l0.1,0.1
		l0.1,0.1l0.1,0.1h0.1h0.1h0.1h0.1h0.1h0.1h0.1h0.1h0.1h0.1h0.1h0.1h0.1l0,0l0,0l0,0l0,0V26.6L129.1,26.6z M127.6,22.1L127.6,22.1
		l0.1,0.1l0.1,0.1l0.1,0.1l0.1,0.1l0.1,0.1l0.1,0.1l0.1,0.1l0.1,0.1l0.1,0.1l0.1,0.1l0.1,0.1l0.1,0.1l0.1,0.1l0.1,0.1l0.1,0.1
		l0.1,0.1l0.1,0.1v0.1v0.1v0.1v0.1v0.1v0.1v0.1v0.1v0.1v0.1v0.1v0.1v0.1l-0.1,0.1l-0.1,0.1l-0.3-0.4l0,0l0,0l0,0v-0.1v-0.1v-0.1
		v-0.1v-0.1v-0.1v-0.1v-0.1v-0.1v-0.1v-0.1v-0.1V24l-0.1-0.1l-0.1-0.1l-0.1-0.1l-0.1-0.1l-0.1-0.1l-0.1-0.1l-0.1-0.1L128,23
		l-0.1-0.1l-0.1-0.1l-0.1-0.1l-0.1-0.1l-0.1-0.1l-0.1-0.1l-0.1-0.1l-0.1-0.1l0,0L127.6,22.1L127.6,22.1z"/>
	<path class="st4" d="M127.4,22.2c-1.4-1.7-3-2.5-3.5-1.8c-0.5,0.6,0.1,2.5,1.5,4.1c1.4,1.7,3,2.5,3.5,1.8
		C129.5,25.8,128.8,23.9,127.4,22.2z"/>
	<path class="st4" d="M50.6,14.6c0.9,0.8,2.5,1.3,4.1,1.1c3.9-4.5,9.7-8.7,16.2-12.3c-0.4-0.1-0.9-0.1-1.3-0.1l-0.5,0.1
		c0.3,0,0.7,0,0.9,0.2C66,6,60.4,9.4,55.6,14.3C53.6,14.5,52.4,14.5,50.6,14.6z"/>
	<path class="st4" d="M55.1,15.2c-0.8,0.9-1.6,1.9-2.2,2.8c0.6-1.2,1.4-2.3,2.2-3.2V15.2L55.1,15.2z"/>
	<path class="st4" d="M102,2.4v0.7l-0.1,0.2c2.6,1.3,5.3,2.8,7.9,4.7c2.7,1.9,5.2,4.1,7.5,6.8l0,0l2.6-0.6l-1.3-1.4l-2.4,0.2
		c-2-2.1-4.1-3.8-6.3-5.3c-1.3-0.9-2.6-1.8-3.9-2.5l0.2-1.4L102,2.4z"/>
	<path class="st4" d="M48.4,23.7h1.5c5.4,0.5,9.8,5.9,9.8,12.4v1.7h-21v-1.7C38.7,29.7,43,24.2,48.4,23.7z"/>
	<path class="st4" d="M126.5,37.3h-21v-0.5c0-6.9,4.7-12.4,10.5-12.4l0,0c5.8,0,10.5,5.6,10.5,12.4V37.3L126.5,37.3z"/>
	<ellipse class="st4" cx="116" cy="35.8" rx="7.1" ry="8.4"/>
	<ellipse class="st4" cx="116" cy="35.8" rx="4.2" ry="5"/>
	<ellipse class="st4" cx="116" cy="34.9" rx="0.2" ry="0.3"/>
	<ellipse class="st4" cx="115.3" cy="35.5" rx="0.2" ry="0.3"/>
	<ellipse class="st4" cx="115.5" cy="36.5" rx="0.2" ry="0.3"/>
	<ellipse class="st4" cx="116.4" cy="36.5" rx="0.2" ry="0.3"/>
	<ellipse class="st4" cx="116.8" cy="35.6" rx="0.2" ry="0.3"/>
	<ellipse class="st4" cx="116" cy="35.7" rx="0.2" ry="0.3"/>
	<ellipse class="st4" cx="49.1" cy="35.8" rx="7.1" ry="8.4"/>
	<ellipse class="st4" cx="49.1" cy="35.8" rx="4.2" ry="5"/>
	<ellipse class="st4" cx="49.1" cy="34.9" rx="0.2" ry="0.3"/>
	<ellipse class="st4" cx="48.3" cy="35.5" rx="0.2" ry="0.3"/>
	<ellipse class="st4" cx="49.5" cy="36.5" rx="0.2" ry="0.3"/>
	<ellipse class="st4" cx="49.8" cy="35.6" rx="0.2" ry="0.3"/>
	<ellipse class="st4" cx="49" cy="35.7" rx="0.2" ry="0.3"/>
	<path class="st4" d="M78.5,24c-3.9,0.1-7.7,0.2-11.6,0.3"/>
</g>
<text transform="matrix(1 0 0 1 197.8555 161.2891)" class="st5 st6">Drive with us enjoy ur Life</text>
</svg>
