<?xml version="1.0" encoding="utf-8"?>
<!-- Generator: Adobe Illustrator 23.0.1, SVG Export Plug-In . SVG Version: 6.00 Build 0)  -->
<svg version="1.1" id="Layer_1" xmlns="http://www.w3.org/2000/svg" xmlns:xlink="http://www.w3.org/1999/xlink" x="0px" y="0px"
	 viewBox="0 0 1280 1024" style="enable-background:new 0 0 1280 1024;" xml:space="preserve">
<style type="text/css">
	.st0{fill:#6400B0;}
	.st1{fill:#FFFFFF;}
	.st2{font-family:'MyriadPro-Regular';}
	.st3{font-size:550px;}
</style>
<g>
	<path class="st0" d="M665,817.5c-84.3,0-163.5-34.5-223.1-97.1c-59.6-62.6-92.4-145.9-92.4-234.4c0-88.6,32.8-171.8,92.4-234.4
		c59.6-62.6,138.8-97.1,223.1-97.1s163.5,34.5,223.1,97.1c59.6,62.6,92.4,145.9,92.4,234.4c0,88.6-32.8,171.8-92.4,234.4
		C828.5,783,749.3,817.5,665,817.5z"/>
	<path d="M665,155c42.5,0,83.8,8.7,122.6,26c37.5,16.7,71.2,40.5,100.1,70.9c28.9,30.4,51.6,65.8,67.5,105.2
		C971.7,398,980,441.3,980,486s-8.3,88-24.8,128.9c-15.9,39.4-38.6,74.8-67.5,105.2c-28.9,30.4-62.6,54.3-100.1,70.9
		c-38.8,17.3-80.1,26-122.6,26s-83.8-8.7-122.6-26c-37.5-16.7-71.2-40.5-100.1-70.9c-28.9-30.4-51.6-65.8-67.5-105.2
		C358.3,574,350,530.7,350,486s8.3-88,24.8-128.9c15.9-39.4,38.6-74.8,67.5-105.2c28.9-30.4,62.6-54.3,100.1-70.9
		C581.2,163.7,622.5,155,665,155 M665,154c-174.5,0-316,148.6-316,332s141.5,332,316,332s316-148.6,316-332S839.5,154,665,154
		L665,154z"/>
</g>
<text transform="matrix(1 0 0 1 599 648.5815)" class="st1 st2 st3">i</text>
</svg>
