<?xml version="1.0" encoding="utf-8"?>
<!-- Generator: Adobe Illustrator 23.0.1, SVG Export Plug-In . SVG Version: 6.00 Build 0)  -->
<svg version="1.1" id="Layer_1" xmlns="http://www.w3.org/2000/svg" xmlns:xlink="http://www.w3.org/1999/xlink" x="0px" y="0px"
	 viewBox="0 0 1030 200" style="enable-background:new 0 0 1030 200;" xml:space="preserve">
<style type="text/css">
	.st0{fill:#333333;}
	.st1{fill:#33FF1B;stroke:#000000;stroke-miterlimit:10;}
	.st2{fill:#33FF1B;}
	.st3{fill:#00EE39;}
	.st4{fill:#53FF53;stroke:#3CFF31;stroke-miterlimit:10;}
	.st5{fill:#333333;stroke:#000000;stroke-miterlimit:10;}
	.st6{fill:#53FF53;stroke:#000000;stroke-miterlimit:10;}
	.st7{fill:#53FF53;stroke:#58FF6A;stroke-miterlimit:10;}
	.st8{fill:#D24900;stroke:#3CFF31;stroke-miterlimit:10;}
	.st9{fill:#DDFFDD;stroke:#D1F0CF;stroke-miterlimit:10;}
	.st10{fill:#D5F2F8;}
	.st11{fill:#DBDADA;}
	.st12{fill:#D5F2F8;stroke:#DBDADA;stroke-miterlimit:10;}
	.st13{fill:#F12D00;stroke:#FF4E25;stroke-miterlimit:10;}
	.st14{fill:#7B7B0C;stroke:#B2B208;stroke-miterlimit:10;}
	.st15{fill:none;stroke:#B2B208;stroke-width:3;stroke-miterlimit:10;}
	.st16{fill:none;stroke:#B2B208;stroke-miterlimit:10;}
	.st17{fill-rule:evenodd;clip-rule:evenodd;fill:#66C255;stroke:#2E9200;stroke-miterlimit:10;}
	.st18{fill:#FF5A15;}
	.st19{fill:none;stroke:#FFFFFF;stroke-miterlimit:10;}
</style>
<g>
	<rect x="1.5" y="123.5" class="st0" width="1028" height="76.3"/>
	<path d="M1029,124v75.3H2V124H1029 M1030,123H1v77.3h1029V123L1030,123z"/>
</g>
<path class="st1" d="M1026.5,26.5"/>
<path class="st1" d="M538.5,321.7"/>
<g>
	<path class="st2" d="M2,125.5l-0.5-97c13.6,1.2,27.1,3.4,40.3,6.4c15.1,3.4,24.2,5.5,34.9,10.5c11.2,5.1,17.2,10.2,22,14.3
		c5.2,4.4,9,7.6,16.1,8.3c1,0.1,1.9,0.2,2.9,0.2c10.2,0,18.7-6.1,28.5-13.1c2.2-1.6,4.5-3.3,7-4.9c14.9-10.1,45.9-31.2,78.7-37
		c6.6-1.2,13.6-1.7,20.7-1.7C306,11.4,359,44,361.2,45.4l0.2,0.1c10.5,6.6,20.9,11,27.9,13.6c8.3,3.1,16.5,5.4,23.1,6.5
		c5.5,0.9,11.2,1.3,16.9,1.3c4.5,0,8.1-0.3,11.2-0.5c8.3-0.7,16.4-2.2,26.1-4.9c13.8-3.8,27.6-9.1,39.8-15.2l0.2-0.1
		c21.9-11,47.3-15.6,85.7-22.5c8.4-1.5,16.8-2.3,24.7-2.3c27.1,0,47.9,8.7,69.8,17.9c23.9,10,48.6,20.4,83.8,20.4
		c4.7,0,9.5-0.2,14.4-0.6l0.3,0c17.4-1.3,53.5-4.1,90.8-21.8c10.6-5,17.5-9.5,23.1-13.1c7.1-4.6,12.3-7.9,20.7-9.5
		c3-0.6,6.1-0.8,9.3-0.8c27.2,0,61.2,21.1,101,62.7l-1.5,48.9H2z"/>
	<path class="st3" d="M252.5,11.9c21.6,0,45.6,5.2,71.1,15.4c21,8.4,35.8,17.5,37.4,18.5l0.2,0.1c10.5,6.6,21,11.1,27.9,13.7
		c8.3,3.1,16.5,5.4,23.2,6.5c5.5,0.9,11.2,1.3,16.9,1.3c4.5,0,8.2-0.3,11.3-0.5c8.4-0.7,16.4-2.2,26.1-4.9
		c13.9-3.8,27.7-9.1,39.9-15.3l0.2-0.1c21.8-11,47.2-15.6,85.6-22.5c8.4-1.5,16.7-2.3,24.6-2.3c27,0,47.7,8.7,69.6,17.9
		c24,10.1,48.7,20.5,83.9,20.5c4.7,0,9.6-0.2,14.5-0.6l0.2,0c17.4-1.3,53.6-4.1,91-21.9c10.7-5.1,17.6-9.5,23.2-13.1
		c7.1-4.6,12.2-7.9,20.5-9.4c3-0.6,6-0.8,9.2-0.8c27,0,60.8,21,100.5,62.3l-0.7,24.4L1028,125H2.5L2,29.1
		c13.4,1.2,26.7,3.4,39.7,6.3c15,3.4,24.1,5.5,34.8,10.4C87.6,51,93.6,56,98.4,60.1c5.3,4.4,9.1,7.6,16.3,8.4c1,0.1,2,0.2,2.9,0.2
		c10.4,0,18.9-6.1,28.7-13.2c2.2-1.6,4.5-3.3,7-4.9c14.9-10.1,45.8-31.2,78.5-36.9C238.4,12.5,245.3,11.9,252.5,11.9 M252.5,10.9
		c-7,0-13.9,0.5-20.8,1.8c-32.9,5.8-64.1,27-78.9,37.1c-13.1,8.9-22.8,17.9-35.1,17.9c-0.9,0-1.9-0.1-2.8-0.2
		c-13.5-1.5-14.8-11.9-37.9-22.6c-10.7-4.9-19.8-7-34.9-10.5C25.4,30.7,11.2,28.9,1,28c0.2,32.7,0.3,65.3,0.5,98H1029
		c0.5-16.5,1-33.1,1.5-49.6c-47.4-49.6-79.5-63-101.5-63c-3.3,0-6.5,0.3-9.3,0.9c-15.1,2.8-19.6,11-43.9,22.6
		c-37.4,17.7-73.5,20.4-90.9,21.8c-5,0.4-9.8,0.6-14.4,0.6c-67.2,0-96.7-38.4-153.6-38.4c-7.7,0-15.9,0.7-24.8,2.3
		c-38.9,7-63.9,11.5-85.9,22.6c-2.9,1.5-18.3,9.3-39.9,15.3c-10.4,2.9-18.3,4.2-26,4.8c-2.7,0.2-6.5,0.5-11.2,0.5
		c-4.8,0-10.4-0.3-16.8-1.3c-2.2-0.4-10.5-1.8-23-6.5c-15.6-5.9-26-12.5-28-13.7C354.9,40.8,304.3,10.9,252.5,10.9L252.5,10.9z"/>
</g>
<path class="st1" d="M483.5,10.2"/>
<path class="st4" d="M185.5,56.5c-9.1,5.3-16.5,8-19,9c-30.9,11.8-45.8,32.3-61,26.2c-5.3-2.1-5.4-4.1-19.4-14.7
	c-3.2-2.4-7.2-4.9-12.6-7.5c-19.9-9.3-40.3-10.1-40-12.3c0.1-0.7,2.1-1.4,11-1.6c14.3-8.7,28.7-17.5,43-26.2
	c4.8-2.9,17.7-7.7,29-9.8c35.8-6.6,69.4,19.2,81,28.9C194.8,50.5,190.8,53.4,185.5,56.5z"/>
<path class="st5" d="M128.5,10.2"/>
<path class="st6" d="M416.5,56.3"/>
<path class="st7" d="M544.5,52.1c1.4,6.3-46.6,19.3-72,29.8c-2.1,0.9-7.5,3.1-15,5.4c-5.3,1.6-10,2.7-14,3.6
	c-6.9,1.6-10.3,2.4-13,2.7c-10,1.2-18-0.4-25-1.8c-7.2-1.5-12.8-3.3-15.9-4.5c-8.9-3.4-12.6-6.2-23.8-12.6
	c-20.7-11.9-27.3-13.4-27.3-18.1c0-2.2,1.4-6,11.5-10.8c8.8-6.7,21.8-15.8,38.8-24.4c8.8-4.5,17.2-8.7,25.6-10.8
	c26.1-6.7,52.1,6.5,67.9,17.2c7.6,6.5,19.3,14.5,35.3,19C533.4,51.1,543.9,49.2,544.5,52.1z"/>
<path class="st6" d="M519.5,311.8"/>
<path class="st6" d="M477.5,206.2"/>
<path class="st4" d="M882.9,61.4c-5.9,32.7-116.3,31-121,29.8c-0.8-0.2-3.8-1.1-8-1.5c-8-0.8-10.6,0.7-17.4,0.6
	c-8.2-0.1-14.7-2.5-20-4.5c-4.3-1.6-5.5-2.5-13-5.4c-4.9-1.9-8.4-3.1-10-3.6c-6.2-2.1-31.8-10.9-31-17.2c0.3-2,3-5.5,21.7-8.1
	c11.5-15.4,24.5-23.8,32.3-28C725.1,18.9,749,6,762.7,14c9.7,5.6,6.9,17.5,14.8,19.4c8.4,2.1,13-10.9,29-16.3
	c22.2-7.4,46.5,6.5,52,9.9c10.3,6.4,16.6,14,20,19C883.4,53.4,883.4,58.5,882.9,61.4z"/>
<path class="st4" d="M918.5,33.7"/>
<path class="st4" d="M828.5,338"/>
<path class="st4" d="M754.5,294.7"/>
<rect x="409.5" y="48.4" class="st8" width="48.5" height="57.8"/>
<rect x="400.2" y="105.5" class="st9" width="68.1" height="8.6"/>
<rect x="416.6" y="67" class="st9" width="10.2" height="10"/>
<rect x="440.8" y="79.1" class="st9" width="11" height="9.3"/>
<path class="st9" d="M453.7,78.4c-0.4-4.6-3.6-8.2-7.4-8.2s-7,3.6-7.4,8.2H453.7z"/>
<path class="st9" d="M429.5,69.1c-0.4-4.5-3.6-7.9-7.4-7.9c-3.8,0-7,3.5-7.4,7.9H429.5z"/>
<ellipse class="st9" cx="441.6" cy="59.1" rx="5.5" ry="5"/>
<g>
	<path class="st10" d="M425.3,105.3V94.7l0-0.1c0.4-2.2,3.4-3.9,6.9-3.9c3.8,0,6.9,1.9,6.9,4.3c0,0.4-0.1,0.8-0.3,1.2l0,0.1v9.1
		H425.3z"/>
	<path class="st11" d="M432.2,91.1c3.5,0,6.4,1.7,6.4,3.8c0,0.3-0.1,0.6-0.2,0.9l-0.1,0.2v0.2v8.5h-12.6V94.8l0-0.2
		C426.2,92.7,429,91.1,432.2,91.1 M432.2,90.1c-3.8,0-7,1.9-7.4,4.3h0v11.4h14.6v-9.5c0.2-0.4,0.3-0.9,0.3-1.4
		C439.7,92.3,436.3,90.1,432.2,90.1L432.2,90.1z"/>
</g>
<g>
	<path class="st10" d="M401.5,58.4c-0.5,0-0.8-0.1-0.9-0.3c-0.2-0.2,0.1-1.2,0.9-3.4c1.4-3.8,3-7.6,4.9-11.1
		c9.3,0.2,18.6,0.4,27.9,0.4l1.9,0c8.6,0,17.3-0.1,25.9-0.3l5.9,13.7c-10.5-5.9-20.6-8.9-30.1-8.9c-1.6,0-3.3,0.1-4.9,0.3
		c-8.5,0.9-16.8,4.4-22.8,6.8C406.2,57.1,403.1,58.4,401.5,58.4z"/>
	<path class="st11" d="M406.6,44.1c9.2,0.2,18.4,0.3,27.6,0.3l2,0c8.5,0,17.1-0.1,25.6-0.3l3.2,7.3l2.1,4.8
		c-10.1-5.5-19.9-8.3-29-8.3c-1.7,0-3.3,0.1-5,0.3c-8.6,0.9-16.9,4.4-23,6.9c-3.7,1.5-6.9,2.9-8.5,2.9c-0.2,0-0.4,0-0.5-0.1
		c0-0.3,0.2-1,0.9-2.9C403.2,51.2,404.8,47.5,406.6,44.1 M462.4,43c-8.5,0.2-17.3,0.3-26.2,0.4c-0.7,0-1.3,0-2,0
		c-9.6,0-19-0.1-28.2-0.4c-1.5,2.8-3.4,6.6-5.1,11.5c-1.1,3.1-1,3.5-0.8,3.9c0.3,0.3,0.7,0.5,1.3,0.5c4.4,0,17.5-8.2,31.6-9.8
		c1.5-0.2,3.1-0.3,4.8-0.3c7.7,0,18.2,2,31.1,9.6C466.8,53.3,464.6,48.2,462.4,43L462.4,43z"/>
</g>
<path class="st12" d="M394.5,217"/>
<rect x="441.6" y="33.4" class="st13" width="9.4" height="10"/>
<path class="st14" d="M429.1,22c6.5-2.7,9.7-2.3,11.3-1.1c3.2,2.3,1.4,7.6,4.7,9.3c2.1,1.1,5,0.1,7.4-1.1c-6.6-2.5-13.3-5-19.9-7.5"
	/>
<line class="st15" x1="514.5" y1="68.9" x2="515.5" y2="108.6"/>
<g>
	<line class="st16" x1="117.4" y1="90.9" x2="98.6" y2="73.9"/>
</g>
<path class="st17" d="M534.9,70.7c-3.4,13.8-17.2,23.6-19,22.6c-0.6-0.3,0.1-1.9-1-2.7c-1.7-1.3-4.9,1-7,0.9
	c-7.9-0.3-22.7-34.7-6-50.6c1.3-1.2,8.2-7.5,16-6.3C530.2,36.4,538.6,55.8,534.9,70.7z"/>
<line class="st15" x1="752.5" y1="50.8" x2="753.5" y2="90.6"/>
<path class="st17" d="M772.9,52.6c-3.4,13.8-17.2,23.6-19,22.6c-0.6-0.3,0.1-1.9-1-2.7c-1.7-1.3-4.9,1-7,0.9
	c-7.9-0.3-22.7-34.7-6-50.6c1.3-1.2,8.2-7.5,16-6.3C768.2,18.4,776.6,37.7,772.9,52.6z"/>
<line class="st15" x1="120.5" y1="68" x2="121.5" y2="107.7"/>
<path class="st17" d="M140.9,69.8c-3.4,13.8-17.2,23.6-19,22.6c-0.6-0.3,0.1-1.9-1-2.7c-1.7-1.3-4.9,1-7,0.9
	c-7.9-0.3-22.7-34.7-6-50.6c1.3-1.2,8.2-7.5,16-6.3C136.2,35.5,144.6,54.9,140.9,69.8z"/>
<line class="st15" x1="865.5" y1="68" x2="866.5" y2="107.7"/>
<path class="st17" d="M886.9,68c-3.4,13.8-17.2,23.6-19,22.6c-0.6-0.3,0.1-1.9-1-2.7c-1.7-1.3-4.9,1-7,0.9
	c-7.9-0.3-22.7-34.7-6-50.6c1.3-1.2,8.2-7.5,16-6.3C882.2,33.7,890.6,53.1,886.9,68z"/>
<rect x="663.8" y="69.4" class="st18" width="41.2" height="37.9"/>
<g>
	<path class="st10" d="M647.9,81.6c-0.6,0-0.9-0.2-1-0.4c-0.2-0.3-0.1-1.1,0.9-4.5c1.5-4.9,3.3-9.6,5.3-14.2c9.9,0.3,20,0.4,30,0.4
		l2.1,0c9.2,0,18.6-0.2,27.8-0.4l6.5,17.7C708.2,72.8,697.3,69,687,69c-1.8,0-3.5,0.1-5.3,0.3c-9.2,1.2-18.1,5.5-24.5,8.7
		C653,80,649.7,81.6,647.9,81.6z"/>
	<path class="st11" d="M653.5,63.1c9.8,0.3,19.8,0.4,29.6,0.4l2.1,0c9.1,0,18.4-0.2,27.5-0.4l1,2.6l4.9,13.4
		C707.6,72,697,68.5,687,68.5c-1.8,0-3.6,0.1-5.3,0.3c-9.3,1.2-18.2,5.5-24.7,8.7c-4,1.9-7.4,3.6-9.1,3.6c-0.5,0-0.5-0.1-0.6-0.1
		c-0.1-0.2,0.1-1.1,1-4.1C649.7,72.2,651.5,67.6,653.5,63.1 M713.4,62.1c-9.2,0.3-18.6,0.4-28.2,0.5c-0.7,0-1.4,0-2.1,0
		c-10.3,0-20.4-0.2-30.3-0.5c-1.6,3.5-3.6,8.4-5.5,14.5c-1.2,3.9-1.1,4.5-0.8,4.9c0.3,0.4,0.8,0.6,1.4,0.6
		c4.8,0,18.8-10.4,33.9-12.3c1.6-0.2,3.3-0.3,5.2-0.3c8.3,0,19.5,2.5,33.5,12.2C718.1,75.1,715.7,68.6,713.4,62.1L713.4,62.1z"/>
</g>
<g>
	<path class="st10" d="M675.6,89.7c-2.7,0-5-2.8-5-6.3c0-3.5,2.2-6.3,5-6.3s5,2.8,5,6.3C680.6,86.9,678.4,89.7,675.6,89.7z"/>
	<path class="st11" d="M675.6,77.7c2.5,0,4.5,2.6,4.5,5.8s-2,5.8-4.5,5.8s-4.5-2.6-4.5-5.8S673.2,77.7,675.6,77.7 M675.6,76.7
		c-3,0-5.5,3-5.5,6.8c0,3.7,2.4,6.8,5.5,6.8c3,0,5.5-3,5.5-6.8C681.1,79.7,678.6,76.7,675.6,76.7L675.6,76.7z"/>
</g>
<g>
	<path class="st10" d="M695.5,91.5c-2.7,0-5-2.6-5-5.8s2.2-5.8,5-5.8s5,2.6,5,5.8S698.2,91.5,695.5,91.5z"/>
	<path class="st11" d="M695.5,80.4c2.5,0,4.5,2.4,4.5,5.3s-2,5.3-4.5,5.3s-4.5-2.4-4.5-5.3S693,80.4,695.5,80.4 M695.5,79.4
		c-3,0-5.5,2.8-5.5,6.3c0,3.5,2.4,6.3,5.5,6.3s5.5-2.8,5.5-6.3C700.9,82.2,698.5,79.4,695.5,79.4L695.5,79.4z"/>
</g>
<g>
	<path class="st10" d="M680.6,105.5v-4.8l0-0.1c0.2-0.8,1.7-1.6,3.9-1.6c2.3,0,4,0.9,4,1.8c0,0.1,0,0.3-0.1,0.4l-0.1,0.1v4.2H680.6z
		"/>
	<path class="st11" d="M684.6,99.5c2.1,0,3.5,0.9,3.5,1.3c0,0,0,0.1-0.1,0.2l-0.1,0.2v0.3v3.5h-6.7v-4.2l0,0
		C681.2,100.3,682.5,99.5,684.6,99.5 M684.6,98.5c-2.3,0-4.2,0.9-4.4,2h0v5.4h8.7v-4.5c0.1-0.2,0.2-0.4,0.2-0.6
		C689,99.5,687,98.5,684.6,98.5L684.6,98.5z"/>
</g>
<rect x="663.3" y="51.7" class="st13" width="10.1" height="12.6"/>
<path class="st14" d="M644,40c7-3.4,10.4-2.9,12.2-1.4c3.4,2.9,1.6,9.6,5,11.7c2.2,1.4,5.4,0.2,8-1.4c-7.1-3.2-14.3-6.3-21.4-9.5"/>
<rect x="938.5" y="47.4" class="st8" width="48.5" height="57.8"/>
<rect x="929.2" y="104.5" class="st9" width="68.1" height="8.6"/>
<rect x="945.6" y="66" class="st9" width="10.2" height="10"/>
<rect x="969.8" y="78.1" class="st9" width="11" height="9.3"/>
<path class="st9" d="M982.7,77.4c-0.4-4.6-3.6-8.2-7.4-8.2c-3.8,0-7,3.6-7.4,8.2H982.7z"/>
<path class="st9" d="M958.5,68.1c-0.4-4.5-3.6-7.9-7.4-7.9c-3.8,0-7,3.5-7.4,7.9H958.5z"/>
<ellipse class="st9" cx="970.6" cy="58.1" rx="5.5" ry="5"/>
<g>
	<path class="st10" d="M954.3,104.3V93.7l0-0.1c0.4-2.2,3.4-3.9,6.9-3.9c3.8,0,6.9,1.9,6.9,4.3c0,0.4-0.1,0.8-0.3,1.2l0,0.1v9.1
		H954.3z"/>
	<path class="st11" d="M961.2,90.1c3.5,0,6.4,1.7,6.4,3.8c0,0.3-0.1,0.6-0.2,0.9l-0.1,0.2v0.2v8.5h-12.6V93.8l0-0.2
		C955.2,91.7,958,90.1,961.2,90.1 M961.2,89.1c-3.8,0-7,1.9-7.4,4.3h0v11.4h14.6v-9.5c0.2-0.4,0.3-0.9,0.3-1.4
		C968.7,91.3,965.3,89.1,961.2,89.1L961.2,89.1z"/>
</g>
<g>
	<path class="st10" d="M930.5,57.4c-0.5,0-0.8-0.1-0.9-0.3c-0.2-0.2,0.1-1.2,0.9-3.4c1.4-3.8,3-7.6,4.9-11.1
		c9.3,0.2,18.6,0.4,27.9,0.4l1.9,0c8.6,0,17.3-0.1,25.9-0.3l5.9,13.7c-10.5-5.9-20.6-8.9-30.1-8.9c-1.6,0-3.3,0.1-4.9,0.3
		c-8.5,0.9-16.8,4.4-22.8,6.8C935.2,56.1,932.1,57.4,930.5,57.4z"/>
	<path class="st11" d="M935.6,43.1c9.2,0.2,18.4,0.3,27.6,0.3l2,0c8.5,0,17.1-0.1,25.6-0.3l3.1,7.1l2.1,5c-10.1-5.5-19.9-8.3-29-8.3
		c-1.7,0-3.3,0.1-5,0.3c-8.6,0.9-16.9,4.4-23,6.9c-3.7,1.5-6.9,2.9-8.5,2.9c-0.2,0-0.4,0-0.5-0.1c0-0.3,0.2-1,0.9-2.9
		C932.2,50.2,933.8,46.5,935.6,43.1 M991.4,42c-8.5,0.2-17.3,0.3-26.2,0.4c-0.7,0-1.3,0-2,0c-9.6,0-19-0.1-28.2-0.4
		c-1.5,2.8-3.4,6.6-5.1,11.5c-1.1,3.1-1,3.5-0.8,3.9c0.3,0.3,0.7,0.5,1.3,0.5c4.4,0,17.5-8.2,31.6-9.8c1.5-0.2,3.1-0.3,4.8-0.3
		c7.7,0,18.2,2,31.1,9.6C995.8,52.3,993.6,47.2,991.4,42L991.4,42z"/>
</g>
<rect x="970.6" y="32.4" class="st13" width="9.4" height="10"/>
<path class="st14" d="M958.1,21c6.5-2.7,9.7-2.3,11.3-1.1c3.2,2.3,1.4,7.6,4.7,9.3c2.1,1.1,5,0.1,7.4-1.1c-6.6-2.5-13.3-5-19.9-7.5"
	/>
<rect x="27.8" y="77.4" class="st18" width="38.2" height="37.9"/>
<g>
	<path class="st10" d="M11.9,89.6c-0.6,0-0.9-0.2-1-0.4c-0.2-0.3-0.1-1.1,0.9-4.5c1.5-4.9,3.3-9.6,5.3-14.2c9.9,0.3,20,0.4,30,0.4
		l2.1,0c9.2,0,18.6-0.2,27.8-0.4l6.5,17.7C72.2,80.8,61.3,77,51,77c-1.8,0-3.5,0.1-5.3,0.3c-9.2,1.2-18.1,5.5-24.5,8.7
		C17,88,13.7,89.6,11.9,89.6L11.9,89.6z"/>
	<path class="st11" d="M17.5,71.1c9.8,0.3,19.8,0.4,29.6,0.4l2.1,0c9.1,0,18.4-0.2,27.5-0.4l1,2.6l4.9,13.4C71.6,80,61,76.5,51,76.5
		c-1.8,0-3.6,0.1-5.3,0.3C36.4,78,27.5,82.4,21,85.5c-4,1.9-7.4,3.6-9.1,3.6c-0.5,0-0.5-0.1-0.6-0.1c-0.1-0.2,0.1-1.1,1-4.1
		C13.7,80.2,15.5,75.6,17.5,71.1 M77.4,70.1c-9.2,0.3-18.6,0.4-28.2,0.5c-0.7,0-1.4,0-2.1,0c-10.3,0-20.4-0.2-30.3-0.5
		c-1.6,3.5-3.6,8.4-5.5,14.5c-1.2,3.9-1.1,4.5-0.8,4.9c0.3,0.4,0.8,0.6,1.4,0.6c4.8,0,18.8-10.4,33.9-12.3c1.6-0.2,3.3-0.3,5.2-0.3
		c8.3,0,19.5,2.5,33.5,12.2C82.1,83.1,79.7,76.6,77.4,70.1L77.4,70.1z"/>
</g>
<g>
	<ellipse class="st10" cx="36.2" cy="90.4" rx="5" ry="6.3"/>
	<path class="st11" d="M36.2,84.7c2.5,0,4.5,2.6,4.5,5.8s-2,5.8-4.5,5.8s-4.5-2.6-4.5-5.8S33.7,84.7,36.2,84.7 M36.2,83.7
		c-3,0-5.5,3-5.5,6.8c0,3.7,2.4,6.8,5.5,6.8c3,0,5.5-3,5.5-6.8C41.6,86.7,39.2,83.7,36.2,83.7L36.2,83.7z"/>
</g>
<g>
	<ellipse class="st10" cx="56.5" cy="91.7" rx="5" ry="5.8"/>
	<path class="st11" d="M56.5,86.4c2.5,0,4.5,2.4,4.5,5.3s-2,5.3-4.5,5.3C54,97,52,94.6,52,91.7S54,86.4,56.5,86.4 M56.5,85.4
		c-3,0-5.5,2.8-5.5,6.3c0,3.5,2.4,6.3,5.5,6.3c3,0,5.5-2.8,5.5-6.3C61.9,88.2,59.5,85.4,56.5,85.4L56.5,85.4z"/>
</g>
<g>
	<path class="st10" d="M44.2,114.8v-7.8l0-0.1c0.3-1.6,2.6-2.8,5.4-2.8c2.9,0,5.4,1.4,5.4,3.1c0,0.3-0.1,0.5-0.2,0.8l0,0.1v6.7H44.2
		z"/>
	<path class="st11" d="M49.6,104.5c2.9,0,4.9,1.4,4.9,2.6c0,0.2,0,0.4-0.1,0.6l-0.1,0.2v0.2v6.1h-9.5V107l0-0.1
		C45,105.8,46.9,104.5,49.6,104.5 M49.6,103.5c-3,0-5.5,1.4-5.8,3.2h0v8.5h11.5v-7.1c0.2-0.3,0.2-0.7,0.2-1
		C55.5,105.2,52.9,103.5,49.6,103.5L49.6,103.5z"/>
</g>
<rect x="27.3" y="59.7" class="st13" width="10.1" height="12.6"/>
<path class="st14" d="M8,48c7-3.4,10.4-2.9,12.2-1.4c3.4,2.9,1.6,9.6,5,11.7c2.2,1.4,5.4,0.2,8-1.4c-7.1-3.2-14.3-6.3-21.4-9.5"/>
<g>
	<line class="st19" x1="35.5" y1="168.5" x2="287.5" y2="167.5"/>
</g>
<g>
	<line class="st19" x1="392" y1="168.5" x2="644" y2="167.5"/>
</g>
<g>
	<line class="st19" x1="727" y1="166.5" x2="979" y2="165.5"/>
</g>
</svg>
