<?xml version="1.0" encoding="utf-8"?>
<!-- Generator: Adobe Illustrator 23.0.1, SVG Export Plug-In . SVG Version: 6.00 Build 0)  -->
<svg version="1.1" id="Layer_1" xmlns="http://www.w3.org/2000/svg" xmlns:xlink="http://www.w3.org/1999/xlink" x="0px" y="0px"
	 viewBox="0 0 1366 522.5" style="enable-background:new 0 0 1366 522.5;" xml:space="preserve">
<style type="text/css">
	.st0{fill:#F2F2F2;}
	.st1{fill:#FFFFFF;stroke:#000000;stroke-miterlimit:10;}
	.st2{fill:#595050;stroke:#000000;stroke-miterlimit:10;}
	.st3{fill:#04FF0A;stroke:#000000;stroke-miterlimit:10;}
	.st4{fill:#00FF00;}
	.st5{fill:#4B00EA;}
	.st6{fill:#E9FFFA;}
	.st7{fill:#FFFFFF;}
	.st8{fill:#E9FFFA;stroke:#000000;stroke-miterlimit:10;}
	.st9{fill:#FFFB04;stroke:#E9FF6B;stroke-miterlimit:10;}
	.st10{fill:#CCDED8;}
	.st11{opacity:0.71;}
	.st12{fill:url(#SVGID_1_);}
	.st13{fill:url(#SVGID_2_);}
	.st14{fill:url(#SVGID_3_);}
	.st15{fill:url(#SVGID_4_);}
	.st16{fill:#E7F0ED;}
	.st17{fill:none;stroke:#FFFFFF;stroke-miterlimit:10;}
	.st18{fill:#9100D2;stroke:#3631FF;stroke-width:2;stroke-miterlimit:10;}
	.st19{stroke:#000000;stroke-width:0.5;stroke-miterlimit:10;}
	.st20{font-family:'MyriadPro-Regular';}
	.st21{font-size:16.1392px;}
	.st22{font-family:'ArialMT';}
	.st23{font-size:82.9144px;}
	.st24{fill:none;stroke:#2550FF;stroke-miterlimit:10;}
	.st25{font-size:26.1051px;}
	.st26{fill:#D0FFFE;stroke:#2550FF;stroke-miterlimit:10;}
	.st27{font-size:8.6375px;}
	.st28{fill:#ECE7F0;stroke:#FFFFFF;stroke-width:3;stroke-miterlimit:10;}
	.st29{fill:#ECE7F0;stroke:#FFFFFF;stroke-miterlimit:10;}
	.st30{fill:#39B54A;}
	.st31{fill:#026A00;}
	.st32{fill:#1B770C;}
	.st33{fill:url(#SVGID_5_);}
	.st34{fill:#3FFFF7;stroke:#3FFFE2;stroke-miterlimit:10;}
	.st35{fill:#000AC6;stroke:#FFFFFF;stroke-miterlimit:10;}
	.st36{fill:#000202;stroke:#FFFFFF;stroke-miterlimit:10;}
	.st37{fill:#000102;stroke:#FFFFFF;stroke-miterlimit:10;}
	.st38{fill:#6649FF;stroke:#FFFFFF;stroke-miterlimit:10;}
	.st39{fill:#FFFFFF;stroke:#01000D;stroke-miterlimit:10;}
</style>
<g>
	<path class="st0" d="M415.4,495.6c-48.2,0-99-3.1-146.7-9c-20.4-2.5-31.5-4.4-42.1-6.3c-12.3-2.1-24-4.2-48.7-6.7
		c-38-3.9-76.6-5.8-114.7-5.8c-20,0-40.2,0.5-60.1,1.6V309.6c7.3-5.7,15-9,23-9.9c1.5-0.2,2.9-0.3,4.4-0.3c5.7,0,10.5,1.3,15.5,2.8
		c5.8,1.6,11.7,3.3,19.9,3.3h0.1c6.2,0,8.9-1,13.1-2.5c3.3-1.2,7.5-2.7,15-4.3c11.8-2.5,24.8-3.8,38.7-3.8c18.1,0,32.1,2.2,36,2.9
		c1.4,0.2,2.7,0.5,4,0.7c5,0.9,9.4,1.8,15.3,1.8c0.9,0,1.8,0,2.8-0.1c15-0.6,26.3-6,30.6-8.1c0.7-0.3,1.2-0.6,1.5-0.7
		c24-9.5,59.9-14.1,109.6-14.1c61.6,0,131.6,7.2,187.9,13c17,1.7,33.1,3.4,46.8,4.6c39.6,3.5,80.2,5.3,120.7,5.3
		c68.3,0,124.1-4.9,169-8.8c54.9-4.8,85.2-9.9,111.9-14.4c25.4-4.3,47.4-8,83.8-10c14.5-0.8,29.1-1.2,43.6-1.2
		c88,0,178.8,14.7,269.9,43.8v159.8c-64.2,10.1-128.9,15.2-192.3,15.2l-2.4,0c-45.6-0.1-71.1-2.8-98.2-5.6
		c-28.7-3-61.2-6.4-123.5-7.4c-9.6-0.1-19-0.2-28-0.2c-46.5,0-74.5,2-94.9,3.4c-11.5,0.8-20.5,1.4-29,1.4c-13.2,0-24.3-1.6-39.7-5.5
		c-0.9-0.2-1.9-0.5-2.9-0.8c-13.6-3.6-38.8-10.2-71.1-10.2c-13.5,0-27,1.2-40,3.6c-14.7,2.7-25.3,6.1-31,8l-1.1,0.3
		C564.9,487.2,495.1,495.6,415.4,495.6z"/>
	<path d="M1096.1,266.4c87.8,0,178.5,14.7,269.4,43.7v159c-64,10-128.6,15.1-191.8,15.1l-2.4,0c-45.6-0.1-71.1-2.8-98.1-5.6
		c-28.7-3-61.2-6.4-123.5-7.4c-9.6-0.1-19-0.2-28-0.2c-46.6,0-74.5,2-95,3.4c-11.4,0.8-20.5,1.4-28.9,1.4c-13.1,0-24.2-1.5-39.6-5.5
		c-0.9-0.2-1.9-0.5-2.9-0.8c-13.6-3.6-38.8-10.2-71.3-10.2c-13.6,0-27.1,1.2-40.1,3.6c-14.7,2.7-25.3,6.2-31,8l-1,0.3
		c-47,15.3-116.7,23.8-196.4,23.8c-48.2,0-98.9-3.1-146.6-9c-20.4-2.5-31.4-4.4-42.1-6.3c-12.3-2.1-24-4.2-48.8-6.7
		c-38-3.9-76.6-5.8-114.7-5.8c-19.8,0-39.8,0.5-59.6,1.6V309.9c7.1-5.5,14.7-8.8,22.6-9.7c1.4-0.2,2.9-0.3,4.3-0.3
		c5.7,0,10.4,1.3,15.4,2.7c5.8,1.6,11.8,3.3,20,3.3l0.1,0c6.3,0,9.1-1,13.3-2.5c3.3-1.2,7.4-2.7,14.9-4.2
		c11.8-2.5,24.8-3.8,38.6-3.8c18.1,0,32.1,2.2,35.9,2.9c1.4,0.2,2.7,0.5,4,0.7c5.1,1,9.4,1.8,15.4,1.8c0.9,0,1.9,0,2.8-0.1
		c15.1-0.6,26.5-6.1,30.8-8.1c0.7-0.3,1.2-0.6,1.5-0.7c24-9.5,59.8-14.1,109.4-14.1c61.6,0,131.6,7.2,187.8,13
		c17,1.8,33.1,3.4,46.8,4.6c39.7,3.5,80.3,5.3,120.7,5.3c68.3,0,124.2-4.9,169-8.8c55-4.8,85.2-9.9,111.9-14.4
		c25.4-4.3,47.4-8,83.8-10C1067,266.8,1081.6,266.4,1096.1,266.4L1096.1,266.4 M1096.1,265.4c-15.6,0-30.2,0.5-43.6,1.2
		c-73.7,4-87.1,14.9-195.7,24.4c-43.9,3.8-100.6,8.8-168.9,8.8c-36.9,0-77.2-1.5-120.6-5.3c-58.3-5.2-154-17.6-234.7-17.6
		c-43.8,0-83.2,3.7-109.8,14.1c-2.4,0.9-14.6,8-32,8.7c-1,0-1.9,0.1-2.8,0.1c-7.3,0-12.3-1.3-19.2-2.5c-2.7-0.5-17.1-2.9-36.1-2.9
		c-11.7,0-25.2,0.9-38.8,3.8c-17,3.6-17,6.7-28,6.7c0,0-0.1,0-0.1,0c-15.3,0-23.1-6.1-35.4-6.1c-1.4,0-2.9,0.1-4.4,0.3
		c-10.4,1.2-18.4,6.2-23.5,10.2c0,53.5,0,107.1,0,160.6c16.8-0.9,37.2-1.6,60.6-1.6c32.8,0,71.6,1.4,114.6,5.8
		c45.3,4.6,45.9,7.4,90.9,13c47.9,5.9,98.3,9,146.8,9c75.7,0,146.9-7.6,196.7-23.8c5.3-1.7,16.3-5.5,32-8.3
		c14.1-2.6,27.5-3.6,39.9-3.6c34.8,0,61.8,7.8,73.9,11c16.2,4.2,27.4,5.6,39.9,5.6c23.4,0,51-4.9,123.9-4.9c8.7,0,18,0.1,28,0.2
		c121,1.9,127.8,12.8,221.7,13c0.8,0,1.6,0,2.4,0c49.4,0,115-3,192.8-15.3c0-53.5,0-107.1,0-160.6
		C1257.6,274.6,1165.9,265.4,1096.1,265.4L1096.1,265.4z"/>
</g>
<path class="st1" d="M117.8,385.1"/>
<rect x="635.8" y="-295" transform="matrix(-1.836970e-16 1 -1 -1.836970e-16 1071.9897 -296.0103)" class="st2" width="96.4" height="1366"/>
<rect x="1.5" y="348.5" class="st2" width="1365.5" height="76"/>
<path class="st3" d="M670,405.8"/>
<path class="st3" d="M667,433.1"/>
<g>
	<path class="st4" d="M1359.1,332.6c-105.4-9.2-211.2-14-314.2-14.2c-2.3,0-4.5,0-6.8,0c-65.7,0-116.6,2.1-165.9,4.1
		c-50.9,2.1-103.5,4.2-173.6,4.2c-5.5,0-11.1,0-16.9,0c-89.8-0.4-179.9-4-268-10.8c-79,7.8-141.3,11.8-185.1,11.8
		c-12.7,0-24.2-0.3-34-1c-1.2-0.1-2.5-0.2-4-0.3l-0.2,0c-9-0.7-22.7-1.6-40.2-1.6c-8.1,0-16.3,0.2-24.3,0.6
		c-10.8,0.6-18.7,1.4-27.1,2.2c-9.2,0.9-18.7,1.9-32.3,2.5c-8.4,0.4-16.9,0.6-25.4,0.6c-11.1,0-22.4-0.3-33.5-1l-6.1-0.4v-98.5
		l1365,0.3l-0.6,102.1L1359.1,332.6z"/>
	<path class="st5" d="M2,231.2l1364,0.3l-0.6,101.1l-6.3-0.5c-105.5-9.2-211.2-14-314.3-14.2c-2.3,0-4.5,0-6.8,0
		c-65.7,0-116.6,2.1-165.9,4.1c-50.9,2.1-103.5,4.2-173.6,4.2c-5.7,0-11.3,0-16.9,0c-89.7-0.4-179.9-4-268-10.8l-0.1,0l-0.1,0
		c-78.9,7.8-141.1,11.7-185,11.7c-12.7,0-24.1-0.3-34-1c-1.2-0.1-2.6-0.2-4-0.3l-0.1,0c-9.1-0.7-22.7-1.6-40.3-1.6
		c-8.1,0-16.3,0.2-24.3,0.6c-10.9,0.6-18.8,1.4-27.2,2.2c-9.2,0.9-18.7,1.9-32.2,2.5c-8.4,0.4-16.9,0.6-25.3,0.6
		c-11.1,0-22.4-0.3-33.5-1L2,328.7V231.2 M1,230.2v99.5l6.6,0.4c11.1,0.7,22.4,1,33.6,1c8.5,0,17-0.2,25.4-0.6
		c13.6-0.6,23.1-1.6,32.3-2.5c8.4-0.8,16.3-1.7,27.1-2.2c8-0.4,16.2-0.6,24.3-0.6c17.5,0,31.1,1,40.2,1.6c1.5,0.1,2.9,0.2,4.2,0.3
		c9.8,0.7,21.3,1,34,1c43.9,0,106.1-4,185.1-11.8c88.1,6.7,178.3,10.3,268.1,10.8c5.7,0,11.4,0,16.9,0c70.1,0,122.7-2.1,173.6-4.2
		c49.2-2,100.1-4.1,165.8-4.1c2.2,0,4.5,0,6.8,0c103,0.2,208.7,5,314.2,14.2l7.4,0.6l0.6-103.2L1,230.2L1,230.2z"/>
</g>
<g>
	<path class="st4" d="M1366,321.7c-106.5-9-213.3-13.6-317.4-13.9c-2.3,0-4.6,0-6.9,0c-66.5,0-118,2-167.8,4
		c-51.4,2-104.5,4.1-175.2,4.1c0,0-0.1,0-0.1,0c-5.5,0-11.2,0-16.9,0c-90.7-0.4-181.9-4-270.9-10.5c-79.9,7.6-142.7,11.5-186.9,11.5
		c-12.7,0-24.2-0.3-34-1c-1.3-0.1-2.7-0.2-4.2-0.3c-9.2-0.6-23.2-1.6-41-1.6c-8.3,0-16.6,0.2-24.8,0.6c-11.1,0.6-19.5,1.4-27.7,2.2
		c-9.2,0.9-18.7,1.8-32.3,2.4c-8.4,0.4-16.9,0.6-25.4,0.6c-11,0-22.1-0.3-33.1-1v-79.2c225-7.4,453.1-11.2,677.9-11.2
		c206.8,0,416.4,3.2,623,9.4c21.3,0.6,42.8,1.3,64,2L1366,321.7z"/>
	<path class="st5" d="M679.4,228v1c206.8,0,416.4,3.2,623,9.4c21.1,0.6,42.4,1.3,63.5,2l-0.2,40.5l-0.2,40.2
		c-106.4-9-213-13.6-316.9-13.8c-2.3,0-4.6,0-6.9,0c-66.5,0-118,2-167.8,4c-51.4,2-104.5,4.1-175.2,4.1c-5.6,0-11.3,0-17,0
		c-90.7-0.4-181.8-4-270.8-10.5l-0.1,0l-0.1,0c-79.8,7.6-142.6,11.5-186.8,11.5c-12.7,0-24.1-0.3-33.9-1c-1.3-0.1-2.7-0.2-4.2-0.3
		c-9.2-0.6-23.2-1.6-41.1-1.6c-8.3,0-16.6,0.2-24.8,0.6c-11.1,0.6-19.5,1.4-27.7,2.2c-9.2,0.9-18.7,1.8-32.3,2.4
		c-8.4,0.4-16.9,0.6-25.4,0.6c-10.8,0-21.8-0.3-32.6-0.9v-78.2c224.9-7.4,452.8-11.1,677.4-11.1V228 M679.4,228
		c-226,0-452.2,3.7-678.4,11.2c0,26.7,0,53.4,0,80.2c8.4,0.5,19.9,1,33.6,1c7.8,0,16.3-0.2,25.4-0.6c25.7-1.2,36.5-3.4,60-4.6
		c8.9-0.5,17.2-0.6,24.8-0.6c20.8,0,36.5,1.3,45.2,1.9c9.1,0.6,20.2,1,34,1c37.8,0,95.7-2.8,186.9-11.5
		c61.7,4.6,155.7,10,270.9,10.5c5.8,0,11.4,0,17,0c140,0,208.6-8.1,343-8.1c2.3,0,4.6,0,6.9,0c73.7,0.1,183.2,2.5,317.9,13.9
		c0.2-27.6,0.3-55.2,0.5-82.8c-21.5-0.7-43-1.4-64.5-2.1C1094.9,231.1,887.2,228,679.4,228L679.4,228z"/>
</g>
<g>
	<rect x="2" y="2.5" class="st6" width="1364" height="235.7"/>
	<path class="st7" d="M1365.5,3v234.7H2.5V3H1365.5 M1366.5,2H1.5v236.7h1365V2L1366.5,2z"/>
</g>
<path class="st8" d="M637.1,109.8"/>
<path class="st8" d="M985.6,73.1"/>
<path class="st8" d="M843.8,113.1"/>
<path class="st8" d="M1183.3,103.1"/>
<path class="st8" d="M1183.3,117.1"/>
<path class="st8" d="M633.1,24.4"/>
<ellipse class="st9" cx="632.4" cy="71.5" rx="44.1" ry="33.7"/>
<g>
	<path class="st10" d="M10,182.2c21.5,4.9,34.4-1.7,40.9-6.5c5.2-3.8,11.3-11.7,23.6-27.5c16.6-21.4,17.4-25.3,24-28.1
		c11.5-4.8,14.8,4.6,30,0c9.7-2.9,9.6-7.2,23-11.5c12-3.9,19.3-2.8,21-2.6c3.9,0.6,6.8,1.8,16,6.4c12.3,6.2,19.5,10.3,24,12.8
		c13.5,7.2,22.5,8.6,32,11.5c12.9,4,31.4,12.2,54.4,31.1"/>
	<g>
		<path class="st7" d="M9.6,183.6c11.6,2.5,23.7,2.7,34.6-2.3c7.3-3.3,12.6-8.6,17.7-14.8c8.7-10.5,16.9-21.4,24.9-32.3
			c3.5-4.8,6.8-10.6,12.6-12.9c5.2-2.1,9.5-0.4,14.6,0.8c5.2,1.2,10.4,0.9,15.4-0.8c4.3-1.4,7.7-3.8,11.5-6.3
			c6-3.8,13.1-6.2,20.1-7.3c10.6-1.7,18.1,1.7,27.5,6.4c10.6,5.3,20.8,11.8,31.7,16.4c11.9,5,24.7,7.1,36.5,12.3
			c14.9,6.5,28.4,15.7,41,26c1.5,1.2,3.6-0.9,2.1-2.1c-11.2-9.1-23-17.4-36-23.8c-9.1-4.5-18.6-7.5-28.4-10.3
			c-12.3-3.5-23.2-9.3-34.4-15.3c-8.9-4.8-18.8-11.4-29-12.8c-10.4-1.5-22.4,1.8-31.3,7.1c-4.3,2.5-7.9,5.5-12.8,7
			c-6.5,1.9-11.6,0.8-17.9-0.7c-17.3-4.2-25.5,14.4-34.2,25.7c-5.2,6.8-10.4,13.6-15.9,20.3c-3,3.7-6.2,7.5-10,10.4
			c-11.4,8.6-26.2,9.3-39.8,6.4C8.5,180.3,7.7,183.2,9.6,183.6L9.6,183.6z"/>
	</g>
</g>
<g class="st11">
	<linearGradient id="SVGID_1_" gradientUnits="userSpaceOnUse" x1="296.6847" y1="161.1508" x2="916.1724" y2="161.1508">
		<stop  offset="0.5865" style="stop-color:#EDECE9"/>
		<stop  offset="1" style="stop-color:#000000"/>
	</linearGradient>
	<path class="st12" d="M296.7,167c26.1-8,46.6-16.8,60.3-23.2c30.9-14.5,47.2-26.4,62-16.6c10.2,6.8,8.5,16.5,18.9,23.7
		c16.2,11.3,31.5-4.7,56.1-10.9c35.7-9.1,45.1,13.9,95,16.6c29.9,1.6,50.2-5.3,65-8.9c99.9-24.5,263.2,23.9,262.2,40
		c-0.6,8.9-51.3,15.1-244.2,8.5"/>
	<g>
		<path class="st7" d="M297.5,169.9c20-6.2,39.5-13.6,58.5-22.4c9.8-4.6,19.4-9.6,29.3-14.2c7-3.3,15.1-7.2,23.1-6.7
			c9.2,0.6,14.1,7.4,18,14.9c3.9,7.4,9.8,13.8,18.2,15.7c7.5,1.7,15-0.7,22-3.5c9.3-3.8,18.4-8.4,28.2-10.9
			c14.5-3.7,27.4-1.1,41,4.1c16.5,6.3,32.8,11.2,50.5,12.5c20.2,1.4,39.8-1.4,59.3-6.5c15.9-4.2,31.9-7.1,48.3-8.2
			c36.4-2.6,73.1,0.8,109,7c29.6,5.1,59.5,12,87.5,23c7.1,2.8,15.1,5.8,21,10.8c0.8,0.7,1.2,1.4,1.6,1.8c0.6,0.6-0.3,0.2,0.2,0
			c0,0-0.2,0-0.1,0.2c-0.1-0.1,0.3-0.2-0.5,0.4c0.6-0.5-2.4,1.2-2.1,1.1c-1.6,0.6-3.3,1.1-5,1.5c-5.4,1.3-10.9,2-16.4,2.6
			c-21.4,2.3-43,2.6-64.5,2.8c-38.2,0.4-76.5-0.4-114.7-1.5c-12.6-0.4-25.3-0.8-37.9-1.2c-3.9-0.1-3.9,5.9,0,6
			c44.3,1.5,88.5,2.7,132.8,2.8c25.3,0,50.7-0.1,75.9-2.1c10.6-0.8,23.2-1.1,33.1-5.8c2.2-1.1,4.5-2.6,5.2-5.1
			c1.3-5.1-4.6-8.9-8.2-11.1c-8.4-5.2-18-8.7-27.3-12c-14-4.9-28.4-8.9-42.8-12.4c-35.6-8.5-72.3-14-108.9-15.2
			c-18.2-0.6-36.5-0.1-54.6,2.3c-16.6,2.2-32.4,7.2-48.8,10.4c-21.7,4.3-44.6,4.3-66-1.2c-14.4-3.7-27.8-11.2-42.5-13.8
			c-17.3-3.1-33.6,2.8-49.3,9.7c-7.7,3.4-16.9,8.2-25.5,5.7c-10.6-3.1-12.5-13.4-18.6-21.1c-10.5-13.2-26.3-9.9-39.9-4
			c-19.3,8.4-37.7,18.6-57.4,26.4c-11,4.3-22.1,8.2-33.3,11.6C292.2,165.2,293.8,171,297.5,169.9L297.5,169.9z"/>
	</g>
</g>
<g>
	<g>
		<path d="M913.2,188.3c1.9,0,1.9-3,0-3C911.2,185.3,911.2,188.3,913.2,188.3L913.2,188.3z"/>
	</g>
</g>
<g>
	<path class="st10" d="M924.3,95.8c24.6-2,49.1-4.1,73.7-6.1c25-2.1,52.7-3.7,72.6,6c6.2,3,11.3,7,17.7,9.8
		c11.8,5,26.7,5.5,40.7,7.1c23.4,2.7,45.5,8.8,66.7,15.6c8.1,2.6,17.1,5.4,26,3.7"/>
	<g>
		<path class="st7" d="M924.3,97.3c22.2-1.8,44.5-3.7,66.7-5.5c19.4-1.6,39.3-3.8,58.6-0.8c9,1.4,17.5,4.1,25.4,8.8
			c7.8,4.6,15,8.5,23.9,10.5c9,2,18.3,2.5,27.5,3.5c10.7,1.1,21.4,3,31.9,5.4c11.3,2.6,22.5,5.9,33.6,9.4c9.9,3.1,19.7,6.4,30.2,4.8
			c1.9-0.3,1.1-3.2-0.8-2.9c-10.8,1.7-21.1-2.4-31.2-5.6c-9.6-3-19.4-5.8-29.2-8.1c-9.6-2.3-19.3-4.1-29-5.3
			c-10.1-1.3-20.4-1.7-30.5-3.6c-9.9-1.9-17.7-6.5-26.3-11.3c-7.2-4.1-15-6.6-23.1-8c-17.8-3.1-36.1-1.7-54-0.2
			c-24.6,2-49.1,4.1-73.7,6.1C922.4,94.5,922.4,97.5,924.3,97.3L924.3,97.3z"/>
	</g>
</g>
<g>
	<linearGradient id="SVGID_2_" gradientUnits="userSpaceOnUse" x1="1151" y1="95.9361" x2="1356.5" y2="95.9361">
		<stop  offset="0.7202" style="stop-color:#EFEEEB"/>
		<stop  offset="1" style="stop-color:#000000"/>
	</linearGradient>
	<path class="st13" d="M1151,139.2c4.8-13.9,12.5-30.5,23.6-32.6c9.8-1.8,13.4,9.2,23.6,12c21,5.6,33.6-33.5,59.9-50.3
		c13.2-8.4,48.2-31.7,66.4,2.4c32,60.3,32,60.3,32,60.3v7.7"/>
	<g>
		<path class="st7" d="M1152.4,139.6c3.4-9.7,13.2-37.4,28.2-30.7c5.4,2.4,9,7.8,14.5,10.2c3.8,1.6,8,2,11.9,0.9
			c9.3-2.7,16-11.7,21.7-18.9c8.2-10.3,16.1-21.3,26.8-29.2c14.5-10.7,38.7-25,56.3-13.5c6.7,4.4,10.4,11.4,14,18.3
			c3.8,7.1,7.5,14.2,11.3,21.3c4.3,8.1,8.7,16.3,13,24.4c1.5,2.9,3.4,5.8,4.7,8.8c0.1,0.2,0.3,0.4,0.3,0.6c-0.4-1.2-0.2,0-0.2,0.5
			c0,2.2,0,4.3,0,6.5c0,1.9,3,1.9,3,0c0-2.8,0.6-6.1-0.4-8.7c-0.7-2.1-2.2-4.2-3.3-6.2c-4-7.6-8.1-15.2-12.1-22.8
			c-3.6-6.8-7.2-13.5-10.8-20.3c-3.8-7.1-7.1-14.8-12.8-20.6c-16.3-16.5-40.1-6.3-56.7,4c-10.6,6.6-19.1,14.6-26.9,24.3
			c-7.4,9.1-14.6,21.4-25.2,27.2c-6.5,3.5-12.9,2.1-18.6-2.3c-4.7-3.6-9-8.7-15.4-8.2c-15,1-22.2,22.2-26.3,33.8
			C1148.9,140.6,1151.8,141.4,1152.4,139.6L1152.4,139.6z"/>
	</g>
</g>
<g>
	<linearGradient id="SVGID_3_" gradientUnits="userSpaceOnUse" x1="475.979" y1="110.6278" x2="815.2605" y2="110.6278">
		<stop  offset="0.5866" style="stop-color:#ECEBE8"/>
		<stop  offset="1" style="stop-color:#000000"/>
	</linearGradient>
	<path class="st14" d="M476,153.7c7.2-1.4,18.8-4.3,32.3-11c46.2-23,62.3-64.6,85.2-57c12.5,4.2,12.6,18.2,27,20.4
		c12.3,1.9,20.3-7,35.7-16.8c0,0,16.4-10.4,49.3-20.1c10.5-3.1,46.4-9,109.8,67.6"/>
	<g>
		<path class="st7" d="M477.2,158c18.3-3.7,35.6-11.3,50.9-21.9c13-9,24.2-20.1,35.5-31c6.3-6.1,15.4-16.6,25.2-15.8
			c6.4,0.5,10.3,5.4,13.9,10.1c4.4,5.5,9.4,9.8,16.5,11.1c15.6,2.7,27.5-10.2,39.7-17.6c10-6,21.1-10.4,32.1-14.3
			c5.8-2.1,11.7-4.2,17.8-5.6c2.8-0.6,2.6-0.6,5.4-0.8c6.6-0.4,12.5,0.8,18.9,2.9c12.1,4,23.2,11.1,33.1,18.8
			c17.1,13.3,32,29.4,45.8,46.1c3.7,4.5,10-1.9,6.4-6.4c-20.6-24.8-44.7-50.9-74.8-64.1c-11.9-5.2-25.3-8.3-38.2-5
			c-15,3.9-30,9.8-43.8,16.7c-10.6,5.3-19.4,14-30.2,18.9c-7,3.2-14.4,2-19.6-3.8c-4.7-5.2-8.2-11.1-14.9-14
			c-10.3-4.5-20.2-0.1-28.4,6.4c-13,10.2-23.7,23.1-36.6,33.5c-16.7,13.5-36.1,23.1-57.2,27.3C469.1,150.5,471.5,159.2,477.2,158
			L477.2,158z"/>
	</g>
</g>
<g>
	<linearGradient id="SVGID_4_" gradientUnits="userSpaceOnUse" x1="746.2324" y1="96.2894" x2="1146.7052" y2="96.2894">
		<stop  offset="0.4089" style="stop-color:#EFEEEB"/>
		<stop  offset="1" style="stop-color:#000000"/>
	</linearGradient>
	<path class="st15" d="M746.2,148.8c12.4,0.9,24.8-2.8,34.5-8.1c2.9-1.6,5.4-3.2,7.7-4.8c7.6-5.4,13.2-10.7,16.5-14.2
		c19-19.7,34.2-46.1,59.6-64c8-5.6,18.5-11.5,31.8-13c0,0,5.4-2,10.6-0.2c46.2,16.1,70.5,28.5,70.5,28.5
		c50.6,36.1,62.7,65.1,80,57.4c11.2-5,10.3-18.9,22.4-26.4c19.1-12,46,7.3,66.8,27"/>
	<g>
		<path class="st7" d="M746.2,153.3c41.2,2.3,66-33,89.3-61.1c12.2-14.8,26.1-29.7,43.7-38c4.4-2.1,9.1-3.6,13.9-4.5
			c4.2-0.8,8.4-1.9,12.7-0.9c10.1,2.5,20.1,7.2,29.8,11c11.8,4.6,23.5,9.4,34.9,14.8c10.8,5.1,20,13.6,29,21.3
			c11.1,9.6,21.2,20.2,32.2,29.8c6.3,5.5,13.8,11.4,22.6,10.2c17.6-2.5,16.9-25.5,32.8-30.3c9.4-2.8,19.5,1.5,27.6,6.1
			c10.6,6.1,20,14.1,28.9,22.4c4.2,4,10.6-2.4,6.4-6.4c-13.8-13-30.6-27.9-49.9-31.3c-7.7-1.4-15.7-0.6-22.4,3.6
			c-7.3,4.6-10.7,11.8-14.9,19c-5.5,9.3-12.3,9.7-20.3,3.9c-10.5-7.6-19.2-17.8-28.8-26.4c-7.3-6.7-14.9-13.1-22.8-19.1
			c-4.1-3.2-8.1-6.7-12.7-9.1c-9.1-4.7-18.8-8.5-28.3-12.4c-8.6-3.5-17.2-6.8-25.8-10c-5.2-1.9-10.5-4.2-15.9-5.7
			c-4.3-1.2-8.2-0.8-12.5,0c-9.4,1.9-17.9,4.2-26.3,9c-8,4.6-15.4,10.5-22.1,16.9c-29.8,28.2-52.9,80.8-101,78.2
			C740.4,143.9,740.5,152.9,746.2,153.3L746.2,153.3z"/>
	</g>
</g>
<g>
	<path class="st10" d="M1157.7,131.6c8.3,2.3,16.5,4.7,24.8,7c10.5,2.9,21.1,5.9,32.4,6.9"/>
	<g>
		<path class="st7" d="M1157.3,133.1c18.9,5.3,37.9,12.1,57.6,13.9c1.9,0.2,1.9-2.8,0-3c-19.3-1.8-38.2-8.6-56.8-13.8
			C1156.2,129.7,1155.4,132.6,1157.3,133.1L1157.3,133.1z"/>
	</g>
</g>
<g>
	<path class="st16" d="M373,197.7c19.7,0.9,40.4,1.8,58.5-3.5c6.4-1.9,12.3-4.5,18.4-6.7c9.1-3.4,18.9-6.1,28.9-8"/>
	<g>
		<path class="st7" d="M373,199.2c17.9,0.8,36.2,1.7,53.8-2.3c8.7-2,16.9-5.7,25.3-8.7c8.9-3.2,18-5.6,27.2-7.4
			c1.9-0.4,1.1-3.3-0.8-2.9c-9.2,1.8-18.3,4.2-27.2,7.4c-7.8,2.8-15.4,6.3-23.5,8.3c-17.8,4.4-36.5,3.4-54.7,2.6
			C371.1,196.1,371.1,199.1,373,199.2L373,199.2z"/>
	</g>
</g>
<g>
	<line class="st17" x1="2" y1="395.1" x2="79.9" y2="395.1"/>
</g>
<g>
	<line class="st17" x1="341" y1="395.1" x2="418.9" y2="395.1"/>
</g>
<g>
	<line class="st17" x1="154.3" y1="395.1" x2="232.2" y2="395.1"/>
</g>
<g>
	<line class="st17" x1="901.2" y1="395.1" x2="979.1" y2="395.1"/>
</g>
<g>
	<line class="st17" x1="719.4" y1="395.1" x2="797.3" y2="395.1"/>
</g>
<g>
	<line class="st17" x1="534.7" y1="395.1" x2="612.6" y2="395.1"/>
</g>
<g>
	<line class="st17" x1="1287.6" y1="395.1" x2="1365.5" y2="395.1"/>
</g>
<g>
	<line class="st17" x1="1107.9" y1="395.1" x2="1185.8" y2="395.1"/>
</g>
<g>
	<g>
		<path class="st18" d="M116.1,142.4c-0.4,1.4-2.4,7.6-3,9.1H76v-1.9c6.5-0.5,6.9-0.8,6.9-5.3v-20.5c0-4.6-0.9-4.9-5.7-5.2v-2h23.2
			c7.5,0,10-0.1,11-0.1c0.1,1,0.4,5.4,0.7,8.7l-2.8,0.3c-0.6-1.8-1.9-4-3.1-5c-1.3-1.1-2.2-1.4-5.9-1.4h-4.6c-2.7,0-3,0.1-3,1.9
			v11.2h7c4,0,4.7-0.8,5.8-4.6h2.8v12h-2.8c-1.1-4-1.7-4.6-5.9-4.6h-6.9v9.2c0,3.7,0.1,4.8,4.6,4.9h5.1c4,0,5.1-0.4,6.6-1.8
			c1.8-1.6,3.2-3.5,4.4-5.4L116.1,142.4z"/>
		<path class="st18" d="M141.2,151.5v-2c4.9-0.5,4.6-1.3,3.4-3.1c-0.7-0.9-2.2-2.8-7.4-9.4c-3.3,3.8-6.4,7.3-7.7,9.2
			c-1.6,2.2-1.3,2.8,3.7,3.3v2h-17.8v-2c4-0.3,6.6-1.1,8.6-3c2.6-2.4,7.1-7.1,11.2-11.7c-3.4-4.2-6.4-8-10-12.4
			c-1.9-2.4-3.5-3.4-8.9-3.8v-2h22.3v2c-4.3,0.4-4.5,1-3.5,2.5c1.1,1.7,3.4,4.6,6.4,8.1c2.1-2.2,4.8-5.4,6.5-7.6
			c1.4-1.9,0.8-2.4-3.6-3v-2h17.3v2c-4.6,0.4-6.8,1-9.5,3.5c-2.4,2.4-5.2,5.4-8.7,9.1c4.1,4.9,7.4,9.1,11.6,13.8
			c2.9,3.5,4.4,4,9.3,4.4v2H141.2z"/>
		<path class="st18" d="M185,116.7c5.6,0,9.9,0.8,12.9,2.2c3.6,1.8,5.6,4.3,5.6,8c0,7.8-8.8,11-16.4,11.1c-0.7,0-1.6-0.1-2.1-0.1
			l-4.1-0.8v7.3c0,4.5,0.5,4.7,6.7,5.1v2h-22.7v-2c5.4-0.5,6.1-0.6,6.1-5.1v-20.5c0-4.5-0.7-5-6.1-5.3v-2H185z M180.8,134.8
			c0.9,0.3,2.3,0.5,3.8,0.5c3.3,0,8.6-1.4,8.6-8.5c0-6-4.4-8-9-8c-1.5,0-2.4,0.3-2.8,0.5c-0.5,0.3-0.6,0.9-0.6,1.7V134.8z"/>
		<path class="st18" d="M246.4,142.1c-0.6,2.3-2.6,8-3.2,9.4h-35.4v-2c6.3-0.3,6.9-0.7,6.9-5.2v-20.4c0-4.5-0.7-4.9-6.1-5.3v-2h22.3
			v2c-5.6,0.4-6.3,0.8-6.3,5.3v20.8c0,2.9,0.1,4.3,4.1,4.3c0.1,0.1,3.4,0.1,3.7,0.1c4.1,0,5.1-0.6,6.9-2.1c1.4-1.1,3.2-3.4,4.5-5.6
			L246.4,142.1z"/>
		<path class="st18" d="M275.6,115.9c13.2,0,24,7.2,24,17.8c0,11.4-10.9,18.6-24.4,18.6c-14.3,0-24.6-7.8-24.6-18.2
			C250.6,125,259.3,115.9,275.6,115.9z M274.5,118.3c-7.3,0-12.6,5.4-12.6,14.8c0,9.1,4.8,16.8,14.4,16.8c6.8,0,12.1-4.9,12.1-14.7
			C288.4,124.6,282.8,118.3,274.5,118.3z"/>
		<path class="st18" d="M350.4,151.8c-0.4,0-1.3,0-2.1-0.1c-9.1-0.3-11.7-1.8-13.9-4c-2.9-2.9-4.9-6.2-7.4-9.4
			c-1.1-1.4-2.1-1.8-4.4-1.8l-1.4-0.1v7.8c0,4.3,0.7,4.7,6.1,5.2v2h-21.9v-2c5.4-0.4,6.1-0.9,6.1-5.2v-20.5c0-4.2-0.7-4.8-6.1-5.1
			v-2h20.7c6.4,0,10,0.5,12.9,2c2.9,1.4,4.8,3.8,4.8,7.1c0,4.8-4.2,7.3-8.9,8.7c1.1,1.6,3.9,5.1,6,7.6c2.5,2.9,4.1,4.4,5.4,5.6
			c1.6,1.4,2.4,1.8,4.5,2.4L350.4,151.8z M323.2,134.3c3.1,0,5.4-0.4,7-1.4c2.4-1.5,3.4-3.5,3.4-6.3c0-5.7-4.4-7.7-8.4-7.7
			c-1.9,0-2.9,0.2-3.3,0.5c-0.5,0.3-0.6,1-0.6,2v12.8H323.2z"/>
		<path class="st18" d="M391.2,142.4c-0.4,1.4-2.4,7.6-3,9.1h-37.1v-1.9c6.5-0.5,6.9-0.8,6.9-5.3v-20.5c0-4.6-0.9-4.9-5.7-5.2v-2
			h23.2c7.5,0,10-0.1,11-0.1c0.1,1,0.4,5.4,0.7,8.7l-2.8,0.3c-0.6-1.8-1.9-4-3.1-5c-1.3-1.1-2.2-1.4-5.9-1.4h-4.6
			c-2.7,0-3,0.1-3,1.9v11.2h7c4,0,4.7-0.8,5.8-4.6h2.8v12h-2.8c-1.1-4-1.7-4.6-5.9-4.6h-6.9v9.2c0,3.7,0.1,4.8,4.6,4.9h5.1
			c4,0,5.1-0.4,6.6-1.8c1.8-1.6,3.2-3.5,4.4-5.4L391.2,142.4z"/>
		<path class="st18" d="M121.8,216.1c-0.4,0-1.3,0-2.1-0.1c-9.1-0.3-11.7-1.8-13.9-4c-2.9-2.9-4.9-6.2-7.4-9.4
			c-1.1-1.4-2.1-1.8-4.4-1.8l-1.4-0.1v7.8c0,4.3,0.7,4.7,6.1,5.2v2H76.9v-2c5.4-0.4,6.1-0.9,6.1-5.2v-20.5c0-4.2-0.7-4.8-6.1-5.1v-2
			h20.7c6.4,0,10,0.5,12.9,2c2.9,1.4,4.8,3.8,4.8,7.1c0,4.8-4.2,7.3-8.9,8.7c1.1,1.6,3.9,5.1,6,7.6c2.5,2.9,4.1,4.4,5.4,5.6
			c1.6,1.4,2.4,1.8,4.5,2.4L121.8,216.1z M94.6,198.6c3.1,0,5.4-0.4,7-1.4c2.4-1.5,3.4-3.5,3.4-6.3c0-5.7-4.4-7.7-8.4-7.7
			c-1.9,0-2.9,0.2-3.3,0.5c-0.5,0.3-0.6,1-0.6,2v12.8H94.6z"/>
		<path class="st18" d="M148.6,180.2c13.2,0,24,7.2,24,17.8c0,11.4-10.9,18.6-24.4,18.6c-14.3,0-24.6-7.8-24.6-18.2
			C123.6,189.3,132.3,180.2,148.6,180.2z M147.5,182.6c-7.3,0-12.6,5.4-12.6,14.8c0,9.1,4.8,16.8,14.4,16.8
			c6.8,0,12.1-4.9,12.1-14.7C161.3,188.9,155.8,182.6,147.5,182.6z"/>
		<path class="st18" d="M201,215.8v-2c4.5-0.5,4.5-1.1,3.5-3.4c-0.7-1.6-1.9-4-2.9-6.2h-13.9c-0.8,1.7-1.8,3.7-2.5,5.4
			c-1.5,3.4,0.2,3.8,5.9,4.2v2h-17.6v-2c4.5-0.4,5.6-0.9,8.1-5.4l14.9-27.7l3.4-0.5c4.6,9.3,9.4,18.9,14.1,27.8
			c2.6,5,3.3,5.4,7.9,5.8v2H201z M194.8,190.2c-2.1,3.9-4.1,7.4-5.9,11.4h11.4L194.8,190.2z"/>
		<path class="st18" d="M244.5,181c9.1,0,15.9,1.4,20.4,4.7c3.6,2.5,6.4,6.3,6.4,11.7c0,6.2-3.4,10.9-8.9,14
			c-5.3,3-12.1,4.5-20.2,4.5h-19.6v-2c5.4-0.3,6.1-0.8,6.1-5.3v-20.4c0-4.5-0.8-4.9-6.1-5.3v-2H244.5z M238.5,208.2
			c0,3.8,1.3,5.1,6.5,5.1c9.6,0,15.2-5,15.2-15.2c0-5.1-1.9-9.5-5.1-11.8c-3-2.3-6.7-3-11.5-3c-2.6,0-3.9,0.4-4.3,0.8
			c-0.6,0.5-0.8,1.4-0.8,2.9V208.2z"/>
		<path class="st18" d="M332.1,190.2c-0.8-2.5-2.4-4.5-3.1-5.3c-1.3-1.1-1.9-1.6-6.1-1.6h-4.6v25.2c0,4.5,0.7,4.8,7.1,5.2v2h-23.7
			v-2c6.1-0.4,6.7-0.7,6.7-5.2v-25.2h-4.4c-4,0-5.1,0.5-6.5,1.8c-1,1-2,2.9-2.9,5.1H292c0.5-3.9,1-8.1,1.1-10.7h2.1
			c1.1,1.2,1.9,1.3,4.1,1.3h28.6c1.9,0,2.9-0.3,4.1-1.3h2.1c0.1,2.3,0.4,7,0.7,10.4L332.1,190.2z"/>
		<path class="st18" d="M384.4,216.1c-0.4,0-1.3,0-2.1-0.1c-9.1-0.3-11.7-1.8-13.9-4c-2.9-2.9-4.9-6.2-7.4-9.4
			c-1.1-1.4-2.1-1.8-4.4-1.8l-1.4-0.1v7.8c0,4.3,0.7,4.7,6.1,5.2v2h-21.9v-2c5.4-0.4,6.1-0.9,6.1-5.2v-20.5c0-4.2-0.7-4.8-6.1-5.1
			v-2h20.7c6.4,0,10,0.5,12.9,2c2.9,1.4,4.8,3.8,4.8,7.1c0,4.8-4.2,7.3-8.9,8.7c1.1,1.6,3.9,5.1,6,7.6c2.5,2.9,4.1,4.4,5.4,5.6
			c1.6,1.4,2.4,1.8,4.5,2.4L384.4,216.1z M357.2,198.6c3.1,0,5.4-0.4,7-1.4c2.4-1.5,3.4-3.5,3.4-6.3c0-5.7-4.4-7.7-8.4-7.7
			c-1.9,0-2.9,0.2-3.3,0.5c-0.5,0.3-0.6,1-0.6,2v12.8H357.2z"/>
		<path class="st18" d="M386,215.8v-2c5.4-0.4,6.1-0.7,6.1-5.2v-20.4c0-4.5-0.7-4.9-6.1-5.3v-2h22.1v2c-5.4,0.4-6.1,0.8-6.1,5.3
			v20.4c0,4.4,0.6,4.8,6.1,5.2v2H386z"/>
		<path class="st18" d="M434.1,181c5.6,0,9.9,0.8,12.9,2.2c3.6,1.8,5.6,4.3,5.6,8c0,7.8-8.8,11-16.4,11.1c-0.7,0-1.6-0.1-2.1-0.1
			l-4.1-0.8v7.3c0,4.5,0.5,4.7,6.7,5.1v2h-22.7v-2c5.4-0.5,6.1-0.6,6.1-5.1v-20.5c0-4.5-0.7-5-6.1-5.3v-2H434.1z M429.8,199.1
			c0.9,0.3,2.3,0.5,3.8,0.5c3.3,0,8.6-1.4,8.6-8.5c0-6-4.4-8-9-8c-1.5,0-2.4,0.3-2.8,0.5c-0.5,0.3-0.6,0.9-0.6,1.7V199.1z"/>
	</g>
</g>
<text transform="matrix(1.2434 0 0 1 79.3955 260.5225)"><tspan x="0" y="0" class="st19 st20 st21">Start your car tours and discover the roads. You will be surrounded</tspan><tspan x="0" y="19.4" class="st19 st20 st21">by some of the most beautiful landscapes.</tspan><tspan x="0" y="38.7" class="st19 st20 st21">Meet with your friendly culture and create long lasting memories.</tspan></text>
<g transform="translate(109.58 86.94) scale(2.7 2.88)">
	<text transform="matrix(0.3679 0 0 0.3472 364.5996 2.6358)" class="st7 st22 st23">C</text>
	<text transform="matrix(0.3679 0 0 0.3472 364.5996 2.6358)" class="st24 st22 st23">C</text>
	<text transform="matrix(0.3401 0 0 0.3472 382.4208 2.6358)" class="st7 st22 st23">a</text>
	<text transform="matrix(0.3401 0 0 0.3472 382.4208 2.6358)" class="st24 st22 st23">a</text>
	<text transform="matrix(0.3679 0 0 0.3472 396.3235 2.6358)" class="st7 st22 st23">r</text>
	<text transform="matrix(0.3679 0 0 0.3472 396.3235 2.6358)" class="st24 st22 st23">r</text>
	<text transform="matrix(0.3401 0 0 0.3472 403.682 2.6358)" class="st7 st22 st23">s</text>
	<text transform="matrix(0.3401 0 0 0.3472 403.682 2.6358)" class="st24 st22 st23">s</text>
</g>
<g transform="translate(233.66 134.47) scale(1.22 0.82)">
	<text transform="matrix(1.2788 0 0 1.2195 799.0388 -20.6094)" class="st7 st22 st25">T</text>
	<text transform="matrix(1.2788 0 0 1.2195 799.0388 -20.6094)" class="st24 st22 st25">T</text>
	<text transform="matrix(1.2788 0 0 1.2195 822.0064 -20.6094)" class="st7 st22 st25">o</text>
	<text transform="matrix(1.2788 0 0 1.2195 822.0064 -20.6094)" class="st24 st22 st25">o</text>
	<text transform="matrix(1.2788 0 0 1.2195 846.4092 -20.6094)" class="st7 st22 st25">u</text>
	<text transform="matrix(1.2788 0 0 1.2195 846.4092 -20.6094)" class="st24 st22 st25">u</text>
	<text transform="matrix(1.2788 0 0 1.2195 868.4764 -20.6094)" class="st7 st22 st25">r</text>
	<text transform="matrix(1.2788 0 0 1.2195 868.4764 -20.6094)" class="st24 st22 st25">r</text>
</g>
<g transform="translate(206 60.56) scale(0.81 0.81)">
	<path class="st26" d="M1377.8,20.4c-7.6,7.7-26.5,14.8-48.8,17.6c-29.6,3.7-54-1.5-54.7-11.7c-0.4-7.1,10.7-14.7,27.4-19.9
		c-10.9,4.6-17.8,10.3-17.4,15.7c0.6,9.6,23.9,14.7,51.9,11.1C1353.7,31.1,1368.9,26.3,1377.8,20.4L1377.8,20.4z"/>
	<path class="st26" d="M1368.7,21c-6.9,6.5-24,12.3-44.4,14.3c-26.9,2.6-49.1-2.4-49.7-11.2c-0.4-6.1,9.7-12.5,24.9-16.6
		c-10,3.7-16.1,8.6-15.9,13.2c0.6,8.3,21.7,13,47.2,10.6C1346.8,29.8,1360.7,25.8,1368.7,21L1368.7,21z"/>
	<path class="st26" d="M1293.5,25h-3.9h-0.4l-0.2-0.3c-0.8-0.9-1.4-2.2-1.7-3.2c-0.1-0.3-0.1-0.4-0.1-0.6l-0.7-0.1l0.1-0.8
		c0-0.1,0-0.4,0-0.5c0-0.9,0.1-2,0.4-3l0,0l0,0l0.4-0.4c0.4-0.1,0.6-0.4,0.9-0.4c0.1,0,0.1-0.1,0.2-0.1c0.8-1.7,1.9-3.7,4.1-5.4
		c2.3-1.8,5.8-3.2,11.3-3.2c10.2-9.4,22.7-12.6,34.5-8.6c2.3,0.8,4.6,1.9,6.8,3.2c2.2,1.4,4.3,2.9,6.4,4.9c0.1,0,0.3,0,0.6,0.1
		l0.2,0.1c0.7,0.8,1.3,1.4,1.8,2c0.5,0.6,1.1,1.2,1.8,1.9c1,0.6,1.9,1.5,2.5,2.4c0.1,0.1,0.2,0.4,0.4,0.6c0.1,0.1,0.1,0.1,0.1,0.3
		c0.4,0.3,0.8,0.5,1.1,0.8c0.4,0.4,0.7,0.8,1,1.2l0.1,0.5l0.1,3.7l-0.1,0.4c-0.3,0.9-0.6,1.5-1,2.2c-0.4,0.7-0.8,1.3-1.3,1.9
		l-0.2,0.4h-0.4h-2.1h-0.8v-0.9v-1.7l0,0l0,0c0-2-0.8-4-2-5.2l0,0c-1.2-1.4-2.9-2.2-4.7-2.2l0,0l0,0l0,0l0,0l0,0
		c-1.8,0-3.5,0.9-4.7,2.2l0,0c-1.2,1.4-2,3.2-2,5.2l0,0l0,0v1.1l0,0V25v0.9h-0.8l-32.6-0.3h-0.8v-0.9v-0.9v-1.7l0,0l0,0
		c0-2-0.8-4-2-5.2l0,0c-1.2-1.4-2.9-2.2-4.7-2.2l0,0l0,0l0,0l0,0l0,0c-1.8,0-3.5,0.9-4.7,2.2l0,0c-1.2,1.4-2,3.2-2,5.2l0,0l0,0v1.9
		V25L1293.5,25L1293.5,25z"/>
	<path class="st26" d="M1290,23.5h3.9v-2.2c0-5,3.3-8.9,7.4-8.9l0,0c4.1,0,7.4,4,7.4,8.9v1.8V24l32.1,0.3v-1.4v-1.1
		c0-5,3.3-8.9,7.4-8.9l0,0c4.1,0,7.4,4,7.4,8.9v1.7h2.1c0.8-1.2,1.5-2.4,2-4.1c-0.1-1.3-0.1-2.7-0.1-4c-0.6-0.9-1.1-1.5-2-2
		c-0.4-1.2-1.4-2.7-2.7-3.6c-1.3-1.7-2.2-2.8-3.6-4.5c-0.2-0.1-0.3,0-0.5-0.1c-14.6-14.9-32.5-13.4-46.4,0.4
		c-10.8,0-13.5,5.7-15,9.1c-0.4,0.3-0.8,0.4-1.3,0.6c-0.4,1.1-0.3,2.7-0.4,3.5c0.2,0.1,0.4,0.1,0.6,0.1
		C1288.4,20.4,1289.1,22.2,1290,23.5L1290,23.5z"/>
	<rect x="1288.6" y="16.8" class="st26" width="2.5" height="1.7"/>
	<path class="st26" d="M1312,21.5L1312,21.5c0-1.2-0.1-2.2-0.4-3.2s-0.5-1.9-0.9-2.9c-2-4.7-6-7.9-10.7-7.9l0,0l0,0
		c-3.2-0.1-6.1,1.5-8.1,3.4c0.9-1,2-1.9,3.1-2.4l0,0c0.2-0.1,0.4-0.3,0.6-0.4c1.4-0.6,2.9-0.9,4.4-0.9l0,0l0,0
		c4.8,0,8.9,3.3,10.9,8.1c0.4,0.9,0.7,1.9,0.9,3s0.4,2.2,0.4,3.2v0.1H1312L1312,21.5z"/>
	<path class="st26" d="M1294.6,9.6l-0.2,0.3l0,0l0,0l0,0l0,0h-0.1h-0.1h-0.1h-0.1h-0.1h-0.1h-0.1h-0.1h-0.1h-0.1h-0.1h-0.1h-0.1V10
		h-0.1h-0.1l-0.1,0.1l-0.1,0.1l-0.1,0.1l-0.1,0.1l-0.1,0.1l-0.1,0.1l-0.1,0.2h-0.2l-0.1,0.1l-0.1,0.1l-0.1,0.1l-0.1,0.1l-0.1,0.1
		l-0.2-0.2l0.1-0.1l0.1-0.1l0.1-0.1l0.1-0.1l0.1-0.1l0.1-0.1l0.1-0.1l0.1-0.1l0.1-0.1l0.1-0.2l0.1-0.1l0.1-0.1l0.1-0.1l0.1-0.1
		l0.1-0.1l0.1-0.1l0.1-0.1h0.1h0.1h0.1h0.1h0.1h0.1h0.1h0.1h0.1h0.1h0.1h0.1h0.1L1294.6,9.6L1294.6,9.6L1294.6,9.6L1294.6,9.6z
		 M1293.5,12.9l-0.2-0.3l0,0l0.1-0.1l0.1-0.1l0.1-0.1l0.1-0.1l0.1-0.1l0.1-0.1l0.1-0.1l0.1-0.1l0.1-0.1l0.1-0.1l0.1-0.1l0.1-0.1
		l0.1-0.1l0.1-0.1l0.1-0.1l0.1-0.1v-0.1v-0.1v-0.1v-0.1v-0.1V11v-0.4v-0.1v-0.1v-0.1v-0.1v-0.1v-0.1l0,0l0,0l0,0l0.2-0.3l0.1,0.1
		l0.1,0.1v0.1v0.1v0.1v0.1v0.1v0.1v0.1v0.1v0.1v0.1v0.1V11v0.1l-0.1,0.1l-0.1,0.1l-0.1,0.1l-0.1,0.1l-0.1,0.1l-0.1,0.1l0,0l-0.1,0.1
		l-0.1,0.1l-0.1,0.2L1294,12l-0.1,0.3l-0.1,0.1l-0.1,0.1l-0.1,0.1l-0.1,0.1L1293.5,12.9L1293.5,12.9L1293.5,12.9z M1290.9,14.1
		l0.2-0.3l0,0l0,0l0,0l0,0h0.1h0.1h0.1h0.1h0.1h0.1h0.1h0.1h0.1h0.1h0.1h0.1h0.1l0.1-0.1l0.1-0.1l0.1-0.1l0.1-0.1l0.1-0.1l0.1-0.1
		l0.1-0.1l0.1,0.1l0.1-0.1l0.1-0.1l0.1-0.1l0.1-0.1l0.1-0.1l0.1-0.1l0.1-0.1l0.1-0.1l0.2,0.3l-0.1,0.1l-0.1,0.1l-0.1,0.1l-0.1,0.1
		v0.1l-0.1,0.1l-0.1,0l-0.1,0.1l-0.1,0.1l-0.2,0.1l-0.1,0.1l-0.1,0.1l-0.1,0.1l-0.1,0.1l-0.1,0.2l-0.1,0.1l-0.2-0.1h-0.1h-0.1h-0.1
		h-0.1h-0.1h-0.1h-0.1h-0.1h-0.1h-0.1h-0.1h-0.1h-0.1L1290.9,14.1L1290.9,14.1L1290.9,14.1L1290.9,14.1z M1291.9,10.9l0.2,0.3l0,0
		l-0.1,0.1l-0.1,0.1l-0.1,0.1l-0.1,0.1l-0.1,0.1l-0.1,0.1l-0.1,0.1l-0.1,0.1l-0.1,0.1l-0.1,0.2v0.1l-0.1,0.4l-0.1,0.1l-0.1,0.1v0.1
		v0.1v0.1v0.1V13v0.1v0.1v0.1v0.1v0.2v0.1v0.1v0.1v0.1v0.1l0,0l0,0l0,0l-0.2,0.4l-0.1-0.1l-0.1-0.1V14v-0.1v-0.1v-0.1v-0.1v-0.2
		v-0.1v-0.1v-0.1v-0.1v-0.1v-0.1V13l0.1-0.1l0.1-0.1l0.1-0.1l0.1-0.1l0.1-0.1l0.1-0.1l0.1-0.1l0.1-0.1l0.1-0.1l0.1-0.1l0.1-0.1
		l0.1-0.1l0.1-0.1l0.1-0.1l0.1-0.1l0.1-0.1V10.9L1291.9,10.9L1291.9,10.9z"/>
	<path class="st26" d="M1292,11.1c1-1.2,2.1-1.8,2.5-1.3c0.4,0.4-0.1,1.8-1.1,3c-1,1.2-2.1,1.8-2.5,1.3S1291.1,12.2,1292,11.1z"/>
	<path class="st26" d="M1337.2,21.5L1337.2,21.5c0-1.1,0.1-2.1,0.3-3.2c0.2-0.9,0.4-1.9,0.8-2.8c1.7-4.5,5.3-7.8,9.3-7.9l0,0l0,0
		c2.8-0.3,5.3,1.3,7.1,3c-0.8-0.9-1.8-1.7-2.7-2.2l0,0c-0.2-0.1-0.4-0.1-0.6-0.3c-1.2-0.5-2.5-0.9-3.8-0.8l0,0l0,0
		c-4.1,0.1-7.8,3.5-9.5,8.2c-0.4,0.9-0.6,1.9-0.8,2.9c-0.2,1-0.3,2-0.3,3.1v0.1H1337.2L1337.2,21.5z"/>
	<path class="st26" d="M1307.5,6.6l37.1-0.4C1330.7-11.8,1311,0.1,1307.5,6.6z M1309.9,4.8h2V6l17.8-0.1v-8.1
		C1321-3.6,1312.6,0.9,1309.9,4.8z M1333,5.7v-7.3c3.5,1.2,7,3.4,10.1,7.2L1333,5.7z"/>
	<path class="st26" d="M1309.8,4.8c0.3-0.6,0.7-1.1,1.3-1.7c0.3-0.3,0.6-0.4,0.8-0.6v2.2H1309.8z"/>
	<path class="st26" d="M1333,5.7v-7.3c3.5,1.2,7,3.4,10.1,7.2L1333,5.7z"/>
	<path class="st26" d="M1309.9,4.8h2V6l17.8-0.1v-8.1C1321-3.6,1312.6,0.9,1309.9,4.8z"/>
	<path class="st26" d="M1309.8,4.8c0.3-0.6,0.7-1.1,1.3-1.7c0.3-0.3,0.6-0.4,0.8-0.6v2.2H1309.8L1309.8,4.8z"/>
	<polygon class="st26" points="1311.4,24 1312.1,21.6 1337.1,21.6 1338.2,24.2 	"/>
	<path class="st26" d="M1353.6,9.8L1353.6,9.8L1353.6,9.8l0.1-0.1h0.1h0.1h0.1h0.1h0.1h0.1h0.1h0.1h0.1h0.1h0.1h0.1h0.1l0.1,0.1
		l0.1,0.1l0.1,0.1l0.1-0.1l0.1,0.1l0.1,0.1l0.1,0.1l0.1,0.1l0.1,0.1l0.1,0.1l0.1,0.1l0.1,0.1l0.1,0.1l0.1,0.1l0.1,0.1l0.1,0.1
		l0.1,0.1l-0.2,0.3l-0.1-0.1l-0.1-0.1l-0.1-0.1l-0.1-0.1l-0.1-0.1l-0.1-0.1l-0.1-0.1l-0.1,0l-0.1-0.1l-0.1-0.1l-0.1-0.1l-0.1-0.1
		l-0.1-0.1l-0.1-0.1l-0.1-0.1l-0.1-0.1h-0.1h-0.1h-0.1h-0.1h-0.1h-0.1h-0.1h-0.1h-0.1h-0.1h-0.1h-0.1h-0.1l0,0l0,0l0,0l0,0
		L1353.6,9.8L1353.6,9.8z M1354.7,13L1354.7,13L1354.7,13l-0.1-0.1l-0.1-0.1l-0.1-0.1l-0.1-0.1l-0.1-0.1l-0.1-0.1l-0.1-0.1l-0.1-0.1
		l-0.1-0.1l-0.1-0.1l-0.1-0.1l-0.1-0.1l-0.1-0.1l-0.1-0.1l-0.1-0.1l-0.1-0.1v-0.1v-0.4v-0.1v-0.1v-0.1v-0.1V11v-0.1v-0.1v-0.1v-0.1
		v-0.1v-0.1l0.1-0.1l0.1-0.1l0.2,0.3l0,0l0,0l0,0v0v0.1v0.1v0.1v0.1V11v0.1v0.1v0.1v0.1v0.1v0.1v0.1l0.1,0.1l0.1,0.1l0.1,0.1
		l0.1,0.1l0.1,0.1l0.1,0.1l0.1,0.1l0.1,0.1l0.1,0.1l0.1,0.1l0.1,0.1l0.1,0.1l0.1,0.1l0.1,0.1l0.1,0.1l0.1,0.1l0,0L1354.7,13
		L1354.7,13z M1357.4,14.4L1357.4,14.4L1357.4,14.4l-0.1,0.1h-0.1h-0.1h-0.1h-0.1h-0.1h-0.1h-0.1h-0.1h-0.1h-0.1h-0.1h-0.1h-0.1
		l-0.1-0.1l-0.1-0.1l-0.1-0.1l-0.1-0.1l-0.1-0.1l-0.1-0.1l-0.1-0.1l-0.1-0.1l-0.1-0.1l-0.1-0.1l-0.1-0.1l-0.1-0.1l-0.1-0.1l-0.1-0.1
		l-0.1-0.1l-0.1-0.1l-0.1-0.1l0.2-0.3l0.1,0.1l0.1,0.1l0.1,0.1l0.1,0.1l0.1,0.1l0.1,0.1l0.1,0.1l0.1,0.1l0.1,0.1l0.1,0.1h0.1
		l0.1,0.1l0.1,0.1l0.1,0.1l0.1,0.1l0.1,0.1h0.1h0.1h0.1h0.1h0.1h0.1h0.1h0.1h0.1h0.1h0.1h0.1h0.1l0,0l0,0l0,0l0,0V14.4L1357.4,14.4z
		 M1356.3,11.1L1356.3,11.1L1356.3,11.1l0.1,0.1l0.1,0.1l0.1,0.1l0.1,0.1l0.1,0.1l0.1,0.1l0.1,0.1l0.1,0.1l0.1,0.1l0.1,0.1l0.1,0.1
		l0.1,0.1l0.1,0.1l0.1,0.1l0.1,0.1l0.1,0.1v0.1v0.1v0.1v0.1v0.1v0.1v0.1v0.1V13v0.1v0.4v0.1v0.1l-0.1,0.1l-0.1,0.1l-0.2-0.3l0,0l0,0
		l0,0v0v-0.1v-0.1v-0.1v-0.1v-0.1v-0.1V13v-0.1v-0.1v-0.1v-0.1v-0.1l-0.1-0.1l-0.1-0.1l-0.1-0.1l-0.1-0.1l-0.1-0.1l-0.1-0.1
		l-0.1-0.1l-0.1-0.1l-0.1-0.1l-0.1-0.1l-0.1-0.1l-0.1-0.1l-0.1-0.1l-0.1-0.1l-0.1-0.1l-0.1-0.1l0,0L1356.3,11.1L1356.3,11.1z"/>
	<path class="st26" d="M1356.2,11.2c-1-1.2-2.1-1.8-2.5-1.3c-0.4,0.4,0.1,1.8,1.1,3s2.1,1.8,2.5,1.3
		C1357.6,13.8,1357.1,12.4,1356.2,11.2z"/>
	<path class="st26" d="M1302.3,5.7c0.6,0.6,1.8,0.9,2.9,0.8c2.7-3.2,6.8-6.3,11.4-8.9c-0.3-0.1-0.6-0.1-0.9-0.1l-0.4,0.1
		c0.2,0,0.5,0,0.6,0.1c-2.8,1.7-6.7,4.2-10.1,7.7C1304.4,5.7,1303.5,5.7,1302.3,5.7z"/>
	<path class="st26" d="M1305.4,6.2c-0.6,0.6-1.1,1.4-1.5,2c0.4-0.9,1-1.7,1.5-2.3V6.2L1305.4,6.2z"/>
	<path class="st26" d="M1338.3-3v0.5l-0.1,0.2c1.8,0.9,3.7,2,5.5,3.4c1.9,1.4,3.6,3,5.3,4.9l0,0l1.8-0.4l-0.9-1l-1.7,0.1
		c-1.4-1.5-2.9-2.7-4.4-3.8c-0.9-0.6-1.8-1.3-2.7-1.8l0.1-1L1338.3-3z"/>
	<path class="st26" d="M1300.7,12.3h1.1c3.8,0.4,6.9,4.2,6.9,8.9v1.2h-14.7v-1.2C1293.9,16.6,1296.9,12.6,1300.7,12.3z"/>
	<path class="st26" d="M1355.5,22.1h-14.7v-0.4c0-5,3.3-8.9,7.4-8.9l0,0c4.1,0,7.4,4,7.4,8.9V22.1L1355.5,22.1z"/>
	<ellipse class="st26" cx="1348.2" cy="21" rx="5" ry="6"/>
	<ellipse class="st26" cx="1348.2" cy="21" rx="2.9" ry="3.6"/>
	<ellipse class="st26" cx="1347.2" cy="18.5" rx="0.8" ry="0.9"/>
	<ellipse class="st26" cx="1346" cy="21.3" rx="0.8" ry="0.9"/>
	<ellipse class="st26" cx="1347.9" cy="23.6" rx="0.8" ry="0.9"/>
	<ellipse class="st26" cx="1350.3" cy="22.2" rx="0.8" ry="0.9"/>
	<ellipse class="st26" cx="1349.8" cy="19" rx="0.8" ry="0.9"/>
	<ellipse class="st26" cx="1348.2" cy="20.4" rx="0.1" ry="0.2"/>
	<ellipse class="st26" cx="1347.7" cy="20.8" rx="0.1" ry="0.2"/>
	<ellipse class="st26" cx="1347.8" cy="21.5" rx="0.1" ry="0.2"/>
	<ellipse class="st26" cx="1348.4" cy="21.5" rx="0.1" ry="0.2"/>
	<ellipse class="st26" cx="1348.7" cy="20.9" rx="0.1" ry="0.2"/>
	<ellipse class="st26" cx="1348.2" cy="20.9" rx="0.1" ry="0.2"/>
	<ellipse class="st26" cx="1301.2" cy="21" rx="5" ry="6"/>
	<ellipse class="st26" cx="1301.2" cy="21" rx="2.9" ry="3.6"/>
	<ellipse class="st26" cx="1300.2" cy="18.5" rx="0.8" ry="0.9"/>
	<ellipse class="st26" cx="1299" cy="21.3" rx="0.8" ry="0.9"/>
	<ellipse class="st26" cx="1300.8" cy="23.6" rx="0.8" ry="0.9"/>
	<ellipse class="st26" cx="1303.2" cy="22.2" rx="0.8" ry="0.9"/>
	<ellipse class="st26" cx="1302.8" cy="19" rx="0.8" ry="0.9"/>
	<ellipse class="st26" cx="1301.2" cy="20.4" rx="0.1" ry="0.2"/>
	<ellipse class="st26" cx="1300.6" cy="20.8" rx="0.1" ry="0.2"/>
	<ellipse class="st26" cx="1300.8" cy="21.5" rx="0.1" ry="0.2"/>
	<ellipse class="st26" cx="1301.5" cy="21.5" rx="0.1" ry="0.2"/>
	<ellipse class="st26" cx="1301.7" cy="20.9" rx="0.1" ry="0.2"/>
	<ellipse class="st26" cx="1301.1" cy="20.9" rx="0.1" ry="0.2"/>
</g>
<text transform="matrix(0.9752 0 0 1 1206.0225 129.4331)" class="st22 st27">Drive with us &amp; enjoy ur Life</text>
<path class="st18" d="M6,201.1"/>
<path class="st28" d="M107.5,208.1"/>
<path d="M657.5,319.8"/>
<path class="st29" d="M1206.5,149.5c-20,24.2-20,24.2-20,24.2"/>
<g>
	<path class="st30" d="M2.8,523.3l-0.6-51.8l0-0.1c-1.5-6.6-0.5-11.7,0.6-14.8c2.3-6.4,7-10.7,14.4-13.4c4.2-1.5,7.9-2,16.5-2
		c5.3,0,12.4,0.2,23.3,0.4l0.2,0c10.4,0.2,24.6,0.6,43.3,0.9c3.4,0.1,33.1,0.7,56.6,1.7c4.6,0.2,9.2,0.4,14.6,0.7
		c20,1.1,34.2,2.4,48,3.6l5.5,0.5c2.2,0.2,55.7,5.2,110.4,8c5,0.3,10.6,0.4,16.6,0.4c31.2,0,72.8-3.5,120.9-7.6
		c58.6-4.9,125-10.5,196.9-12.1c6.9-0.2,14.4-0.2,22.9-0.2c49.3,0,125,2.5,262.6,7.1c45.2,1.5,93.3,3.2,93.7,3.2l0.1,0
		c35.6,1.5,50.4,2.4,61.1,3.1c9.4,0.6,15.1,1,28.6,1.3c8.7,0.2,17.1,0.3,25.6,0.3c40.7,0,82.1-2.4,150.6-6.3l0.1,0
		c15.3-0.9,30.6-1.8,45.4-2.8l5.9-0.4l-1.9,80.3H2.8z"/>
	<path class="st31" d="M692.7,438c49.3,0,125,2.5,262.6,7.1c44.8,1.5,93.2,3.2,93.7,3.2l0.1,0c35.6,1.5,50.3,2.4,61.1,3.1
		c9.4,0.6,15.1,1,28.6,1.3c8.7,0.2,17.1,0.3,25.6,0.3c40.8,0,82.1-2.4,150.7-6.3l0.1,0c15.3-0.9,30.6-1.8,45.4-2.8l5.3-0.4
		l-1.8,79.2H3.3l-0.6-51.3l0-0.1l0-0.1c-1.4-6.5-0.5-11.5,0.6-14.5c2.2-6.2,6.8-10.5,14.1-13.1c4.2-1.5,7.8-1.9,16.3-1.9
		c5.3,0,12.4,0.2,23.3,0.4l0.3,0c10.4,0.2,24.6,0.6,43.2,0.9l0.1,0c3.3,0.1,33.1,0.7,56.5,1.7c4.5,0.2,9.2,0.4,14.6,0.7
		c20,1.1,34.2,2.4,48,3.6l0.1,0l5.4,0.5c2.3,0.2,55.8,5.2,110.4,8c5,0.3,10.6,0.4,16.6,0.4c31.2,0,72.8-3.5,120.9-7.6
		c58.6-4.9,125-10.5,196.8-12.1C676.8,438.1,684.2,438,692.7,438 M692.7,437c-8.5,0-16,0.1-22.9,0.2c-71.8,1.6-138.3,7.2-196.9,12.1
		c-48.1,4.1-89.7,7.6-120.9,7.6c-6,0-11.6-0.1-16.5-0.4c-54.2-2.8-108.1-7.8-110.4-8l-5.4-0.5c-13.8-1.2-28-2.4-48.1-3.6
		c-5.4-0.3-10-0.5-14.6-0.7c-24.9-1.1-56.3-1.7-56.7-1.7c-18.8-0.3-33.1-0.7-43.5-0.9c-10.8-0.3-18-0.4-23.3-0.4
		c-8.6,0-12.3,0.4-16.6,2c-7.6,2.7-12.4,7.2-14.7,13.7c-1.2,3.2-2.1,8.4-0.7,15.1l0.6,52.3h1362.8l1.9-81.3l-6.4,0.4
		c-15,1-30.3,1.9-45.4,2.8c-68.5,3.9-109.9,6.3-150.7,6.3c-8.5,0-16.9-0.1-25.6-0.3c-13.5-0.3-19.2-0.7-28.6-1.3
		c-10.8-0.7-25.6-1.6-61.1-3.1l-0.1,0c-2.2-0.1-49.5-1.7-93.7-3.2C817.8,439.5,742,437,692.7,437L692.7,437z"/>
</g>
<g>
	<path class="st30" d="M2.7,515.6l-0.5-39.9l0-0.1c-2.4-7.8,1.2-13.2,10.6-16.2c3.3-1.1,6.3-1.5,15.2-1.5c5.3,0,12.5,0.2,23.4,0.4
		c10.5,0.2,24.9,0.5,43.9,0.8c0.3,0,31.8,0.5,57.1,1.5c4.5,0.2,9.2,0.4,14.6,0.7c20.2,1,34.5,2.1,48.4,3.2l5.4,0.4
		c2.3,0.2,56.7,4.6,111.5,7.2c5.1,0.2,10.8,0.4,16.9,0.4c31.6,0,73.7-3.1,122.3-6.8c59.1-4.4,126.1-9.4,198.4-10.8
		c6.9-0.1,14.5-0.2,23-0.2c49.6,0,126,2.2,264.6,6.3l0.1,0c45.4,1.3,94.1,2.9,94.6,2.9c35.9,1.3,50.7,2.2,61.6,2.8
		c9.5,0.5,15.3,0.9,29,1.2c8.8,0.2,17.3,0.3,26,0.3c41.3,0,83.1-2.1,152.3-5.6c15.1-0.8,30.4-1.6,45.3-2.5l-1.5,55.8H2.7z"/>
	<path class="st32" d="M692.9,455.1c49.6,0,126,2.2,264.7,6.3c44.6,1.3,91.7,2.8,94.6,2.9l0,0l0,0c35.9,1.3,50.7,2.2,61.6,2.8
		c9.5,0.5,15.3,0.9,29,1.2c8.8,0.2,17.3,0.3,26,0.3c41.3,0,83.1-2.1,152.4-5.6c15-0.8,30-1.6,44.7-2.4l-1.4,54.7H3.2l-0.5-39.3
		l0-0.1l0-0.1C0.4,468,3.9,462.8,13,459.9c3.3-1,6.2-1.5,15-1.5c5.3,0,12.5,0.2,23.4,0.4c10.5,0.2,24.9,0.5,43.9,0.8
		c0.3,0,32,0.5,57,1.5c4.5,0.2,9.1,0.4,14.6,0.7c20.2,1,34.5,2.1,48.4,3.2l5.4,0.4c2.3,0.2,56.5,4.6,111.6,7.2
		c5.1,0.2,10.8,0.4,16.9,0.4c31.7,0,73.7-3.1,122.4-6.8c59.1-4.4,126-9.4,198.3-10.8C676.9,455.2,684.4,455.1,692.9,455.1
		 M692.9,454.1c-8.5,0-16.1,0.1-23,0.2c-133.1,2.6-251.4,17.6-320.7,17.6c-6,0-11.7-0.1-16.9-0.4c-55.9-2.6-111.5-7.2-111.5-7.2
		c0,0,0,0,0,0c-15.9-1.2-31-2.4-53.8-3.6c-5.6-0.3-10.2-0.5-14.6-0.7c-25.3-1-57.1-1.5-57.1-1.5c-38-0.6-56.7-1.2-67.3-1.2
		c-8.5,0-11.7,0.4-15.3,1.5c-5.4,1.7-14.3,5.9-11,16.8c0.2,13.4,0.3,26.9,0.5,40.3h1363.3c0.5-18.9,1-37.9,1.5-56.8
		c-10.1,0.6-26.1,1.5-45.8,2.5c-70,3.6-111.1,5.6-152.3,5.6c-8.5,0-17.1-0.1-25.9-0.3c-29.1-0.6-22.7-1.4-90.6-3.9c0,0,0,0,0,0
		c0,0-48.7-1.5-94.6-2.9C820.9,456.4,742.6,454.1,692.9,454.1L692.9,454.1z"/>
</g>
<g>
	<linearGradient id="SVGID_5_" gradientUnits="userSpaceOnUse" x1="930.2324" y1="156.5721" x2="1330.7052" y2="156.5721">
		<stop  offset="0.4838" style="stop-color:#EFEEEB"/>
		<stop  offset="1" style="stop-color:#000000"/>
	</linearGradient>
	<path class="st33" d="M930.2,209c12.4,0.9,24.8-2.8,34.5-8.1c2.9-1.6,5.4-3.2,7.7-4.8c7.6-5.4,13.2-10.7,16.5-14.2
		c19-19.7,34.2-46.1,59.6-64c8-5.6,18.5-11.5,31.8-13c0,0,5.4-2,10.6-0.2c46.2,16.1,70.5,28.5,70.5,28.5
		c50.6,36.1,62.7,65.1,80,57.4c11.2-5,10.3-18.9,22.4-26.4c19.1-12,46,7.3,66.8,27"/>
	<g>
		<path class="st7" d="M930.2,213.5c41.2,2.3,66-33,89.3-61.1c12.2-14.8,26.1-29.7,43.7-38c4.4-2.1,9.1-3.6,13.9-4.5
			c4.2-0.8,8.4-1.9,12.7-0.9c10.1,2.5,20.1,7.2,29.8,11c11.8,4.6,23.5,9.4,34.9,14.8c10.8,5.1,20,13.6,29,21.3
			c11.1,9.6,21.2,20.2,32.2,29.8c6.3,5.5,13.8,11.4,22.6,10.2c17.6-2.5,16.9-25.5,32.8-30.3c9.4-2.8,19.5,1.5,27.6,6.1
			c10.6,6.1,20,14.1,28.9,22.4c4.2,4,10.6-2.4,6.4-6.4c-13.8-13-30.6-27.9-49.9-31.3c-7.7-1.4-15.7-0.6-22.4,3.6
			c-7.3,4.6-10.7,11.8-14.9,19c-5.5,9.3-12.3,9.7-20.3,3.9c-10.5-7.6-19.2-17.8-28.8-26.4c-7.3-6.7-14.9-13.1-22.8-19.1
			c-4.1-3.2-8.1-6.7-12.7-9.1c-9.1-4.7-18.8-8.5-28.3-12.4c-8.6-3.5-17.2-6.8-25.8-10c-5.2-1.9-10.5-4.2-15.9-5.7
			c-4.3-1.2-8.2-0.8-12.5,0c-9.4,1.9-17.9,4.2-26.3,9c-8,4.6-15.4,10.5-22.1,16.9c-29.8,28.2-52.9,80.8-101,78.2
			C924.4,204.2,924.5,213.2,930.2,213.5L930.2,213.5z"/>
	</g>
</g>
<path class="st34" d="M642.2,205.1c208.4-13,274.4-17.3,274.9-27c0.2-4.6-14.3-11.8-84.8-22.8c128.9-2.6,158.5,8.1,160.6,18.7
	c2.4,11.8-27.8,30.2-47.5,38.4c-14.1,5.9-24.9,7.5-45.3,10.4c-31.6,4.5-49.8,3.6-91.6,5.2c-26.4,1-35.6,2-56.6,3.1
	c-93.6,5-217.8,2-363.1,4.2c-74.6,1.1-58.6,2.1-131.2,3.1C130.5,240.1,3,237.9,3,235.3c0-3.1,164.5-3.7,437.8-17.7
	C447.8,217.2,512.6,213.2,642.2,205.1z"/>
<path class="st1" d="M856.5,649"/>
<path class="st34" d="M576.5,108.5"/>
<path class="st1" d="M145,410.6H84v-12.9h44.4C137.6,397.7,145,403.4,145,410.6L145,410.6z"/>
<ellipse class="st1" cx="97.2" cy="411.1" rx="4.9" ry="3.8"/>
<ellipse class="st1" cx="125.6" cy="411.1" rx="4.9" ry="3.8"/>
<path class="st1" d="M92.3,397.7c10.4-14.8,9.7-14.2,9.7-14.2c4.4,0,20.1,0,20.1,0s3.5,4.1,6.9,9.5c3.5,5.4,3.5,4.7,3.5,4.7"/>
<path class="st1" d="M112.4,410.6c0-26.8,0-26.8,0-26.8"/>
<path class="st1" d="M117.6,402c5.5,0,5.5,0,5.5,0"/>
<path class="st35" d="M882.9,388.7h-75.4l2.1-12h54.8C875.8,376.7,884,382,882.9,388.7L882.9,388.7z"/>
<ellipse transform="matrix(0.9963 -8.645147e-02 8.645147e-02 0.9963 -30.5624 72.6676)" class="st36" cx="823.7" cy="389.2" rx="6" ry="3.5"/>
<ellipse class="st37" cx="860.7" cy="389.2" rx="6" ry="3.5"/>
<path class="st38" d="M819.6,376.7c12.9-13.8,12-13.3,12-13.3c5.4,0,24.8,0,24.8,0s4.3,3.9,8.6,8.9c4.3,5,4.3,4.4,4.3,4.4"/>
<path class="st39" d="M842.8,387.9c4.2-24.3,4.2-24.3,4.2-24.3"/>
<path class="st39" d="M850.9,380.7c6.9,0,6.9,0,6.9,0"/>
<path class="st35" d="M1269.9,388.7h-75.4l2.1-12h54.8C1262.8,376.7,1271,382,1269.9,388.7L1269.9,388.7z"/>
<ellipse transform="matrix(0.9963 -8.645147e-02 8.645147e-02 0.9963 -29.1135 106.1243)" class="st36" cx="1210.7" cy="389.2" rx="6" ry="3.5"/>
<ellipse class="st37" cx="1247.7" cy="389.2" rx="6" ry="3.5"/>
<path class="st38" d="M1206.6,376.7c12.9-13.8,12-13.3,12-13.3c5.4,0,24.8,0,24.8,0s4.3,3.9,8.6,8.9c4.3,5,4.3,4.4,4.3,4.4"/>
<path class="st39" d="M1229.8,387.9c4.2-24.3,4.2-24.3,4.2-24.3"/>
<path class="st39" d="M1237.9,380.7c6.9,0,6.9,0,6.9,0"/>
<path class="st1" d="M511,409.5h-64l2.2-12.9h46.5C505.5,396.6,512.3,402.4,511,409.5L511,409.5z"/>
<ellipse transform="matrix(0.9822 -0.1879 0.1879 0.9822 -68.8581 93.9065)" class="st1" cx="460.8" cy="410.1" rx="5.2" ry="3.7"/>
<ellipse transform="matrix(0.9822 -0.1879 0.1879 0.9822 -68.3267 99.5107)" class="st1" cx="490.6" cy="410.1" rx="5.2" ry="3.7"/>
<path class="st1" d="M458,396.6c13.5-14.8,12.6-14.2,12.6-14.2c4.6,0,21.1,0,21.1,0s2.9,4.1,5.6,9.5s2.8,4.7,2.8,4.7"/>
<path class="st1" d="M476.9,409.5c4.6-26.8,4.6-26.8,4.6-26.8"/>
<path class="st1" d="M484.3,400.9c5.8,0,5.8,0,5.8,0"/>
</svg>
