<?xml version="1.0" encoding="utf-8"?>
<!-- Generator: Adobe Illustrator 23.0.1, SVG Export Plug-In . SVG Version: 6.00 Build 0)  -->
<svg version="1.1" id="Layer_1" xmlns="http://www.w3.org/2000/svg" xmlns:xlink="http://www.w3.org/1999/xlink" x="0px" y="0px"
	 viewBox="0 0 1280 1024" style="enable-background:new 0 0 1280 1024;" xml:space="preserve">
<style type="text/css">
	.st0{fill:#5E2D90;stroke:#000000;stroke-miterlimit:10;}
	.st1{fill:#C54D9C;}
	.st2{fill:#FFFFFF;}
	.st3{fill:#954B9D;stroke:#FFFFFF;stroke-miterlimit:10;}
	.st4{fill:#FFFFFF;stroke:#010101;stroke-miterlimit:10;}
	.st5{fill:#FFFFFF;stroke:#FFFFFF;stroke-miterlimit:10;}
	.st6{font-family:'MyriadPro-Regular';}
	.st7{font-size:100px;}
	.st8{fill:#FFFFFF;stroke:#000000;stroke-miterlimit:10;}
</style>
<path class="st0" d="M940.5,824h-622c-41.1,0-74.5-33.4-74.5-74.5v-463c0-41.1,33.4-74.5,74.5-74.5h622c41.1,0,74.5,33.4,74.5,74.5
	v463C1015,790.6,981.6,824,940.5,824z"/>
<image style="overflow:visible;" width="640" height="515" xlink:href="1B7A0100.jpg"  transform="matrix(1 0 0 1 -7552 -7680)">
</image>
<image style="overflow:visible;" width="1458" height="1081" xlink:href="bookcar.jpg"  transform="matrix(0.48 0 0 0.48 0 1024)">
</image>
<image style="overflow:visible;" width="1458" height="1081" xlink:href="bookcar.jpg"  transform="matrix(0.48 0 0 0.48 0 1024)">
</image>
<rect x="334" y="310" class="st1" width="242" height="202"/>
<path class="st2" d="M558.8,293h-202c-15,0-27.3,12.2-27.3,27.3v219.5c0,15,12.2,27.3,27.3,27.3h202c15,0,27.3-12.2,27.3-27.3V320.3
	C586,305.2,573.8,293,558.8,293z"/>
<rect x="365.3" y="433.8" class="st3" width="44.5" height="44.5"/>
<rect x="436.3" y="433.8" class="st3" width="44.5" height="44.5"/>
<rect x="504.3" y="433.8" class="st3" width="44.5" height="44.5"/>
<rect x="366.8" y="495.8" class="st3" width="44.5" height="44.5"/>
<rect x="437.8" y="495.8" class="st3" width="44.5" height="44.5"/>
<rect x="505.8" y="495.8" class="st3" width="44.5" height="44.5"/>
<rect x="366.8" y="371.8" class="st3" width="44.5" height="44.5"/>
<rect x="437.8" y="371.8" class="st3" width="44.5" height="44.5"/>
<rect x="505.8" y="371.8" class="st3" width="44.5" height="44.5"/>
<path class="st3" d="M404,321h-6c-12.2,0-22-9.8-22-22v-15c0-12.2,9.8-22,22-22h6c12.2,0,22,9.8,22,22v15
	C426,311.2,416.2,321,404,321z"/>
<path class="st3" d="M522,321h-6c-12.2,0-22-9.8-22-22v-15c0-12.2,9.8-22,22-22h6c12.2,0,22,9.8,22,22v15
	C544,311.2,534.2,321,522,321z"/>
<path class="st4" d="M786.8,557.3H504.3v-60.5h258.5c13.3,0,24,10.7,24,24V557.3z"/>
<ellipse class="st4" cx="565.2" cy="559.9" rx="22.5" ry="17.6"/>
<ellipse class="st4" cx="696.9" cy="559.9" rx="22.5" ry="17.6"/>
<path class="st4" d="M542.8,496.8c48.2-69.6,44.9-66.8,44.9-66.8c20.1,0,93.1,0,93.1,0s16.1,19.5,32.1,44.5
	c16.1,25,16.1,22.3,16.1,22.3"/>
<path class="st4" d="M635.9,557.3c0-126.1,0-126.1,0-126.1"/>
<path class="st4" d="M659.9,517c25.7,0,25.7,0,25.7,0"/>
<text transform="matrix(1 0 0 1 604 662)" class="st5 st6 st7">Booking</text>
<circle class="st8" cx="774.5" cy="510" r="8"/>
</svg>
