<?xml version="1.0" encoding="utf-8"?>
<!-- Generator: Adobe Illustrator 22.1.0, SVG Export Plug-In . SVG Version: 6.00 Build 0)  -->
<svg version="1.1" id="Layer_1" xmlns="http://www.w3.org/2000/svg" xmlns:xlink="http://www.w3.org/1999/xlink" x="0px" y="0px"
	 viewBox="0 0 120 120" style="enable-background:new 0 0 120 120;" xml:space="preserve">
<style type="text/css">
	.st0{fill:#FFFFFF;stroke:#000000;stroke-miterlimit:10;}
	.st1{fill:#000AC6;stroke:#FFFFFF;stroke-miterlimit:10;}
	.st2{fill:#000202;stroke:#FFFFFF;stroke-miterlimit:10;}
	.st3{fill:#000102;stroke:#FFFFFF;stroke-miterlimit:10;}
	.st4{fill:#6649FF;stroke:#FFFFFF;stroke-miterlimit:10;}
	.st5{fill:#FFFFFF;stroke:#01000D;stroke-miterlimit:10;}
	.st6{fill:#807775;}
	.st7{fill:#FFFFFF;}
	.st8{fill:#807775;stroke:#FFFFFF;stroke-miterlimit:10;}
	.st9{fill:#FFF0EE;stroke:#CCCCCF;stroke-width:2;stroke-miterlimit:10;}
	.st10{fill:none;stroke:#01000D;stroke-width:2;stroke-miterlimit:10;}
	.st11{fill:none;stroke:#CCCCCF;stroke-width:2;stroke-miterlimit:10;}
	.st12{fill:none;stroke:#01000D;stroke-miterlimit:10;}
	.st13{fill:none;stroke:#D0E0FF;stroke-miterlimit:10;}
	.st14{stroke:#000000;stroke-width:2;stroke-miterlimit:10;}
	.st15{fill:#FFFFFF;stroke:#FFFFFF;stroke-width:2;stroke-miterlimit:10;}
	.st16{stroke:#FFFFFF;stroke-linecap:round;stroke-miterlimit:10;}
	.st17{fill:#0025EC;stroke:#000000;stroke-miterlimit:10;}
	.st18{fill:#FFFFFF;stroke:#FFFFFF;stroke-miterlimit:10;}
</style>
<g>
	<path class="st6" d="M37.5,65.5c0-11,9-20,20-20c4.8,0,9.5,1.7,13.1,4.9c4.4,3.8,6.9,9.3,6.9,15.1H37.5z"/>
	<path class="st7" d="M57.5,46c4.7,0,9.2,1.7,12.8,4.8c4.1,3.6,6.6,8.8,6.7,14.2H38C38.3,54.5,46.9,46,57.5,46 M57.5,45L57.5,45
		C46.2,45,37,54.2,37,65.5V66h41v-0.5c0-6.2-2.7-11.7-7.1-15.5C67.3,46.9,62.6,45,57.5,45L57.5,45z"/>
</g>
<g>
	<path class="st6" d="M33.7,88.5c-3.4,0-6.2-2.8-6.2-6.2v-9.7c0-3.4,2.8-6.2,6.2-6.2h49.7c3.4,0,6.2,2.8,6.2,6.2v9.7
		c0,3.4-2.8,6.2-6.2,6.2H33.7z"/>
	<path class="st7" d="M83.3,67c3.1,0,5.7,2.5,5.7,5.7v9.7c0,3.1-2.5,5.7-5.7,5.7H33.7c-3.1,0-5.7-2.5-5.7-5.7v-9.7
		c0-3.1,2.5-5.7,5.7-5.7H83.3 M83.3,66H33.7C30,66,27,69,27,72.7v9.7c0,3.7,3,6.7,6.7,6.7h49.7c3.7,0,6.7-3,6.7-6.7v-9.7
		C90,69,87,66,83.3,66L83.3,66z"/>
</g>
<g>
	<ellipse class="st6" cx="70.5" cy="86.5" rx="7" ry="8"/>
	<path class="st7" d="M70.5,79c3.6,0,6.5,3.4,6.5,7.5S74.1,94,70.5,94S64,90.6,64,86.5S66.9,79,70.5,79 M70.5,78
		c-4.1,0-7.5,3.8-7.5,8.5s3.4,8.5,7.5,8.5s7.5-3.8,7.5-8.5S74.6,78,70.5,78L70.5,78z"/>
</g>
<g>
	<ellipse class="st6" cx="44.5" cy="86.5" rx="7" ry="8"/>
	<path class="st7" d="M44.5,79c3.6,0,6.5,3.4,6.5,7.5S48.1,94,44.5,94S38,90.6,38,86.5S40.9,79,44.5,79 M44.5,78
		c-4.1,0-7.5,3.8-7.5,8.5s3.4,8.5,7.5,8.5s7.5-3.8,7.5-8.5S48.6,78,44.5,78L44.5,78z"/>
</g>
<g>
	<circle class="st7" cx="44.5" cy="86.5" r="4"/>
	<path d="M44.5,83c1.9,0,3.5,1.6,3.5,3.5S46.4,90,44.5,90S41,88.4,41,86.5S42.6,83,44.5,83 M44.5,82C42,82,40,84,40,86.5
		s2,4.5,4.5,4.5s4.5-2,4.5-4.5S47,82,44.5,82L44.5,82z"/>
</g>
<g>
	<circle class="st7" cx="70.5" cy="86.5" r="4"/>
	<path d="M70.5,83c1.9,0,3.5,1.6,3.5,3.5S72.4,90,70.5,90S67,88.4,67,86.5S68.6,83,70.5,83 M70.5,82C68,82,66,84,66,86.5
		s2,4.5,4.5,4.5s4.5-2,4.5-4.5S73,82,70.5,82L70.5,82z"/>
</g>
<path class="st8" d="M57.5,47.5v16C57.5,63.5,57.5,50.5,57.5,47.5z"/>
<line class="st8" x1="57.5" y1="45.5" x2="57.5" y2="66"/>
<path class="st8" d="M70.5,55.3c0,0,0-8.4,0,1.4s0,9.8,0,9.8"/>
</svg>
