<?xml version="1.0" encoding="utf-8"?>
<!-- Generator: Adobe Illustrator 23.0.1, SVG Export Plug-In . SVG Version: 6.00 Build 0)  -->
<svg version="1.1" id="Layer_1" xmlns="http://www.w3.org/2000/svg" xmlns:xlink="http://www.w3.org/1999/xlink" x="0px" y="0px"
	 viewBox="0 0 1030 200" style="enable-background:new 0 0 1030 200;" xml:space="preserve">
<style type="text/css">
	.st0{fill:#FFFFFF;stroke:#43FFEC;stroke-miterlimit:10;}
	.st1{fill:#FFFFFF;}
	.st2{fill:#43FFEC;}
	.st3{fill:#FFFFFF;stroke:#38F1FF;stroke-miterlimit:10;}
</style>
<path class="st0" d="M86,60.5c-4,0-7.8,0.9-11,2.4c-3.7-3.5-9.1-5.7-15.1-5.7c-5.4,0-10.3,1.8-14,4.7c-3.9-2.2-8.8-3.5-14-3.5
	c-13.3,0-24,8.4-24,18.8s10.8,18.8,24,18.8c7.2,0,13.7-2.5,18.1-6.4c2.9,1.4,6.3,2.2,9.8,2.2c4.1,0,7.9-1,11.1-2.8
	c3.8,3,9.1,4.8,14.9,4.8c11.7,0,21.2-7.5,21.2-16.7S97.7,60.5,86,60.5z"/>
<path class="st0" d="M583.6,45.3c-4,0-7.8,0.9-11,2.4c-3.7-3.5-9.1-5.7-15.1-5.7c-5.4,0-10.3,1.8-14,4.7c-3.9-2.2-8.8-3.5-14-3.5
	c-13.3,0-24,8.4-24,18.8c0,10.4,10.8,18.8,24,18.8c7.2,0,13.7-2.5,18.1-6.4c2.9,1.4,6.3,2.2,9.8,2.2c4.1,0,7.9-1,11.1-2.8
	c3.8,3,9.1,4.8,14.9,4.8c11.7,0,21.2-7.5,21.2-16.7S595.3,45.3,583.6,45.3z"/>
<path class="st0" d="M743.5,52.4c-4,0-7.8,0.9-11,2.4c-3.7-3.5-9.1-5.7-15.1-5.7c-5.4,0-10.3,1.8-14,4.7c-3.9-2.2-8.8-3.5-14-3.5
	c-13.3,0-24,8.4-24,18.8c0,10.4,10.8,18.8,24,18.8c7.2,0,13.7-2.5,18.1-6.4c2.9,1.4,6.3,2.2,9.8,2.2c4.1,0,7.9-1,11.1-2.8
	c3.8,3,9.1,4.8,14.9,4.8c11.7,0,21.2-7.5,21.2-16.7S755.3,52.4,743.5,52.4z"/>
<g>
	<path class="st1" d="M236.7,45.3c-4,0-7.8,0.9-11,2.4c-3.7-3.5-9.1-5.7-15.1-5.7c-5.4,0-10.3,1.8-14,4.7c-3.9-2.2-8.8-3.5-14-3.5
		c-13.3,0-24,8.4-24,18.8c0,10.4,10.8,18.8,24,18.8c7.2,0,13.7-2.5,18.1-6.4c2.9,1.4,6.3,2.2,9.8,2.2c4.1,0,7.9-1,11.1-2.8
		c3.8,3,9.1,4.8,14.9,4.8c11.7,0,21.2-7.5,21.2-16.7S248.4,45.3,236.7,45.3z"/>
	<g>
		<path class="st2" d="M236.7,42.8c-2.8,0.1-5.5,0.4-8.1,1.3c-0.6,0.2-2.5,1.2-2.9,1.1c-0.4-0.1-1.7-1.4-2.2-1.8
			c-4.2-2.9-9.4-4.2-14.5-3.8c-2.5,0.2-5.1,0.7-7.4,1.7c-1.4,0.6-3.6,2.8-4.9,2.9c-1.4,0.1-5.7-2.4-7.3-2.8
			c-2.7-0.6-5.4-0.8-8.2-0.7c-8.2,0.4-17.1,4.3-20.9,12c-1.9,3.9-2,8.7-1.6,13c0.8,8.3,7.8,14,15.3,16.4c4.3,1.3,9.1,1.6,13.5,0.9
			c2.5-0.4,5-1.1,7.3-2.2c1.7-0.8,4.2-3.5,5.9-3.8c0.4-0.1,2.5,1,3.1,1.2c1.6,0.5,3.3,0.8,5,0.9c2.3,0.2,4.6,0,6.9-0.5
			c1.3-0.3,2.6-0.7,3.9-1.2c2-0.8,1.5-0.8,3.3-0.2c2.4,0.8,4.5,2.5,7.1,3.1c8.5,2.2,19.1,0.1,24.7-7.1c3.3-4.2,3.6-9.8,3.1-14.9
			C256.8,48,246,43.1,236.7,42.8c0,0-0.1,5,0,5c7.1,0.2,14.7,2.7,18.8,8.9c3.7,5.6,1.2,10.9-4.3,14.9c-6.4,4.7-15.3,5.7-22.7,3.2
			c-2-0.7-3.6-1.9-5.5-2.7c-2.3-0.9-0.6-0.6-2.6-0.1c-1,0.2-2,0.8-3,1.1c-4.6,1.4-9.7,1.3-14.2-0.3c-2.4-0.8-2.4-0.6-4.4,0.8
			c-1.6,1.1-3.3,2-5.1,2.7c-4.1,1.6-8.6,2.2-13.1,1.9c-7-0.5-14.3-3.5-18.6-9.4c-9.5-13.1,9.8-23.4,21.7-23.1c2.5,0.1,5,0.4,7.4,1.1
			c1.8,0.5,4.8,2.4,6.3,1.9c1.9-0.5,3.8-2.4,5.8-3c2.2-0.8,4.5-1.2,6.8-1.2c4.6-0.2,9.2,1,13.1,3.5c0.7,0.5,1.5,1.4,2.3,1.7
			c1.2,0.4,2.1-0.3,3.4-0.7c2.6-0.9,5.3-1.2,8.1-1.3C236.8,47.8,236.7,42.8,236.7,42.8z"/>
	</g>
</g>
<path class="st3" d="M975.8,36.3c-4,0-7.8,0.9-11,2.4c-3.7-3.5-9.1-5.7-15.1-5.7c-5.4,0-10.3,1.8-14,4.7c-3.9-2.2-8.8-3.5-14-3.5
	c-13.3,0-24,8.4-24,18.8c0,10.4,10.8,18.8,24,18.8c7.2,0,13.7-2.5,18.1-6.4c2.9,1.4,6.3,2.2,9.8,2.2c4.1,0,7.9-1,11.1-2.8
	c3.8,3,9.1,4.8,14.9,4.8c11.7,0,21.2-7.5,21.2-16.7S987.5,36.3,975.8,36.3z"/>
<g>
	<path class="st1" d="M577.8,95.9c-3.3,0-6.9,1-10.6,2.9c-0.8-4.1-3.8-6.7-8.7-6.7c-4.4,0-9.6,2.1-14.5,5.6
		c-1.8-2.6-4.9-4.2-9.2-4.2c-10.9,0-25.2,10-32,22.4c-6.8,12.4-3.4,22.4,7.5,22.4c5.9,0,12.8-3,19-7.7c1.5,1.6,3.7,2.6,6.7,2.6
		c3.4,0,7.2-1.2,10.9-3.3c1.2,3.6,4.3,5.8,9.1,5.8c9.6,0,22.3-8.9,28.3-19.9S587.4,95.9,577.8,95.9z"/>
	<g>
		<path class="st2" d="M577.8,94.4c-4,0.2-7.7,1.4-11.3,3.1c0.7,0.3,1.5,0.6,2.2,0.9c-3.2-12.6-18-7.1-25.4-2
			c0.6,0.1,1.2,0.2,1.8,0.2c-5.6-7.2-16-4.7-23-1.1c-9.4,4.7-17.7,13-21.9,22.6c-2.8,6.4-4,15.7,2.9,19.9c8.5,5.2,20.1-0.9,27-6
			c-0.6-0.1-1.2-0.2-1.8-0.2c5.6,5.2,13.5,2.6,19.4-0.5c-0.7-0.3-1.5-0.6-2.2-0.9c6.5,15.7,27.9,1.5,34.8-6.3
			c4.7-5.3,9.4-12.8,8.6-20.2C588.2,97.7,583.6,94.6,577.8,94.4c-1.9-0.1-1.9,2.9,0,3c15.4,0.7,5,19.7-0.6,25.6
			c-5.1,5.4-23.7,18.8-28.8,6.5c-0.4-0.9-1.3-1.4-2.2-0.9c-4.6,2.4-11.3,5.2-15.8,1c-0.4-0.4-1.3-0.6-1.8-0.2
			c-5.8,4.3-16.7,10.8-24,6c-6.8-4.4-2.9-14.6,0.3-20c3.9-6.5,9.7-12.1,16.2-16c6.2-3.6,16.5-7.5,21.9-0.7c0.4,0.5,1.3,0.6,1.8,0.2
			c5.6-3.8,18.4-10.1,21,0.2c0.3,1,1.4,1.3,2.2,0.9c3.2-1.5,6.3-2.5,9.8-2.7C579.7,97.3,579.7,94.3,577.8,94.4z"/>
	</g>
</g>
<g>
	<path class="st1" d="M650.2,97c-3.3,0-6.9,1-10.6,2.9c-0.8-4.1-3.8-6.7-8.7-6.7c-4.4,0-9.6,2.1-14.5,5.6c-1.8-2.6-4.9-4.2-9.2-4.2
		c-10.9,0-25.2,10-32,22.4c-6.8,12.4-3.4,22.4,7.5,22.4c5.9,0,12.8-3,19-7.7c1.5,1.6,3.7,2.6,6.7,2.6c3.4,0,7.2-1.2,10.9-3.3
		c1.2,3.6,4.3,5.8,9.1,5.8c9.6,0,22.3-8.9,28.3-19.9S659.8,97,650.2,97z"/>
	<g>
		<path class="st2" d="M650.2,95.5c-4,0.2-7.7,1.4-11.3,3.1c0.7,0.3,1.5,0.6,2.2,0.9c-3.2-12.6-18-7.1-25.4-2
			c0.6,0.1,1.2,0.2,1.8,0.2c-5.6-7.2-16-4.7-23-1.1c-9.4,4.7-17.7,13-21.9,22.6c-2.8,6.4-4,15.7,2.9,19.9c8.5,5.2,20.1-0.9,27-6
			c-0.6-0.1-1.2-0.2-1.8-0.2c5.6,5.2,13.5,2.6,19.4-0.5c-0.7-0.3-1.5-0.6-2.2-0.9c6.5,15.7,27.9,1.5,34.8-6.3
			c4.7-5.3,9.4-12.8,8.6-20.2C660.6,98.9,656,95.8,650.2,95.5c-1.9-0.1-1.9,2.9,0,3c15.4,0.7,5,19.7-0.6,25.6
			c-5.1,5.4-23.7,18.8-28.8,6.5c-0.4-0.9-1.3-1.4-2.2-0.9c-4.6,2.4-11.3,5.2-15.8,1c-0.4-0.4-1.3-0.6-1.8-0.2
			c-5.8,4.3-16.7,10.8-24,6c-6.8-4.4-2.9-14.6,0.3-20c3.9-6.5,9.7-12.1,16.2-16c6.2-3.6,16.5-7.5,21.9-0.7c0.4,0.5,1.3,0.6,1.8,0.2
			c5.6-3.8,18.4-10.1,21,0.2c0.3,1,1.4,1.3,2.2,0.9c3.2-1.5,6.3-2.5,9.8-2.7C652.1,98.4,652.1,95.4,650.2,95.5z"/>
	</g>
</g>
<g>
	<path class="st1" d="M195.4,65.6c-3.3,0-6.7,1-9.8,2.9c-1.9-4.1-5.6-6.7-10.5-6.7c-4.4,0-9,2.1-13,5.6c-2.5-2.6-6.1-4.2-10.3-4.2
		c-10.9,0-22.4,10-25.8,22.4c-3.3,12.4,2.8,22.4,13.7,22.4c5.9,0,12-3,16.9-7.7c2,1.6,4.5,2.6,7.4,2.6c3.4,0,6.8-1.2,10-3.3
		c2.2,3.6,5.9,5.8,10.7,5.8c9.6,0,19.8-8.9,22.7-19.9C210.5,74.5,205.1,65.6,195.4,65.6z"/>
	<g>
		<path class="st2" d="M195.4,63.1c-2.6,0.1-5,0.6-7.4,1.7c-0.3,0.1-0.5,0.2-0.8,0.4c-1.2,1.3-1.9,1.2-2.2-0.4
			c-0.5-0.4-1.1-1.6-1.6-2.1c-3.1-3.3-7.8-4-12.1-3c-2.4,0.6-4.5,1.7-6.5,3c-0.4,0.3-2.5,2.1-2.7,2.1c-0.2,0-1.7-1.5-2.1-1.8
			c-3.7-2.5-8.4-2.9-12.7-1.9c-15.2,3.5-22.6,18.9-22.3,33.2c0.2,6.2,2.6,12.4,8.7,14.9c3.7,1.6,8,1.4,11.9,0.2
			c2-0.6,3.9-1.5,5.7-2.6c1.2-0.7,2.3-1.5,3.3-2.4c0.7-0.5,1.3-1.1,1.9-1.7c0.5,0.4,1,0.8,1.6,1.1c4.2,1.2,7.2,2,11.6,0.4
			c0.7-0.3,2-1.2,2.8-1.3c2.3-0.4,1-1,2.6,0.8c1.5,1.8,3.5,3,5.7,3.6c8.5,2.4,17.2-3.6,22-10.1C210.1,87.5,212.7,63.9,195.4,63.1
			c0,0-0.1,5,0,5c6,0.3,11.5,4,12.5,10.2c1.1,6.7-4.6,14.5-9.3,18.7c-5,4.4-12.4,7.5-18.9,4.9c-1.5-0.6-2.8-1.5-4-2.6
			c0.1,0.1-1.6-2.1-1.7-2.2c-0.2,0-2.3,1.4-2.8,1.6c-3.5,1.6-7.6,2.4-11.3,1.1c-1.6-0.6-2.6-1.8-3.9-1.3c-1.5,0.5-3.2,2.6-4.6,3.5
			c-3.5,2.1-7.5,3.6-11.7,3.6c-6.1,0-11.3-3.5-13.5-9.2c-2.6-7,1.8-15.2,6.3-20.5c4.3-5.1,10.5-9.4,17.4-10.1
			c2.1-0.2,4.3-0.1,6.4,0.5c1.8,0.5,3.2,2,4.9,2.6c2.1,0.7-0.8,1.4,2.3-0.2c1-0.5,1.8-1.3,2.8-1.9c2-1.2,4.3-2.1,6.6-2.4
			c3.9-0.6,7.8,0.4,10.6,3.3c0.6,0.6,1,1.6,1.6,2.1c1.4,1.2,0.2,0.9,2.2,0.4c2.9-0.8,5-1.9,8.2-2C195.6,68.1,195.4,63.1,195.4,63.1z
			"/>
	</g>
</g>
<g>
	<path class="st1" d="M268.2,66.8c-3.3,0-6.7,1-9.8,2.9c-1.9-4.1-5.6-6.7-10.5-6.7c-4.4,0-9,2.1-13,5.6c-2.5-2.6-6.1-4.2-10.3-4.2
		c-10.9,0-22.4,10-25.8,22.4c-3.3,12.4,2.8,22.4,13.7,22.4c5.9,0,12-3,16.9-7.7c2,1.6,4.5,2.6,7.4,2.6c3.4,0,6.8-1.2,10-3.3
		c2.2,3.6,5.9,5.8,10.7,5.8c9.6,0,19.8-8.9,22.7-19.9C283.2,75.7,277.8,66.8,268.2,66.8z"/>
	<g>
		<path class="st2" d="M268.2,64.3c-2.6,0.1-5,0.6-7.4,1.7c-0.3,0.1-0.5,0.2-0.8,0.4c-1.2,1.3-1.9,1.2-2.2-0.4
			c-0.5-0.4-1.1-1.6-1.6-2.1c-3.1-3.3-7.8-4-12.1-3c-2.4,0.6-4.5,1.7-6.5,3c-0.4,0.3-2.5,2.1-2.7,2.1c-0.2,0-1.7-1.5-2.1-1.8
			c-3.7-2.5-8.4-2.9-12.7-1.9c-15.2,3.5-22.6,18.9-22.3,33.2c0.2,6.2,2.6,12.4,8.7,14.9c3.7,1.6,8,1.4,11.9,0.2
			c2-0.6,3.9-1.5,5.7-2.6c1.2-0.7,2.3-1.5,3.3-2.4c0.7-0.5,1.3-1.1,1.9-1.7c0.5,0.4,1,0.8,1.6,1.1c4.2,1.2,7.2,2,11.6,0.4
			c0.7-0.3,2-1.2,2.8-1.3c2.3-0.4,1-1,2.6,0.8c1.5,1.8,3.5,3,5.7,3.6c8.5,2.4,17.2-3.6,22-10.1C282.9,88.6,285.4,65,268.2,64.3
			c0,0-0.1,5,0,5c6,0.3,11.5,4,12.5,10.2c1.1,6.7-4.6,14.5-9.3,18.7c-5,4.4-12.4,7.5-18.9,4.9c-1.5-0.6-2.8-1.5-4-2.6
			c0.1,0.1-1.6-2.1-1.7-2.2c-0.2,0-2.3,1.4-2.8,1.6c-3.5,1.6-7.6,2.4-11.3,1.1c-1.6-0.6-2.6-1.8-3.9-1.3c-1.5,0.5-3.2,2.6-4.6,3.5
			c-3.5,2.1-7.5,3.6-11.7,3.6c-6.1,0-11.3-3.5-13.5-9.2c-2.6-7,1.8-15.2,6.3-20.5c4.3-5.1,10.5-9.4,17.4-10.1
			c2.1-0.2,4.3-0.1,6.4,0.5c1.8,0.5,3.2,2,4.9,2.6c2.1,0.7-0.8,1.4,2.3-0.2c1-0.5,1.8-1.3,2.8-1.9c2-1.2,4.3-2.1,6.6-2.4
			c3.9-0.6,7.8,0.4,10.6,3.3c0.6,0.6,1,1.6,1.6,2.1c1.4,1.2,0.2,0.9,2.2,0.4c2.9-0.8,5-1.9,8.2-2C268.3,69.3,268.1,64.3,268.2,64.3z
			"/>
	</g>
</g>
<path class="st0" d="M371.3,52.4c-4,0-7.8,0.9-11,2.4c-3.7-3.5-9.1-5.7-15.1-5.7c-5.4,0-10.3,1.8-14,4.7c-3.9-2.2-8.8-3.5-14-3.5
	c-13.3,0-24,8.4-24,18.8c0,10.4,10.8,18.8,24,18.8c7.2,0,13.7-2.5,18.1-6.4c2.9,1.4,6.3,2.2,9.8,2.2c4.1,0,7.9-1,11.1-2.8
	c3.8,3,9.1,4.8,14.9,4.8c11.7,0,21.2-7.5,21.2-16.7S383,52.4,371.3,52.4z"/>
</svg>
