<?xml version="1.0" encoding="utf-8"?>
<!-- Generator: Adobe Illustrator 23.0.1, SVG Export Plug-In . SVG Version: 6.00 Build 0)  -->
<svg version="1.1" id="Layer_1" xmlns="http://www.w3.org/2000/svg" xmlns:xlink="http://www.w3.org/1999/xlink" x="0px" y="0px"
	 viewBox="0 0 1366 768" style="enable-background:new 0 0 1366 768;" xml:space="preserve">
<style type="text/css">
	.st0{fill:#FFFFFF;stroke:#FFFFFF;stroke-miterlimit:10;}
	.st1{fill:#FFFFFF;stroke:#3650FF;stroke-miterlimit:10;}
	.st2{fill:#EE3C00;stroke:#EC2E00;stroke-width:9;stroke-miterlimit:10;}
	.st3{fill:#000FD3;stroke:#FF452E;stroke-width:9;stroke-miterlimit:10;}
	.st4{fill:none;stroke:#FF452E;stroke-width:9;stroke-miterlimit:10;}
	.st5{fill:none;stroke:#000000;stroke-width:9;stroke-miterlimit:10;}
</style>
<g>
	<path class="st0" d="M1268.6,153.3c0.8,2.9-0.7,6.6-4.6,6.6c-3.9,0-5.4-3.7-4.6-6.6h-617v0.7c3.7,3.1,7.1,6.5,10,10.4
		c2.5,3.4-1,7.1-4.3,7.5c-1.9,0.2-3.8,0.3-5.7,0.2v385.4h684.3V153.3H1268.6z"/>
	<path class="st1" d="M642.7,153.7h616.6c0.1-0.3,0.1-0.6,0.2-0.8H642v0.8c0.2,0.2,0.5,0.4,0.7,0.6V153.7z"/>
	<path class="st1" d="M1268.5,152.9c0.1,0.3,0.2,0.6,0.2,0.8h57.6V557H642.7V172.1c-0.2,0-0.5,0-0.7,0v385.8h685v-405H1268.5z"/>
</g>
<path class="st2" d="M984.5,395.9C624,152.6,624,153.6,624,153.6L984.5,395.9z"/>
<path class="st3" d="M1326.3,162.2C984.5,395.9,984.5,395.9,984.5,395.9"/>
<line class="st4" x1="641.8" y1="152.4" x2="642.6" y2="556.5"/>
<line class="st4" x1="1327.2" y1="157.5" x2="1326.8" y2="553.2"/>
<line class="st5" x1="405.5" y1="479.1" x2="405.5" y2="479.1"/>
</svg>
