<?xml version="1.0" encoding="utf-8"?>
<!-- Generator: Adobe Illustrator 23.0.1, SVG Export Plug-In . SVG Version: 6.00 Build 0)  -->
<svg version="1.1" id="Layer_1" xmlns="http://www.w3.org/2000/svg" xmlns:xlink="http://www.w3.org/1999/xlink" x="0px" y="0px"
	 viewBox="0 0 1366 500" style="enable-background:new 0 0 1366 500;" xml:space="preserve">
<style type="text/css">
	.st0{fill:#F2F2F2;}
	.st1{fill:#FFFFFF;stroke:#000000;stroke-miterlimit:10;}
	.st2{fill:#595050;stroke:#000000;stroke-miterlimit:10;}
	.st3{fill:#04FF0A;stroke:#000000;stroke-miterlimit:10;}
	.st4{fill:#00FF00;}
	.st5{fill:#4B00EA;}
	.st6{fill:#E9FFFA;}
	.st7{fill:#FFFFFF;}
	.st8{fill:#E9FFFA;stroke:#000000;stroke-miterlimit:10;}
	.st9{fill:#FFFB04;stroke:#E9FF6B;stroke-miterlimit:10;}
	.st10{fill:#CCDED8;}
	.st11{opacity:0.71;}
	.st12{fill:url(#SVGID_1_);}
	.st13{fill:url(#SVGID_2_);}
	.st14{fill:url(#SVGID_3_);}
	.st15{fill:url(#SVGID_4_);}
	.st16{fill:#E7F0ED;}
	.st17{fill:none;stroke:#FFFFFF;stroke-miterlimit:10;}
	.st18{fill:#9100D2;stroke:#3631FF;stroke-width:2;stroke-miterlimit:10;}
	.st19{stroke:#000000;stroke-width:0.5;stroke-miterlimit:10;}
	.st20{font-family:'MyriadPro-Regular';}
	.st21{font-size:15.528px;}
	.st22{font-family:'ArialMT';}
	.st23{font-size:79.7746px;}
	.st24{fill:none;stroke:#2550FF;stroke-miterlimit:10;}
	.st25{font-size:25.1166px;}
	.st26{fill:#D0FFFE;stroke:#2550FF;stroke-miterlimit:10;}
	.st27{font-size:8.3104px;}
	.st28{fill:#000AC6;stroke:#FFFFFF;stroke-miterlimit:10;}
	.st29{fill:#000202;stroke:#FFFFFF;stroke-miterlimit:10;}
	.st30{fill:#000102;stroke:#FFFFFF;stroke-miterlimit:10;}
	.st31{fill:#6649FF;stroke:#FFFFFF;stroke-miterlimit:10;}
	.st32{fill:#FFFFFF;stroke:#01000D;stroke-miterlimit:10;}
	.st33{fill:#000202;stroke:#FFFFFF;stroke-width:0.8683;stroke-miterlimit:10;}
	.st34{fill:#6649FF;stroke:#FFFFFF;stroke-width:0.8683;stroke-miterlimit:10;}
	.st35{fill:#ECE7F0;stroke:#FFFFFF;stroke-width:3;stroke-miterlimit:10;}
	.st36{fill:#ECE7F0;stroke:#FFFFFF;stroke-miterlimit:10;}
	.st37{fill:#FFFFFF;stroke:#43FFEC;stroke-miterlimit:10;}
	.st38{fill:#43FFEC;}
	.st39{fill:#FFFFFF;stroke:#38F1FF;stroke-miterlimit:10;}
	.st40{fill:#39B54A;}
	.st41{fill:#026A00;}
	.st42{fill:#1B770C;}
	.st43{fill:url(#SVGID_5_);}
</style>
<g>
	<path class="st0" d="M415.4,472.9c-48.2,0-99-3-146.7-8.7c-20.4-2.4-31.5-4.3-42.1-6c-12.3-2.1-24-4-48.7-6.4
		c-38-3.7-76.6-5.6-114.7-5.6c-20,0-40.2,0.5-60.1,1.5V294c7.3-5.4,15-8.7,23-9.5c1.5-0.2,2.9-0.2,4.4-0.2c5.7,0,10.5,1.3,15.5,2.7
		c5.8,1.6,11.7,3.2,19.9,3.2h0.1c6.2,0,8.9-1,13.1-2.4c3.3-1.1,7.5-2.6,15-4.1c11.8-2.4,24.9-3.7,38.7-3.7c18.1,0,32.2,2.1,36,2.8
		c1.4,0.2,2.7,0.5,4,0.7c5,0.9,9.4,1.7,15.3,1.7c0.9,0,1.8,0,2.8-0.1c15-0.6,26.3-5.8,30.6-7.8c0.7-0.3,1.2-0.5,1.5-0.7
		c24-9.1,59.9-13.6,109.6-13.6c61.6,0,131.6,6.9,187.9,12.5c17,1.7,33.1,3.3,46.8,4.5c39.6,3.4,80.2,5.1,120.7,5.1
		c68.3,0,124.1-4.7,169-8.5c55-4.6,85.2-9.6,111.9-13.9c25.4-4.1,47.4-7.7,83.8-9.6c14.5-0.8,29.1-1.1,43.6-1.1
		c88,0,178.8,14.2,269.9,42.2v153.7c-64.2,9.7-128.9,14.6-192.4,14.6l-2.4,0c-45.6-0.1-71.1-2.7-98.2-5.4
		c-28.7-2.9-61.2-6.2-123.5-7.1c-9.6-0.1-19-0.2-28-0.2c-46.5,0-74.5,1.9-94.9,3.3c-11.5,0.8-20.5,1.4-29,1.4
		c-13.2,0-24.3-1.5-39.7-5.3c-0.9-0.2-1.9-0.5-2.9-0.7c-13.6-3.4-38.8-9.8-71.1-9.8c-13.5,0-27,1.2-40,3.4
		c-14.7,2.6-25.3,5.9-31,7.7l-1,0.3C564.9,464.8,495.1,472.9,415.4,472.9z"/>
	<path d="M1096.1,252.5c87.8,0,178.5,14.1,269.4,42v152.9c-64,9.7-128.6,14.6-191.8,14.6l-2.4,0c-45.6-0.1-71.1-2.7-98.1-5.4
		c-28.7-2.9-61.2-6.2-123.5-7.1c-9.6-0.1-19-0.2-28-0.2c-46.6,0-74.5,1.9-95,3.3c-11.5,0.8-20.5,1.4-28.9,1.4
		c-13.1,0-24.2-1.5-39.6-5.3c-0.9-0.2-1.9-0.5-2.9-0.7c-13.6-3.4-38.8-9.8-71.2-9.8c-13.6,0-27.1,1.2-40.1,3.4
		c-14.7,2.6-25.3,5.9-31,7.7l-1,0.3c-47,14.7-116.7,22.9-196.4,22.9c-48.2,0-98.9-3-146.7-8.7c-20.4-2.4-31.4-4.3-42.1-6
		c-12.3-2.1-24-4-48.8-6.4c-38-3.7-76.6-5.6-114.7-5.6c-19.8,0-39.8,0.5-59.6,1.5v-153c7.1-5.3,14.7-8.4,22.6-9.3
		c1.4-0.2,2.9-0.2,4.3-0.2c5.7,0,10.4,1.3,15.4,2.6c5.8,1.6,11.8,3.2,20,3.2l0.1,0c6.3,0,9-1,13.3-2.4c3.3-1.1,7.4-2.6,14.9-4.1
		c11.8-2.4,24.8-3.6,38.6-3.6c18.1,0,32.1,2.1,35.9,2.8c1.4,0.2,2.7,0.5,4,0.7c5.1,0.9,9.4,1.7,15.4,1.7c0.9,0,1.9,0,2.8-0.1
		c15.1-0.6,26.5-5.8,30.8-7.8c0.7-0.3,1.2-0.5,1.5-0.7c24-9.1,59.8-13.5,109.4-13.5c61.6,0,131.6,6.9,187.8,12.5
		c17,1.7,33.1,3.3,46.8,4.5c39.7,3.4,80.3,5.1,120.7,5.1c68.3,0,124.2-4.7,169-8.5c55-4.6,85.2-9.6,111.9-13.9
		c25.4-4.1,47.4-7.7,83.8-9.6C1067,252.8,1081.6,252.5,1096.1,252.5L1096.1,252.5 M1096.1,251.5c-15.6,0-30.2,0.4-43.6,1.1
		c-73.7,3.9-87.1,14.4-195.7,23.5c-43.9,3.7-100.6,8.5-168.9,8.5c-36.9,0-77.2-1.4-120.6-5.1c-58.3-5-154-17-234.7-17
		c-43.8,0-83.2,3.5-109.8,13.6c-2.4,0.9-14.6,7.7-32,8.4c-1,0-1.9,0.1-2.8,0.1c-7.3,0-12.3-1.2-19.2-2.4c-2.7-0.5-17.1-2.8-36.1-2.8
		c-11.7,0-25.2,0.9-38.8,3.7c-17,3.5-17,6.5-28,6.5c0,0-0.1,0-0.1,0c-15.3,0-23.1-5.8-35.4-5.8c-1.4,0-2.9,0.1-4.4,0.2
		c-10.4,1.2-18.4,5.9-23.5,9.8c0,51.5,0,103,0,154.5c16.8-0.9,37.2-1.6,60.6-1.6c32.8,0,71.6,1.4,114.6,5.6
		c45.3,4.4,45.9,7.1,90.9,12.5c47.9,5.7,98.3,8.7,146.8,8.7c75.7,0,146.9-7.3,196.7-22.9c5.3-1.6,16.3-5.3,32-8
		c14.1-2.5,27.5-3.4,39.9-3.4c34.8,0,61.8,7.5,73.9,10.5c16.2,4,27.4,5.3,39.9,5.3c23.4,0,51-4.7,123.9-4.7c8.7,0,18,0.1,28,0.2
		c121,1.8,127.8,12.3,221.7,12.5c0.8,0,1.6,0,2.4,0c49.4,0,115-2.9,192.8-14.7c0-51.5,0-103,0-154.5
		C1257.6,260.3,1165.9,251.5,1096.1,251.5L1096.1,251.5z"/>
</g>
<path class="st1" d="M117.8,366.6"/>
<rect x="637.6" y="-313.6" transform="matrix(-1.836970e-16 1 -1 -1.836970e-16 1053.3734 -314.6266)" class="st2" width="92.8" height="1366"/>
<rect x="1.5" y="331.4" class="st2" width="1365.5" height="73.1"/>
<path class="st3" d="M670,386.5"/>
<path class="st3" d="M667,412.8"/>
<g>
	<path class="st4" d="M1359.1,316.1c-105.4-8.9-211.2-13.5-314.2-13.7c-2.3,0-4.5,0-6.8,0c-65.7,0-116.6,2-165.8,3.9
		c-50.9,2-103.6,4-173.7,4c-5.5,0-11.1,0-16.9,0c-89.8-0.4-179.9-3.9-268-10.4c-79,7.5-141.3,11.3-185.1,11.3c-12.7,0-24.2-0.3-34-1
		c-1.2-0.1-2.6-0.2-4.2-0.3c-9.1-0.6-22.7-1.6-40.2-1.6c-8.1,0-16.3,0.2-24.3,0.6c-10.9,0.6-18.8,1.3-27.2,2.1
		c-9.2,0.9-18.7,1.8-32.2,2.4c-8.4,0.4-16.9,0.6-25.4,0.6c-11.1,0-22.4-0.3-33.5-1l-6.1-0.4v-94.7l1365,0.3l-0.6,98.2L1359.1,316.1z
		"/>
	<path class="st5" d="M2,218.6l1364,0.3l-0.6,97.2l-6.3-0.5c-105.5-8.9-211.2-13.5-314.3-13.7c-2.3,0-4.5,0-6.8,0
		c-65.7,0-116.6,2-165.9,3.9c-50.9,2-103.5,4-173.6,4c-5.6,0-11.3,0-16.9,0c-89.7-0.4-179.9-3.9-268-10.4l-0.1,0l-0.1,0
		c-78.9,7.5-141.1,11.3-185,11.3c-12.7,0-24.1-0.3-34-1c-1.2-0.1-2.6-0.2-4.2-0.3c-9.1-0.6-22.7-1.6-40.3-1.6
		c-8.1,0-16.3,0.2-24.3,0.6c-10.9,0.6-18.8,1.3-27.2,2.1c-9.2,0.9-18.7,1.8-32.2,2.4c-8.4,0.4-16.9,0.6-25.3,0.6
		c-11.1,0-22.4-0.3-33.5-1L2,312.3V218.6 M1,217.6v95.7l6.6,0.4c11.1,0.7,22.4,1,33.6,1c8.5,0,17-0.2,25.4-0.6
		c13.6-0.6,23.1-1.5,32.3-2.4c8.4-0.8,16.3-1.6,27.1-2.1c8-0.4,16.2-0.6,24.3-0.6c17.5,0,31.1,0.9,40.2,1.6c1.5,0.1,2.9,0.2,4.2,0.3
		c9.8,0.6,21.3,1,34,1c43.9,0,106.1-3.8,185.1-11.3c88.1,6.5,178.3,10,268.1,10.4c5.7,0,11.4,0,16.9,0c70.1,0,122.7-2.1,173.6-4
		c49.2-1.9,100.1-3.9,165.8-3.9c2.2,0,4.5,0,6.8,0c103,0.2,208.7,4.8,314.2,13.7l7.4,0.6l0.6-99.3L1,217.6L1,217.6z"/>
</g>
<g>
	<path class="st4" d="M1366,305.6c-106.5-8.6-213.3-13.1-317.4-13.3c-2.3,0-4.6,0-6.9,0c-66.5,0-118,1.9-167.8,3.8
		c-51.4,1.9-104.5,3.9-175.2,3.9c-5.6,0-11.2,0-17,0c-90.7-0.4-181.8-3.8-270.9-10.1c-79.9,7.3-142.7,11.1-187,11.1
		c-12.7,0-24.2-0.3-34-0.9c-1.3-0.1-2.7-0.2-4.2-0.3c-9.2-0.6-23.2-1.6-41-1.6c-8.3,0-16.6,0.2-24.8,0.6
		c-11.1,0.5-19.5,1.3-27.7,2.1c-9.2,0.9-18.7,1.8-32.3,2.3c-8.4,0.4-16.9,0.5-25.4,0.5c-11,0-22.1-0.3-33.1-0.9v-76.2l1365,0.3
		L1366,305.6z"/>
	<path class="st5" d="M2,227.2l1364,0.3l-0.2,38.8l-0.2,38.7c-106.4-8.6-213-13.1-316.9-13.3c-2.3,0-4.6,0-6.9,0
		c-66.5,0-118,1.9-167.8,3.8c-51.4,1.9-104.5,3.9-175.2,3.9c-5.6,0-11.3,0-17,0c-90.7-0.4-181.8-3.8-270.8-10.1l-0.1,0l-0.1,0
		c-79.8,7.3-142.6,11.1-186.8,11.1c-12.7,0-24.1-0.3-33.9-0.9c-1.3-0.1-2.7-0.2-4.2-0.3c-9.2-0.6-23.2-1.6-41.1-1.6
		c-8.3,0-16.6,0.2-24.8,0.6c-11.1,0.5-19.5,1.3-27.7,2.1c-9.2,0.9-18.7,1.8-32.3,2.3c-8.4,0.4-16.9,0.5-25.4,0.5
		c-10.8,0-21.8-0.3-32.6-0.9V227.2 M1,226.2c0,25.7,0,51.4,0,77.1c8.4,0.5,19.9,1,33.6,1c7.8,0,16.3-0.2,25.4-0.5
		c25.7-1.1,36.5-3.3,60-4.5c8.9-0.4,17.2-0.6,24.8-0.6c20.8,0,36.5,1.3,45.2,1.8c9.1,0.6,20.2,0.9,34,0.9
		c37.8,0,95.7-2.7,186.9-11.1c61.7,4.4,155.7,9.6,270.9,10.1c5.8,0,11.5,0,17,0c140,0,208.6-7.7,343-7.7c2.3,0,4.6,0,6.9,0
		c73.7,0.1,183.2,2.4,317.9,13.4c0.2-26.6,0.3-53.1,0.5-79.7C911.7,226.4,456.3,226.3,1,226.2L1,226.2z"/>
</g>
<g>
	<rect x="2" y="0.5" class="st6" width="1364" height="226.7"/>
	<path class="st7" d="M1365.5,1v225.7H2.5V1H1365.5 M1366.5,0H1.5v227.7h1365V0L1366.5,0z"/>
</g>
<path class="st8" d="M637.1,101.7"/>
<path class="st8" d="M985.6,66.4"/>
<path class="st8" d="M843.8,104.9"/>
<path class="st8" d="M1183.3,95.3"/>
<path class="st8" d="M1183.3,108.7"/>
<path class="st8" d="M633.1,19.6"/>
<ellipse class="st9" cx="632.4" cy="64.9" rx="44.1" ry="32.4"/>
<g>
	<path class="st10" d="M10,171.4c21.5,4.7,34.4-1.7,40.9-6.3c5.2-3.7,11.3-11.3,23.6-26.4c16.6-20.6,17.4-24.3,24-27
		c11.5-4.6,14.8,4.4,30,0c9.7-2.8,9.6-6.9,23-11c12-3.8,19.3-2.7,21-2.5c3.9,0.6,6.8,1.7,16,6.1c12.3,5.9,19.5,9.9,24,12.3
		c13.5,6.9,22.5,8.2,32,11c12.9,3.8,31.4,11.7,54.4,29.9"/>
	<g>
		<path class="st7" d="M9.6,172.8c11.5,2.4,23.5,2.6,34.4-2.2c7-3,12.2-7.7,17.1-13.4c8.8-10.1,17.1-20.7,25.2-31.3
			c3.7-4.8,7.2-10.8,13.2-13c5.2-1.9,9.5-0.4,14.6,0.8c5,1.1,9.9,0.9,14.8-0.5c4.6-1.3,8.2-3.8,12.2-6.3c6.2-3.8,13.4-6,20.5-7
			c10.3-1.5,17.8,1.8,27,6.2c10.6,5.1,20.8,11.4,31.7,15.8c11.4,4.6,23.6,6.6,35,11.2c15.4,6.2,29.5,15.4,42.4,25.6
			c1.5,1.2,3.6-0.9,2.1-2.1c-11.2-8.8-23.1-16.9-36.1-23c-9.3-4.4-19-7.3-28.9-10c-12.1-3.3-22.7-8.8-33.7-14.5
			c-9-4.6-18.8-11-29-12.4c-10.3-1.4-22.2,1.7-31.2,6.8c-4.6,2.6-8.5,5.6-13.7,7c-6.1,1.6-11.1,0.5-17-0.9
			c-6.3-1.5-12.9-0.3-17.8,4.2c-6.9,6.3-12,15.1-17.8,22.4c-7.4,9.2-14.7,20.7-24.5,27.7c-11.5,8.3-26.3,8.9-39.8,6.1
			C8.5,169.5,7.7,172.4,9.6,172.8L9.6,172.8z"/>
	</g>
</g>
<g class="st11">
	<linearGradient id="SVGID_1_" gradientUnits="userSpaceOnUse" x1="296.6847" y1="151.1243" x2="916.1724" y2="151.1243">
		<stop  offset="0.5865" style="stop-color:#EDECE9"/>
		<stop  offset="1" style="stop-color:#000000"/>
	</linearGradient>
	<path class="st12" d="M296.7,156.7c26.1-7.7,46.6-16.2,60.3-22.4c30.9-14,47.2-25.4,62-16c10.2,6.5,8.5,15.9,18.9,22.8
		c16.2,10.9,31.5-4.5,56.1-10.5c35.7-8.7,45.1,13.3,95,16c29.9,1.6,50.2-5.1,65-8.6c99.9-23.6,263.2,23,262.2,38.5
		c-0.6,8.5-51.3,14.5-244.2,8.1"/>
	<g>
		<path class="st7" d="M297.5,159.6c19.8-5.9,39.1-12.9,58-21.3c9.9-4.4,19.7-9.3,29.6-13.8c7.1-3.2,15.1-6.9,23.1-6.5
			c9.4,0.4,14.4,7.4,18.6,14.9c4.1,7.3,10.6,13.3,19.2,14.7c7.8,1.3,15.5-1.5,22.7-4.4c9.5-3.9,18.8-8.1,28.8-10.2
			c14.5-3,27.3,0.4,40.9,5.4c17.2,6.3,34.3,10.6,52.7,11.4c19.7,0.8,38.7-2.5,57.8-7.3c16-4,32.2-6.4,48.7-7.4
			c36.3-2.1,72.9,1.3,108.7,7.5c28.9,5,58.2,11.5,85.6,22.1c6.7,2.6,14.7,5.4,20.1,10.3c0.9,0.8,0.7,1.3,1.4,1.8
			c-0.1-0.1-0.1-0.5-0.1-0.4c0-0.5,0,0-0.3,0.2c-2.5,1.3-4.5,2-8,2.8c-5.5,1.2-11,1.9-16.6,2.4c-21.3,2.1-42.9,2.4-64.3,2.6
			c-38,0.3-76.1-0.4-114.1-1.4c-12.6-0.3-25.3-0.7-37.9-1.1c-3.9-0.1-3.9,5.9,0,6c44.3,1.5,88.5,2.6,132.8,2.7
			c25.1,0,50.3-0.1,75.3-2c10.7-0.8,22.7-1.1,32.8-5.3c2.4-1,5.2-2.5,6-5.2c1.4-4.8-3.9-8.4-7.4-10.5c-8-5-17.3-8.3-26.2-11.4
			c-13.7-4.7-27.6-8.5-41.7-11.9c-35.2-8.3-71.3-13.7-107.5-15.2c-18.6-0.8-37.2-0.5-55.7,1.6c-16.6,1.9-32.4,6.4-48.7,9.8
			c-22,4.6-45.1,5-67.1,0.1C550.1,137,536.6,130,522,127c-17.1-3.5-33.4,1.4-49.2,8c-8,3.4-17.5,8.5-26.5,6.7
			c-10.8-2.2-13.4-12-19.2-19.7c-10.5-13.9-27.1-10.4-40.9-4.5c-19.2,8.1-37.5,17.8-57,25.2c-11,4.1-22.1,7.8-33.3,11.2
			C292.2,154.9,293.8,160.7,297.5,159.6L297.5,159.6z"/>
	</g>
</g>
<g>
	<g>
		<path d="M913.2,177.3c1.9,0,1.9-3,0-3C911.2,174.3,911.2,177.3,913.2,177.3L913.2,177.3z"/>
	</g>
</g>
<g>
	<path class="st10" d="M924.3,88.3c24.6-2,49.1-3.9,73.7-5.9c25-2,52.7-3.6,72.6,5.7c6.2,2.9,11.3,6.7,17.7,9.4
		c11.8,4.8,26.7,5.3,40.7,6.8c23.4,2.6,45.5,8.5,66.7,15.1c8.1,2.5,17.1,5.1,26,3.5"/>
	<g>
		<path class="st7" d="M924.3,89.8c21.9-1.8,43.8-3.5,65.7-5.3c19.6-1.6,39.6-3.7,59.1-0.9c9.5,1.4,18.3,4.2,26.6,8.9
			c7.8,4.4,15.2,8.1,24,9.8c9.1,1.8,18.3,2.3,27.5,3.3c10.7,1.1,21.4,3,31.9,5.3c11,2.5,21.9,5.5,32.7,8.8c9.9,3,19.7,6.2,30.2,4.6
			c1.9-0.3,1.1-3.2-0.8-2.9c-10.8,1.6-21.1-2.3-31.2-5.4c-9.7-2.9-19.4-5.6-29.2-7.8c-9.3-2.1-18.6-3.8-28.1-5
			c-10.2-1.3-20.5-1.7-30.6-3.5c-9.9-1.8-17.8-5.9-26.4-10.7c-7.1-3.9-14.7-6.5-22.6-7.9c-18.2-3.2-36.9-1.8-55.2-0.4
			c-24.6,1.9-49.1,3.9-73.7,5.9C922.4,86.9,922.4,89.9,924.3,89.8L924.3,89.8z"/>
	</g>
</g>
<g>
	<linearGradient id="SVGID_2_" gradientUnits="userSpaceOnUse" x1="1151" y1="88.379" x2="1356.5" y2="88.379">
		<stop  offset="0.7202" style="stop-color:#EFEEEB"/>
		<stop  offset="1" style="stop-color:#000000"/>
	</linearGradient>
	<path class="st13" d="M1151,130c4.8-13.3,12.5-29.3,23.6-31.3c9.8-1.8,13.4,8.9,23.6,11.5c21,5.4,33.6-32.2,59.9-48.4
		c13.2-8.1,48.2-30.5,66.4,2.3c32,58,32,58,32,58v7.4"/>
	<g>
		<path class="st7" d="M1152.4,130.4c3.6-9.7,12.8-34.9,27.4-29.9c5.5,1.9,9.2,7.4,14.5,9.9c3.8,1.8,8,2.3,12.1,1.3
			c9.3-2.3,16.2-11,22-18c8.4-10,16.4-20.8,27.1-28.4c14.7-10.5,38.5-24,56.2-13.2c6.3,3.8,9.9,9.9,13.4,16.1
			c3.9,7.1,7.9,14.3,11.8,21.4c4.4,7.9,8.8,15.8,13.1,23.8c1.6,2.9,3.5,5.8,4.8,8.8c0.1,0.2,0.3,0.4,0.3,0.6
			c-0.4-1.2-0.2,0.2-0.2,0.8c-0.1,1.9,0,3.9,0,5.8c0,1.9,3,1.9,3,0c0-2.7,0.5-5.9-0.4-8.4c-0.8-2.1-2.3-4.2-3.4-6.1
			c-4.1-7.4-8.2-14.8-12.2-22.2c-3.7-6.8-7.5-13.6-11.2-20.3c-3.7-6.7-7-13.8-12.6-19.1c-16.5-15.4-39.9-5.3-56.4,4.6
			c-10.6,6.4-19.2,14.4-27.2,23.8c-7.4,8.7-14.6,20.5-25.1,25.7c-7,3.5-13.6,1.1-19.4-3.5c-4.6-3.7-9-7.8-15.4-6.8
			c-14,2.2-20.9,21-25,32.4C1148.9,131.4,1151.8,132.2,1152.4,130.4L1152.4,130.4z"/>
	</g>
</g>
<g>
	<linearGradient id="SVGID_3_" gradientUnits="userSpaceOnUse" x1="475.979" y1="102.5144" x2="815.2605" y2="102.5144">
		<stop  offset="0.5866" style="stop-color:#ECEBE8"/>
		<stop  offset="1" style="stop-color:#000000"/>
	</linearGradient>
	<path class="st14" d="M476,144c7.2-1.4,18.8-4.2,32.3-10.6c46.2-22.1,62.3-62.2,85.2-54.8c12.5,4,12.6,17.5,27,19.6
		c12.3,1.9,20.3-6.8,35.7-16.2c0,0,16.4-10.1,49.3-19.4c10.5-3,46.4-8.7,109.8,65.1"/>
	<g>
		<path class="st7" d="M477.2,148.3c17.8-3.4,34.8-10.5,50-20.5c13.3-8.8,24.8-19.7,36.4-30.5c6.5-6,15.4-15.8,25.1-15.1
			c6.4,0.4,10.3,5.1,14,9.6c4.4,5.4,9.5,9.5,16.5,10.7c15.5,2.6,27.4-9.8,39.6-16.9c9.6-5.6,20.2-9.6,30.6-13.3
			c6.3-2.2,12.6-4.4,19.1-5.9c2.7-0.6,2.6-0.6,5.1-0.7c6.6-0.4,12.6,0.6,18.9,2.6c12,3.7,22.9,10.4,33,17.8
			c17.4,12.8,32.5,28.5,46.5,44.8c3.8,4.4,10.1-2,6.4-6.4c-20.8-24.1-45-49-74.8-61.7c-12.1-5.1-25.6-8-38.5-4.7
			c-15,3.8-29.9,9.4-43.9,16.2c-10.3,5-18.9,13-29.2,17.7c-7.3,3.3-15,2.3-20.5-3.6c-4.6-5-8.1-10.4-14.6-13.2
			c-10.2-4.4-20.2-0.2-28.5,6.1c-13,9.9-23.8,22.3-36.7,32.3c-16.8,12.9-36.1,22.1-57,26.1C469.1,140.7,471.5,149.4,477.2,148.3
			L477.2,148.3z"/>
	</g>
</g>
<g>
	<linearGradient id="SVGID_4_" gradientUnits="userSpaceOnUse" x1="746.2324" y1="88.7189" x2="1146.7052" y2="88.7189">
		<stop  offset="0.4089" style="stop-color:#EFEEEB"/>
		<stop  offset="1" style="stop-color:#000000"/>
	</linearGradient>
	<path class="st15" d="M746.2,139.2c12.4,0.9,24.8-2.7,34.5-7.8c2.9-1.6,5.4-3.1,7.7-4.7c7.6-5.2,13.2-10.3,16.5-13.6
		c19-18.9,34.2-44.4,59.6-61.6c8-5.4,18.5-11.1,31.8-12.5c0,0,5.4-1.9,10.6-0.2c46.2,15.5,70.5,27.4,70.5,27.4
		c50.6,34.7,62.7,62.6,80,55.2c11.2-4.8,10.3-18.2,22.4-25.4c19.1-11.5,46,7.1,66.8,26"/>
	<g>
		<path class="st7" d="M746.2,143.7c20.9,1.1,39.6-8.1,55.3-21.3c13.5-11.5,24-26,35.6-39.3c12.3-14.1,26.4-28.3,44-35.5
			c7.8-3.2,18.3-6.3,26.6-3.7c9.9,3.2,19.7,6.8,29.4,10.5c11.4,4.3,22.7,8.8,33.7,13.8c10.8,4.9,20.1,13.2,29.2,20.8
			c11.2,9.3,21.3,19.7,32.5,28.9c6.4,5.3,13.9,10.7,22.7,9.1c16.9-3,16.5-25.2,32.6-29.2c9.5-2.4,19.5,1.9,27.6,6.4
			c10.3,5.8,19.5,13.3,28.2,21.2c4.3,3.9,10.7-2.5,6.4-6.4c-13.8-12.5-30.3-26.5-49.2-30.1c-7.7-1.5-15.6-0.9-22.5,3
			c-7.2,4.1-10.9,10.8-14.9,17.7c-5.3,9.2-12.1,10.7-20.4,5.1c-10.5-7.1-19.2-16.9-28.7-25.3c-7.4-6.5-15-12.7-22.9-18.6
			c-4.2-3.1-8.4-6.7-13.1-9c-8.8-4.4-18.1-8-27.2-11.6c-8.4-3.3-16.9-6.5-25.4-9.5c-9.3-3.3-18.9-8.2-28.9-6.3
			c-8.7,1.7-16.8,3.6-24.8,7.6c-8.2,4.1-15.6,9.7-22.5,15.7c-31.5,27.5-54.5,79.7-103.2,77.1C740.4,134.4,740.5,143.4,746.2,143.7
			L746.2,143.7z"/>
	</g>
</g>
<g>
	<path class="st10" d="M1157.7,122.7c8.3,2.2,16.5,4.5,24.8,6.7c10.5,2.8,21.1,5.7,32.4,6.6"/>
	<g>
		<path class="st7" d="M1157.3,124.2c18.9,5.1,38,11.6,57.6,13.4c1.9,0.2,1.9-2.8,0-3c-19.3-1.8-38.2-8.2-56.8-13.3
			C1156.2,120.8,1155.4,123.7,1157.3,124.2L1157.3,124.2z"/>
	</g>
</g>
<g>
	<path class="st16" d="M373,186.3c19.7,0.9,40.4,1.7,58.5-3.4c6.4-1.8,12.3-4.3,18.4-6.5c9.1-3.3,18.9-5.8,28.9-7.7"/>
	<g>
		<path class="st7" d="M373,187.8c17.9,0.8,36.2,1.7,53.8-2.2c8.7-1.9,16.9-5.5,25.3-8.4c8.9-3.1,18-5.3,27.2-7.1
			c1.9-0.4,1.1-3.2-0.8-2.9c-9.2,1.7-18.3,4-27.2,7.1c-7.8,2.7-15.4,6-23.5,8c-17.8,4.3-36.5,3.3-54.7,2.5
			C371.1,184.7,371.1,187.7,373,187.8L373,187.8z"/>
	</g>
</g>
<g>
	<line class="st17" x1="2" y1="376.2" x2="79.9" y2="376.2"/>
</g>
<g>
	<line class="st17" x1="341" y1="376.2" x2="418.9" y2="376.2"/>
</g>
<g>
	<line class="st17" x1="154.3" y1="376.2" x2="232.2" y2="376.2"/>
</g>
<g>
	<line class="st17" x1="901.2" y1="376.2" x2="979.1" y2="376.2"/>
</g>
<g>
	<line class="st17" x1="719.4" y1="376.2" x2="797.3" y2="376.2"/>
</g>
<g>
	<line class="st17" x1="534.7" y1="376.2" x2="612.6" y2="376.2"/>
</g>
<g>
	<line class="st17" x1="1287.6" y1="376.2" x2="1365.5" y2="376.2"/>
</g>
<g>
	<line class="st17" x1="1107.9" y1="376.2" x2="1185.8" y2="376.2"/>
</g>
<g>
	<g>
		<path class="st18" d="M116.1,133.1c-0.4,1.4-2.4,7.3-3,8.8H76V140c6.5-0.5,6.9-0.7,6.9-5.1v-19.7c0-4.4-0.9-4.7-5.7-5v-1.9h23.2
			c7.5,0,10-0.1,11-0.1c0.1,0.9,0.4,5.2,0.7,8.4l-2.8,0.3c-0.6-1.8-1.9-3.9-3.1-4.8c-1.3-1-2.2-1.3-5.9-1.3h-4.6c-2.7,0-3,0.1-3,1.9
			v10.8h7c4,0,4.7-0.8,5.8-4.4h2.8v11.5h-2.8c-1.1-3.8-1.7-4.4-5.9-4.4h-6.9v8.9c0,3.6,0.1,4.6,4.6,4.7h5.1c4,0,5.1-0.4,6.6-1.8
			c1.8-1.5,3.2-3.4,4.4-5.2L116.1,133.1z"/>
		<path class="st18" d="M141.2,141.8v-1.9c4.9-0.5,4.6-1.3,3.4-2.9c-0.7-0.9-2.2-2.7-7.4-9.1c-3.3,3.7-6.4,7-7.7,8.8
			c-1.6,2.1-1.3,2.7,3.7,3.2v1.9h-17.8v-1.9c4-0.3,6.6-1.1,8.6-2.9c2.6-2.3,7.1-6.8,11.2-11.2c-3.4-4.1-6.4-7.7-10-11.9
			c-1.9-2.3-3.5-3.2-8.9-3.7v-1.9h22.3v1.9c-4.3,0.4-4.5,0.9-3.5,2.4c1.1,1.6,3.4,4.4,6.4,7.8c2.1-2.1,4.8-5.2,6.5-7.3
			c1.4-1.8,0.8-2.3-3.6-2.9v-1.9h17.3v1.9c-4.6,0.4-6.8,0.9-9.5,3.4c-2.4,2.3-5.2,5.2-8.7,8.8c4.1,4.7,7.4,8.7,11.6,13.3
			c2.9,3.4,4.4,3.9,9.3,4.2v1.9H141.2z"/>
		<path class="st18" d="M185,108.3c5.6,0,9.9,0.7,12.9,2.1c3.6,1.7,5.6,4.2,5.6,7.7c0,7.5-8.8,10.6-16.4,10.7
			c-0.7,0-1.6-0.1-2.1-0.1l-4.1-0.8v7c0,4.3,0.5,4.5,6.7,4.9v1.9h-22.7v-1.9c5.4-0.5,6.1-0.6,6.1-4.9v-19.7c0-4.3-0.7-4.8-6.1-5.1
			v-1.9H185z M180.8,125.8c0.9,0.3,2.3,0.5,3.8,0.5c3.3,0,8.6-1.4,8.6-8.2c0-5.8-4.4-7.7-9-7.7c-1.5,0-2.4,0.3-2.8,0.5
			c-0.5,0.3-0.6,0.8-0.6,1.6V125.8z"/>
		<path class="st18" d="M246.4,132.7c-0.6,2.2-2.6,7.7-3.2,9.1h-35.4v-1.9c6.3-0.3,6.9-0.7,6.9-5v-19.6c0-4.3-0.7-4.7-6.1-5.1v-1.9
			h22.3v1.9c-5.6,0.4-6.3,0.7-6.3,5.1v20c0,2.8,0.1,4.1,4.1,4.2c0.1,0.1,3.4,0.1,3.7,0.1c4.1,0,5.1-0.6,6.9-2c1.4-1,3.2-3.2,4.5-5.4
			L246.4,132.7z"/>
		<path class="st18" d="M275.6,107.6c13.2,0,24,7,24,17.1c0,11-10.9,17.9-24.4,17.9c-14.3,0-24.6-7.5-24.6-17.5
			C250.6,116.3,259.3,107.6,275.6,107.6z M274.5,109.9c-7.3,0-12.6,5.2-12.6,14.3c0,8.7,4.8,16.2,14.4,16.2
			c6.8,0,12.1-4.7,12.1-14.2C288.4,115.9,282.8,109.9,274.5,109.9z"/>
		<path class="st18" d="M350.4,142.1c-0.4,0-1.3,0-2.1-0.1c-9.1-0.3-11.7-1.7-13.9-3.9c-2.9-2.8-4.9-6-7.4-9.1
			c-1.1-1.4-2.1-1.7-4.4-1.7l-1.4-0.1v7.5c0,4.2,0.7,4.5,6.1,5v1.9h-21.9v-1.9c5.4-0.4,6.1-0.8,6.1-5v-19.7c0-4.1-0.7-4.6-6.1-4.9
			v-1.9h20.7c6.4,0,10,0.5,12.9,2c2.9,1.4,4.8,3.7,4.8,6.9c0,4.6-4.2,7-8.9,8.4c1.1,1.5,3.9,4.9,6,7.3c2.5,2.8,4.1,4.2,5.4,5.4
			c1.6,1.3,2.4,1.8,4.5,2.3L350.4,142.1z M323.2,125.3c3.1,0,5.4-0.4,7-1.3c2.4-1.4,3.4-3.4,3.4-6c0-5.5-4.4-7.4-8.4-7.4
			c-1.9,0-2.9,0.2-3.3,0.5c-0.5,0.3-0.6,0.9-0.6,2v12.3H323.2z"/>
		<path class="st18" d="M391.2,133.1c-0.4,1.4-2.4,7.3-3,8.8h-37.1V140c6.5-0.5,6.9-0.7,6.9-5.1v-19.7c0-4.4-0.9-4.7-5.7-5v-1.9
			h23.2c7.5,0,10-0.1,11-0.1c0.1,0.9,0.4,5.2,0.7,8.4l-2.8,0.3c-0.6-1.8-1.9-3.9-3.1-4.8c-1.3-1-2.2-1.3-5.9-1.3h-4.6
			c-2.7,0-3,0.1-3,1.9v10.8h7c4,0,4.7-0.8,5.8-4.4h2.8v11.5h-2.8c-1.1-3.8-1.7-4.4-5.9-4.4h-6.9v8.9c0,3.6,0.1,4.6,4.6,4.7h5.1
			c4,0,5.1-0.4,6.6-1.8c1.8-1.5,3.2-3.4,4.4-5.2L391.2,133.1z"/>
		<path class="st18" d="M121.8,204c-0.4,0-1.3,0-2.1-0.1c-9.1-0.3-11.7-1.7-13.9-3.9c-2.9-2.8-4.9-6-7.4-9.1
			c-1.1-1.4-2.1-1.7-4.4-1.7l-1.4-0.1v7.5c0,4.2,0.7,4.5,6.1,5v1.9H76.9v-1.9c5.4-0.4,6.1-0.8,6.1-5V177c0-4.1-0.7-4.6-6.1-4.9v-1.9
			h20.7c6.4,0,10,0.5,12.9,2c2.9,1.4,4.8,3.7,4.8,6.9c0,4.6-4.2,7-8.9,8.4c1.1,1.5,3.9,4.9,6,7.3c2.5,2.8,4.1,4.2,5.4,5.4
			c1.6,1.3,2.4,1.8,4.5,2.3L121.8,204z M94.6,187.1c3.1,0,5.4-0.4,7-1.3c2.4-1.4,3.4-3.4,3.4-6c0-5.5-4.4-7.4-8.4-7.4
			c-1.9,0-2.9,0.2-3.3,0.5c-0.5,0.3-0.6,0.9-0.6,2v12.3H94.6z"/>
		<path class="st18" d="M148.6,169.5c13.2,0,24,7,24,17.1c0,11-10.9,17.9-24.4,17.9c-14.3,0-24.6-7.5-24.6-17.5
			C123.6,178.2,132.3,169.5,148.6,169.5z M147.5,171.7c-7.3,0-12.6,5.2-12.6,14.3c0,8.7,4.8,16.2,14.4,16.2
			c6.8,0,12.1-4.7,12.1-14.2C161.3,177.8,155.8,171.7,147.5,171.7z"/>
		<path class="st18" d="M201,203.7v-1.9c4.5-0.5,4.5-1,3.5-3.2c-0.7-1.5-1.9-3.9-2.9-5.9h-13.9c-0.8,1.6-1.8,3.6-2.5,5.2
			c-1.5,3.2,0.2,3.7,5.9,4v1.9h-17.6v-1.9c4.5-0.4,5.6-0.9,8.1-5.2l14.9-26.7l3.4-0.5c4.6,9,9.4,18.1,14.1,26.8
			c2.6,4.8,3.3,5.2,7.9,5.6v1.9H201z M194.8,179c-2.1,3.7-4.1,7.2-5.9,10.9h11.4L194.8,179z"/>
		<path class="st18" d="M244.5,170.2c9.1,0,15.9,1.4,20.4,4.5c3.6,2.4,6.4,6,6.4,11.2c0,5.9-3.4,10.5-8.9,13.5
			c-5.3,2.9-12.1,4.3-20.2,4.3h-19.6v-1.9c5.4-0.3,6.1-0.8,6.1-5.1v-19.6c0-4.3-0.8-4.7-6.1-5.1v-1.9H244.5z M238.5,196.4
			c0,3.7,1.3,4.9,6.5,4.9c9.6,0,15.2-4.8,15.2-14.6c0-4.9-1.9-9.2-5.1-11.4c-3-2.2-6.7-2.9-11.5-2.9c-2.6,0-3.9,0.4-4.3,0.7
			c-0.6,0.5-0.8,1.3-0.8,2.8V196.4z"/>
		<path class="st18" d="M332.1,179.1c-0.8-2.4-2.4-4.3-3.1-5.1c-1.3-1.1-1.9-1.5-6.1-1.5h-4.6v24.2c0,4.3,0.7,4.6,7.1,5v1.9h-23.7
			v-1.9c6.1-0.4,6.7-0.7,6.7-5v-24.2h-4.4c-4,0-5.1,0.5-6.5,1.7c-1,1-2,2.8-2.9,4.9H292c0.5-3.8,1-7.8,1.1-10.3h2.1
			c1.1,1.2,1.9,1.3,4.1,1.3h28.6c1.9,0,2.9-0.3,4.1-1.3h2.1c0.1,2.2,0.4,6.7,0.7,10.1L332.1,179.1z"/>
		<path class="st18" d="M384.4,204c-0.4,0-1.3,0-2.1-0.1c-9.1-0.3-11.7-1.7-13.9-3.9c-2.9-2.8-4.9-6-7.4-9.1
			c-1.1-1.4-2.1-1.7-4.4-1.7l-1.4-0.1v7.5c0,4.2,0.7,4.5,6.1,5v1.9h-21.9v-1.9c5.4-0.4,6.1-0.8,6.1-5V177c0-4.1-0.7-4.6-6.1-4.9
			v-1.9h20.7c6.4,0,10,0.5,12.9,2c2.9,1.4,4.8,3.7,4.8,6.9c0,4.6-4.2,7-8.9,8.4c1.1,1.5,3.9,4.9,6,7.3c2.5,2.8,4.1,4.2,5.4,5.4
			c1.6,1.3,2.4,1.8,4.5,2.3L384.4,204z M357.2,187.1c3.1,0,5.4-0.4,7-1.3c2.4-1.4,3.4-3.4,3.4-6c0-5.5-4.4-7.4-8.4-7.4
			c-1.9,0-2.9,0.2-3.3,0.5c-0.5,0.3-0.6,0.9-0.6,2v12.3H357.2z"/>
		<path class="st18" d="M386,203.7v-1.9c5.4-0.4,6.1-0.7,6.1-5v-19.6c0-4.3-0.7-4.7-6.1-5.1v-1.9h22.1v1.9c-5.4,0.4-6.1,0.7-6.1,5.1
			v19.6c0,4.3,0.6,4.6,6.1,5v1.9H386z"/>
		<path class="st18" d="M434.1,170.2c5.6,0,9.9,0.7,12.9,2.1c3.6,1.7,5.6,4.2,5.6,7.7c0,7.5-8.8,10.6-16.4,10.7
			c-0.7,0-1.6-0.1-2.1-0.1l-4.1-0.8v7c0,4.3,0.5,4.5,6.7,4.9v1.9h-22.7v-1.9c5.4-0.5,6.1-0.6,6.1-4.9v-19.7c0-4.3-0.7-4.8-6.1-5.1
			v-1.9H434.1z M429.8,187.7c0.9,0.3,2.3,0.5,3.8,0.5c3.3,0,8.6-1.4,8.6-8.2c0-5.8-4.4-7.7-9-7.7c-1.5,0-2.4,0.3-2.8,0.5
			c-0.5,0.3-0.6,0.8-0.6,1.6V187.7z"/>
	</g>
</g>
<text transform="matrix(1.2923 0 0 1 79.3955 246.7334)"><tspan x="0" y="0" class="st19 st20 st21">Start your car tours and discover the roads. You will be surrounded</tspan><tspan x="0" y="18.6" class="st19 st20 st21">by some of the most beautiful landscapes.</tspan><tspan x="0" y="37.3" class="st19 st20 st21">Meet with your friendly culture and create long lasting memories.</tspan></text>
<path class="st1" d="M143,396.2H82v-15.4h44.4C135.6,380.8,143,387.6,143,396.2L143,396.2z"/>
<ellipse class="st1" cx="95.2" cy="396.8" rx="4.9" ry="4.5"/>
<ellipse class="st1" cx="123.6" cy="396.8" rx="4.9" ry="4.5"/>
<path class="st1" d="M90.3,380.8c10.4-17.7,9.7-17,9.7-17c4.4,0,20.1,0,20.1,0s3.5,4.9,6.9,11.4s3.5,5.6,3.5,5.6"/>
<path class="st1" d="M110.4,396.2c0-32.1,0-32.1,0-32.1"/>
<path class="st1" d="M115.6,385.9c5.5,0,5.5,0,5.5,0"/>
<g transform="translate(109.58 86.94) scale(2.7 2.88)">
	<text transform="matrix(0.3823 0 0 0.3472 364.5996 3.032700e-02)" class="st7 st22 st23">C</text>
	<text transform="matrix(0.3823 0 0 0.3472 364.5996 3.032700e-02)" class="st24 st22 st23">C</text>
	<text transform="matrix(0.3534 0 0 0.3472 382.4208 3.032700e-02)" class="st7 st22 st23">a</text>
	<text transform="matrix(0.3534 0 0 0.3472 382.4208 3.032700e-02)" class="st24 st22 st23">a</text>
	<text transform="matrix(0.3823 0 0 0.3472 396.3235 3.032700e-02)" class="st7 st22 st23">r</text>
	<text transform="matrix(0.3823 0 0 0.3472 396.3235 3.032700e-02)" class="st24 st22 st23">r</text>
	<text transform="matrix(0.3534 0 0 0.3472 403.682 3.032700e-02)" class="st7 st22 st23">s</text>
	<text transform="matrix(0.3534 0 0 0.3472 403.682 3.032700e-02)" class="st24 st22 st23">s</text>
</g>
<g transform="translate(233.66 134.47) scale(1.22 0.82)">
	<text transform="matrix(1.3292 0 0 1.2195 799.0388 -30.824)" class="st7 st22 st25">T</text>
	<text transform="matrix(1.3292 0 0 1.2195 799.0388 -30.824)" class="st24 st22 st25">T</text>
	<text transform="matrix(1.3292 0 0 1.2195 822.0064 -30.824)" class="st7 st22 st25">o</text>
	<text transform="matrix(1.3292 0 0 1.2195 822.0064 -30.824)" class="st24 st22 st25">o</text>
	<text transform="matrix(1.3292 0 0 1.2195 846.4092 -30.824)" class="st7 st22 st25">u</text>
	<text transform="matrix(1.3292 0 0 1.2195 846.4092 -30.824)" class="st24 st22 st25">u</text>
	<text transform="matrix(1.3292 0 0 1.2195 868.4764 -30.824)" class="st7 st22 st25">r</text>
	<text transform="matrix(1.3292 0 0 1.2195 868.4764 -30.824)" class="st24 st22 st25">r</text>
</g>
<g transform="translate(206 60.56) scale(0.81 0.81)">
	<path class="st26" d="M1377.8,12c-7.6,7.4-26.5,14.3-48.8,17c-29.6,3.5-54-1.5-54.7-11.2c-0.4-6.8,10.7-14.1,27.4-19.1
		c-10.9,4.4-17.8,9.9-17.4,15.1c0.6,9.3,23.9,14.1,51.9,10.7C1353.7,22.3,1368.9,17.6,1377.8,12L1377.8,12z"/>
	<path class="st26" d="M1368.7,12.5c-6.9,6.2-24,11.8-44.4,13.7c-26.9,2.5-49.1-2.3-49.7-10.7c-0.4-5.9,9.7-12,24.9-15.9
		c-10,3.6-16.1,8.2-15.9,12.7c0.6,8,21.7,12.5,47.2,10.2C1346.8,21,1360.7,17.2,1368.7,12.5L1368.7,12.5z"/>
	<path class="st26" d="M1293.5,16.4h-3.9h-0.4l-0.2-0.3c-0.8-0.9-1.4-2.1-1.7-3.1c-0.1-0.3-0.1-0.4-0.1-0.6l-0.7-0.1l0.1-0.8
		c0-0.1,0-0.3,0-0.5c0-0.8,0.1-1.9,0.4-2.8l0,0l0,0l0.4-0.4c0.4-0.1,0.6-0.3,0.9-0.4c0.1,0,0.1-0.1,0.2-0.1c0.8-1.6,1.9-3.5,4.1-5.2
		c2.3-1.7,5.8-3,11.3-3c10.2-9,22.7-12.1,34.5-8.3c2.3,0.8,4.6,1.8,6.8,3.1c2.2,1.3,4.3,2.8,6.4,4.7c0.1,0,0.3,0,0.6,0.1l0.2,0.1
		c0.7,0.8,1.3,1.4,1.8,1.9c0.5,0.6,1.1,1.2,1.8,1.9c1,0.6,1.9,1.5,2.5,2.4c0.1,0.1,0.2,0.4,0.4,0.6c0.1,0.1,0.1,0.1,0.1,0.3
		c0.4,0.3,0.8,0.5,1.1,0.8c0.4,0.3,0.7,0.8,1,1.2l0.1,0.5l0.1,3.5l-0.1,0.3c-0.3,0.8-0.6,1.5-1,2.1s-0.8,1.2-1.3,1.8l-0.2,0.3h-0.4
		h-2.1h-0.8v-0.8V14l0,0l0,0c0-1.9-0.8-3.8-2-5l0,0c-1.2-1.3-2.9-2.1-4.7-2.1l0,0l0,0l0,0l0,0l0,0c-1.8,0-3.5,0.8-4.7,2.1l0,0
		c-1.2,1.3-2,3-2,5l0,0l0,0v1l0,0v1.3v0.8h-0.8l-32.6-0.3h-0.8v-0.8v-0.8v-1.6l0,0l0,0c0-1.9-0.8-3.8-2-5l0,0
		c-1.2-1.3-2.9-2.1-4.7-2.1l0,0l0,0l0,0l0,0l0,0c-1.8,0-3.5,0.8-4.7,2.1l0,0c-1.2,1.3-2,3-2,5l0,0l0,0v1.9v0.8L1293.5,16.4
		L1293.5,16.4z"/>
	<path class="st26" d="M1290,15h3.9v-2.1c0-4.8,3.3-8.6,7.4-8.6l0,0c4.1,0,7.4,3.9,7.4,8.6v1.7v0.8l32.1,0.3v-1.4v-1
		c0-4.8,3.3-8.6,7.4-8.6l0,0c4.1,0,7.4,3.9,7.4,8.6V15h2.1c0.8-1.2,1.5-2.4,2-3.9c-0.1-1.2-0.1-2.6-0.1-3.8c-0.6-0.8-1.1-1.5-2-1.9
		c-0.4-1.2-1.4-2.6-2.7-3.5c-1.3-1.6-2.2-2.7-3.6-4.3c-0.2-0.1-0.3,0-0.5-0.1c-14.6-14.3-32.5-12.9-46.4,0.3
		c-10.8,0-13.5,5.5-15,8.7c-0.4,0.3-0.8,0.3-1.3,0.6c-0.4,1-0.3,2.6-0.4,3.4c0.2,0.1,0.4,0.1,0.6,0.1
		C1288.4,11.9,1289.1,13.7,1290,15L1290,15z"/>
	<rect x="1288.6" y="8.5" class="st26" width="2.5" height="1.7"/>
	<path class="st26" d="M1312,13L1312,13c0-1.1-0.1-2.1-0.4-3.1s-0.5-1.9-0.9-2.8c-2-4.5-6-7.6-10.7-7.6l0,0l0,0
		c-3.2-0.1-6.1,1.5-8.1,3.3c0.9-1,2-1.8,3.1-2.4l0,0c0.2-0.1,0.4-0.3,0.6-0.3c1.4-0.6,2.9-0.9,4.4-0.9l0,0l0,0
		c4.8,0,8.9,3.2,10.9,7.8c0.4,0.9,0.7,1.9,0.9,2.8s0.4,2.1,0.4,3.1V13H1312L1312,13z"/>
	<path class="st26" d="M1294.6,1.6l-0.2,0.3l0,0l0,0l0,0l0,0h-0.1h-0.1h-0.1h-0.1h-0.1h-0.1h-0.1h-0.1h-0.1h-0.1h-0.1h-0.1h-0.1v0.1
		h-0.1h-0.1l-0.1,0.1l-0.1,0.1l-0.1,0.1l-0.1,0.1l-0.1,0.1l-0.1,0.1l-0.1,0.2h-0.2l-0.1,0.1l-0.1,0.1l-0.1,0.1l-0.1,0.1l-0.1,0.1
		l-0.2-0.2l0.1-0.1l0.1-0.1l0.1-0.1l0.1-0.1l0.1-0.1l0.1-0.1l0.1-0.1l0.1-0.1l0.1-0.1l0.1-0.2l0.1-0.1l0.1-0.1l0.1-0.1l0.1-0.1
		l0.1-0.1l0.1-0.1l0.1-0.1h0.1h0.1h0.1h0.1h0.1h0.1h0.1h0.1h0.1h0.1h0.1h0.1h0.1L1294.6,1.6L1294.6,1.6L1294.6,1.6L1294.6,1.6z
		 M1293.5,4.7l-0.2-0.3l0,0l0.1-0.1l0.1-0.1l0.1-0.1l0.1-0.1l0.1-0.1l0.1-0.1l0.1-0.1l0.1-0.1l0.1-0.1l0.1-0.1l0.1-0.1l0.1-0.1
		l0.1-0.1l0.1-0.1l0.1-0.1l0.1-0.1V3.2V3.2V3.1V3V3V2.9V2.6V2.5V2.4V2.3V2.3V2.2V2.1l0,0l0,0l0,0l0.2-0.3l0.1,0.1l0.1,0.1v0.1v0.1
		v0.1v0.1v0.1v0.1v0.1v0.1v0.1v0.1v0.1v0.1V3l-0.1,0.1l-0.1,0.1l-0.1,0.1l-0.1,0.1l-0.1,0.1l-0.1,0.1l0,0l-0.1,0.1l-0.1,0.1
		l-0.1,0.2l-0.1,0.1l-0.1,0.3l-0.1,0.1l-0.1,0.1l-0.1,0.1l-0.1,0.1L1293.5,4.7L1293.5,4.7L1293.5,4.7z M1290.9,5.9l0.2-0.3l0,0l0,0
		l0,0l0,0h0.1h0.1h0.1h0.1h0.1h0.1h0.1h0.1h0.1h0.1h0.1h0.1h0.1l0.1-0.1l0.1-0.1l0.1-0.1l0.1-0.1l0.1-0.1l0.1-0.1l0.1-0.1l0.1,0.1
		l0.1-0.1l0.1-0.1l0.1-0.1l0.1-0.1l0.1-0.1l0.1-0.1l0.1-0.1l0.1-0.1l0.2,0.3l-0.1,0.1l-0.1,0.1l-0.1,0.1l-0.1,0.1v0.1l-0.1,0.1
		l-0.1,0l-0.1,0.1l-0.1,0.1l-0.2,0.1l-0.1,0.1l-0.1,0.1l-0.1,0.1l-0.1,0.1l-0.1,0.2l-0.1,0.1l-0.2-0.1h-0.1h-0.1h-0.1h-0.1h-0.1
		h-0.1h-0.1h-0.1h-0.1h-0.1h-0.1h-0.1h-0.1L1290.9,5.9L1290.9,5.9L1290.9,5.9L1290.9,5.9z M1291.9,2.8l0.2,0.3l0,0l-0.1,0.1
		l-0.1,0.1l-0.1,0.1l-0.1,0.1l-0.1,0.1l-0.1,0.1l-0.1,0.1l-0.1,0.1l-0.1,0.1l-0.1,0.2V4l-0.1,0.3l-0.1,0.1l-0.1,0.1v0.1v0.1v0.1v0.1
		v0.1v0.1V5V5v0.1v0.2v0.1v0.1v0.1v0.1v0.1l0,0l0,0l0,0L1291,6l-0.1-0.1l-0.1-0.1V5.8V5.7V5.7V5.6V5.5V5.3V5.3V5.2V5.1V5V5V4.9V4.8
		l0.1-0.1l0.1-0.1l0.1-0.1l0.1-0.1l0.1-0.1l0.1-0.1l0.1-0.1l0.1-0.1l0.1-0.1l0.1-0.1l0.1-0.1l0.1-0.1l0.1-0.1l0.1-0.1l0.1-0.1
		l0.1-0.1V2.8L1291.9,2.8L1291.9,2.8z"/>
	<path class="st26" d="M1292,3c1-1.2,2.1-1.7,2.5-1.2c0.4,0.4-0.1,1.7-1.1,2.8c-1,1.2-2.1,1.7-2.5,1.2S1291.1,4.1,1292,3z"/>
	<path class="st26" d="M1337.2,13L1337.2,13c0-1,0.1-2,0.3-3c0.2-0.9,0.4-1.8,0.8-2.7c1.7-4.4,5.3-7.5,9.3-7.6l0,0l0,0
		c2.8-0.3,5.3,1.2,7.1,2.8c-0.8-0.9-1.8-1.7-2.7-2.1l0,0c-0.2-0.1-0.4-0.1-0.6-0.3c-1.2-0.5-2.5-0.8-3.8-0.8l0,0l0,0
		c-4.1,0.1-7.8,3.4-9.5,7.9c-0.4,0.9-0.6,1.8-0.8,2.8c-0.2,1-0.3,1.9-0.3,3V13H1337.2L1337.2,13z"/>
	<path class="st26" d="M1307.5-1.3l37.1-0.4C1330.7-19,1311-7.6,1307.5-1.3z M1309.9-3.1h2v1.2l17.8-0.1v-7.8
		C1321-11.2,1312.6-6.8,1309.9-3.1z M1333-2.2v-7c3.5,1.2,7,3.3,10.1,6.9L1333-2.2z"/>
	<path class="st26" d="M1309.8-3.1c0.3-0.6,0.7-1,1.3-1.6c0.3-0.3,0.6-0.4,0.8-0.6v2.1H1309.8z"/>
	<path class="st26" d="M1333-2.2v-7c3.5,1.2,7,3.3,10.1,6.9L1333-2.2z"/>
	<path class="st26" d="M1309.9-3.1h2v1.2l17.8-0.1v-7.8C1321-11.2,1312.6-6.8,1309.9-3.1z"/>
	<path class="st26" d="M1309.8-3.1c0.3-0.6,0.7-1,1.3-1.6c0.3-0.3,0.6-0.4,0.8-0.6v2.1H1309.8L1309.8-3.1z"/>
	<polygon class="st26" points="1311.4,15.4 1312.1,13.2 1337.1,13.2 1338.2,15.6 	"/>
	<path class="st26" d="M1353.6,1.8L1353.6,1.8L1353.6,1.8l0.1-0.1h0.1h0.1h0.1h0.1h0.1h0.1h0.1h0.1h0.1h0.1h0.1h0.1h0.1l0.1,0.1
		l0.1,0.1l0.1,0.1l0.1-0.1l0.1,0.1l0.1,0.1l0.1,0.1l0.1,0.1l0.1,0.1l0.1,0.1l0.1,0.1l0.1,0.1l0.1,0.1l0.1,0.1l0.1,0.1l0.1,0.1
		l0.1,0.1l-0.2,0.3l-0.1-0.1l-0.1-0.1l-0.1-0.1l-0.1-0.1l-0.1-0.1l-0.1-0.1l-0.1-0.1l-0.1,0l-0.1-0.1l-0.1-0.1l-0.1-0.1l-0.1-0.1
		l-0.1-0.1l-0.1-0.1l-0.1-0.1l-0.1-0.1h-0.1h-0.1h-0.1h-0.1h-0.1h-0.1h-0.1h-0.1h-0.1h-0.1h-0.1h-0.1h-0.1l0,0l0,0l0,0l0,0
		L1353.6,1.8L1353.6,1.8z M1354.7,4.8L1354.7,4.8L1354.7,4.8l-0.1-0.1l-0.1-0.1l-0.1-0.1l-0.1-0.1l-0.1-0.1l-0.1-0.1l-0.1-0.1
		l-0.1-0.1l-0.1-0.1l-0.1-0.1l-0.1-0.1l-0.1-0.1l-0.1-0.1l-0.1-0.1l-0.1-0.1l-0.1-0.1V3.6V3.2V3.2V3.1V3V3V2.9V2.8V2.8V2.7V2.6V2.5
		V2.4l0.1-0.1l0.1-0.1l0.2,0.3l0,0l0,0l0,0v0v0.1v0.1v0.1v0.1v0.1V3V3v0.1v0.1v0.1v0.1v0.1l0.1,0.1l0.1,0.1l0.1,0.1l0.1,0.1l0.1,0.1
		l0.1,0.1l0.1,0.1l0.1,0.1l0.1,0.1l0.1,0.1l0.1,0.1l0.1,0.1l0.1,0.1l0.1,0.1l0.1,0.1l0.1,0.1l0,0L1354.7,4.8L1354.7,4.8z
		 M1357.4,6.2L1357.4,6.2L1357.4,6.2l-0.1,0.1h-0.1h-0.1h-0.1h-0.1h-0.1h-0.1h-0.1h-0.1h-0.1h-0.1h-0.1h-0.1h-0.1l-0.1-0.1l-0.1-0.1
		l-0.1-0.1l-0.1-0.1l-0.1-0.1l-0.1-0.1l-0.1-0.1l-0.1-0.1l-0.1-0.1l-0.1-0.1l-0.1-0.1l-0.1-0.1l-0.1-0.1l-0.1-0.1l-0.1-0.1l-0.1-0.1
		l-0.1-0.1l0.2-0.3l0.1,0.1l0.1,0.1l0.1,0.1l0.1,0.1l0.1,0.1l0.1,0.1l0.1,0.1l0.1,0.1l0.1,0.1l0.1,0.1h0.1l0.1,0.1l0.1,0.1l0.1,0.1
		l0.1,0.1l0.1,0.1h0.1h0.1h0.1h0.1h0.1h0.1h0.1h0.1h0.1h0.1h0.1h0.1h0.1l0,0l0,0l0,0l0,0V6.2L1357.4,6.2z M1356.3,3L1356.3,3
		L1356.3,3l0.1,0.1l0.1,0.1l0.1,0.1l0.1,0.1l0.1,0.1l0.1,0.1l0.1,0.1l0.1,0.1l0.1,0.1l0.1,0.1l0.1,0.1l0.1,0.1l0.1,0.1l0.1,0.1
		l0.1,0.1l0.1,0.1v0.1v0.1v0.1v0.1v0.1v0.1v0.1v0.1v0.1v0.1v0.4v0.1v0.1l-0.1,0.1l-0.1,0.1l-0.2-0.3l0,0l0,0l0,0v0V5.3V5.2V5.1V5V5
		V4.9V4.8V4.8V4.7V4.6V4.6V4.5l-0.1-0.1l-0.1-0.1l-0.1-0.1l-0.1-0.1l-0.1-0.1l-0.1-0.1l-0.1-0.1l-0.1-0.1l-0.1-0.1l-0.1-0.1
		l-0.1-0.1l-0.1-0.1l-0.1-0.1l-0.1-0.1l-0.1-0.1l-0.1-0.1l0,0L1356.3,3L1356.3,3z"/>
	<path class="st26" d="M1356.2,3.1c-1-1.2-2.1-1.7-2.5-1.2c-0.4,0.4,0.1,1.7,1.1,2.8s2.1,1.7,2.5,1.2
		C1357.6,5.6,1357.1,4.3,1356.2,3.1z"/>
	<path class="st26" d="M1302.3-2.2c0.6,0.6,1.8,0.9,2.9,0.8c2.7-3.1,6.8-6,11.4-8.5c-0.3-0.1-0.6-0.1-0.9-0.1l-0.4,0.1
		c0.2,0,0.5,0,0.6,0.1c-2.8,1.7-6.7,4-10.1,7.4C1304.4-2.2,1303.5-2.2,1302.3-2.2z"/>
	<path class="st26" d="M1305.4-1.7c-0.6,0.6-1.1,1.3-1.5,1.9c0.4-0.8,1-1.6,1.5-2.2V-1.7L1305.4-1.7z"/>
	<path class="st26" d="M1338.3-10.6v0.5l-0.1,0.2c1.8,0.9,3.7,1.9,5.5,3.3c1.9,1.3,3.6,2.8,5.3,4.7l0,0l1.8-0.4l-0.9-1l-1.7,0.1
		c-1.4-1.5-2.9-2.6-4.4-3.7c-0.9-0.6-1.8-1.2-2.7-1.7l0.1-1L1338.3-10.6z"/>
	<path class="st26" d="M1300.7,4.1h1.1c3.8,0.3,6.9,4.1,6.9,8.6v1.2h-14.7v-1.2C1293.9,8.3,1296.9,4.5,1300.7,4.1z"/>
	<path class="st26" d="M1355.5,13.6h-14.7v-0.3c0-4.8,3.3-8.6,7.4-8.6l0,0c4.1,0,7.4,3.9,7.4,8.6V13.6L1355.5,13.6z"/>
	<ellipse class="st26" cx="1348.2" cy="12.5" rx="5" ry="5.8"/>
	<ellipse class="st26" cx="1348.2" cy="12.5" rx="2.9" ry="3.5"/>
	<ellipse class="st26" cx="1347.2" cy="10.1" rx="0.8" ry="0.9"/>
	<ellipse class="st26" cx="1346" cy="12.8" rx="0.8" ry="0.9"/>
	<ellipse class="st26" cx="1347.9" cy="15" rx="0.8" ry="0.9"/>
	<ellipse class="st26" cx="1350.3" cy="13.6" rx="0.8" ry="0.9"/>
	<ellipse class="st26" cx="1349.8" cy="10.6" rx="0.8" ry="0.9"/>
	<ellipse class="st26" cx="1348.2" cy="11.9" rx="0.1" ry="0.2"/>
	<ellipse class="st26" cx="1347.7" cy="12.3" rx="0.1" ry="0.2"/>
	<ellipse class="st26" cx="1347.8" cy="13" rx="0.1" ry="0.2"/>
	<ellipse class="st26" cx="1348.4" cy="13" rx="0.1" ry="0.2"/>
	<ellipse class="st26" cx="1348.7" cy="12.4" rx="0.1" ry="0.2"/>
	<ellipse class="st26" cx="1348.2" cy="12.5" rx="0.1" ry="0.2"/>
	<ellipse class="st26" cx="1301.2" cy="12.5" rx="5" ry="5.8"/>
	<ellipse class="st26" cx="1301.2" cy="12.5" rx="2.9" ry="3.5"/>
	<ellipse class="st26" cx="1300.2" cy="10.1" rx="0.8" ry="0.9"/>
	<ellipse class="st26" cx="1299" cy="12.8" rx="0.8" ry="0.9"/>
	<ellipse class="st26" cx="1300.8" cy="15" rx="0.8" ry="0.9"/>
	<ellipse class="st26" cx="1303.2" cy="13.6" rx="0.8" ry="0.9"/>
	<ellipse class="st26" cx="1302.8" cy="10.6" rx="0.8" ry="0.9"/>
	<ellipse class="st26" cx="1301.2" cy="11.9" rx="0.1" ry="0.2"/>
	<ellipse class="st26" cx="1300.6" cy="12.3" rx="0.1" ry="0.2"/>
	<ellipse class="st26" cx="1300.8" cy="13" rx="0.1" ry="0.2"/>
	<ellipse class="st26" cx="1301.5" cy="13" rx="0.1" ry="0.2"/>
	<ellipse class="st26" cx="1301.7" cy="12.4" rx="0.1" ry="0.2"/>
	<ellipse class="st26" cx="1301.1" cy="12.5" rx="0.1" ry="0.2"/>
</g>
<text transform="matrix(1.0135 0 0 1 1206.0225 120.6074)" class="st22 st27">Drive with us &amp; enjoy ur Life</text>
<path class="st28" d="M882.9,374h-75.4l2.1-14.3h54.8C875.8,359.7,884,366.1,882.9,374L882.9,374z"/>
<ellipse transform="matrix(0.9915 -0.1301 0.1301 0.9915 -41.7373 110.3578)" class="st29" cx="823.7" cy="374.6" rx="6.1" ry="4.1"/>
<ellipse class="st30" cx="860.7" cy="374.6" rx="6" ry="4.2"/>
<path class="st31" d="M819.6,359.7c12.9-16.5,12-15.8,12-15.8c5.4,0,24.8,0,24.8,0s4.3,4.6,8.6,10.6s4.3,5.3,4.3,5.3"/>
<path class="st32" d="M842.8,373.1c4.2-29,4.2-29,4.2-29"/>
<path class="st32" d="M850.9,364.4c6.9,0,6.9,0,6.9,0"/>
<path class="st1" d="M517,391.9h-64l2.2-15.4h46.5C511.5,376.5,518.3,383.4,517,391.9L517,391.9z"/>
<ellipse transform="matrix(0.9298 -0.3681 0.3681 0.9298 -111.7122 199.3644)" class="st1" cx="466.8" cy="392.5" rx="5.2" ry="4.4"/>
<ellipse transform="matrix(0.9298 -0.3681 0.3681 0.9298 -109.6188 210.3398)" class="st1" cx="496.6" cy="392.5" rx="5.2" ry="4.4"/>
<path class="st1" d="M464,376.5c13.5-17.7,12.6-17,12.6-17c4.6,0,21.1,0,21.1,0s2.9,4.9,5.6,11.4s2.8,5.6,2.8,5.6"/>
<path class="st1" d="M482.9,391.9c4.6-32.1,4.6-32.1,4.6-32.1"/>
<path class="st1" d="M490.3,381.6c5.8,0,5.8,0,5.8,0"/>
<path class="st28" d="M1269,373.4h-80.4l2-14.1h58.5C1261.3,359.4,1270.1,365.6,1269,373.4L1269,373.4z"/>
<ellipse transform="matrix(0.9952 -9.796605e-02 9.796605e-02 0.9952 -30.7993 120.2037)" class="st33" cx="1208.6" cy="373.7" rx="5.6" ry="3.5"/>
<ellipse class="st30" cx="1245.6" cy="374" rx="6.4" ry="4.1"/>
<path class="st34" d="M1201.9,357.3c13.9-14.1,13-13.5,13-13.5c5,0,23,0,23,0s3.4,3.9,6.6,9c3.2,5.1,3.3,4.5,3.3,4.5"/>
<path class="st32" d="M1226.2,372.6c4.1-28.4,4.1-28.4,4.1-28.4"/>
<path class="st32" d="M1235.1,364.1c7.3,0,7.3,0,7.3,0"/>
<path class="st18" d="M6,189.6"/>
<path class="st35" d="M107.5,196.3"/>
<path d="M657.5,303.8"/>
<path class="st36" d="M1206.5,139.9c-20,23.3-20,23.3-20,23.3"/>
<path class="st37" d="M167.4,37.1c-5.2,0-10.1,1.1-14.3,2.9c-4.8-4.2-11.8-6.9-19.6-6.9c-7,0-13.4,2.2-18.2,5.7
	c-5.1-2.7-11.4-4.2-18.2-4.2C80,34.6,66,44.8,66,57.5c0,12.6,14,22.9,31.3,22.9c9.4,0,17.8-3,23.5-7.8c3.8,1.7,8.2,2.6,12.8,2.6
	c5.3,0,10.3-1.3,14.4-3.4c5,3.6,11.8,5.9,19.4,5.9c15.2,0,27.6-9.1,27.6-20.3S182.7,37.1,167.4,37.1z"/>
<path class="st37" d="M814.4,18.7c-5.2,0-10.1,1.1-14.3,2.9c-4.8-4.2-11.8-6.9-19.6-6.9c-7,0-13.4,2.2-18.2,5.7
	c-5.1-2.7-11.4-4.2-18.2-4.2C727,16.2,713,26.4,713,39.1c0,12.6,14,22.9,31.3,22.9c9.4,0,17.8-3,23.5-7.8c3.8,1.7,8.2,2.6,12.8,2.6
	c5.3,0,10.3-1.3,14.4-3.4c5,3.6,11.8,5.9,19.4,5.9c15.2,0,27.6-9.1,27.6-20.3S829.7,18.7,814.4,18.7z"/>
<path class="st37" d="M1022.4,27.3c-5.2,0-10.1,1.1-14.3,2.9c-4.8-4.2-11.8-6.9-19.6-6.9c-7,0-13.4,2.2-18.2,5.7
	c-5.1-2.7-11.4-4.2-18.2-4.2C935,24.8,921,35,921,47.7c0,12.6,14,22.9,31.3,22.9c9.4,0,17.8-3,23.5-7.8c3.8,1.7,8.2,2.6,12.8,2.6
	c5.3,0,10.3-1.3,14.4-3.4c5,3.6,11.8,5.9,19.4,5.9c15.2,0,27.6-9.1,27.6-20.3S1037.7,27.3,1022.4,27.3z"/>
<g>
	<path class="st7" d="M363.4,18.7c-5.2,0-10.1,1.1-14.3,2.9c-4.8-4.2-11.8-6.9-19.6-6.9c-7,0-13.4,2.2-18.2,5.7
		c-5.1-2.7-11.4-4.2-18.2-4.2C276,16.2,262,26.4,262,39.1c0,12.6,14,22.9,31.3,22.9c9.4,0,17.8-3,23.5-7.8c3.8,1.7,8.2,2.6,12.8,2.6
		c5.3,0,10.3-1.3,14.4-3.4c5,3.6,11.8,5.9,19.4,5.9c15.2,0,27.6-9.1,27.6-20.3S378.7,18.7,363.4,18.7z"/>
	<g>
		<path class="st38" d="M363.4,16.2c-3.4,0.1-6.6,0.4-9.9,1.3c-0.9,0.3-3.5,1.7-4.4,1.6c-0.8-0.1-2.6-2-3.4-2.5
			c-5.3-3.3-11.7-4.7-17.9-4.3c-2.8,0.1-5.5,0.6-8.2,1.5c-1.5,0.5-3,1.1-4.4,1.8c-0.9,0.4-3,2.3-3.8,2.4c-0.9,0.1-3.5-1.6-4.4-1.9
			c-1.6-0.6-3.2-1-4.9-1.4c-3.4-0.7-6.9-1-10.4-0.9c-10.2,0.4-21.7,4.5-27.1,13.7c-2.9,4.9-3.4,11.9-2.3,17.5
			c2,9.7,11.5,15.9,20.5,18.2c5.6,1.5,11.6,1.7,17.3,0.8c3.2-0.5,6.3-1.4,9.2-2.7c2.4-1.1,6-4.3,8.2-4.3c2.7,0.1,5.8,1.9,8.6,2.1
			c3.4,0.4,6.9,0.2,10.3-0.5c1.7-0.4,6-2.8,7.6-2.7c0.9,0.1,2.9,1.8,3.7,2.3c1.8,0.9,3.8,1.7,5.8,2.2c10.6,3,23.7,1.2,31.8-6.6
			c5.3-5.1,6.6-12.5,5.5-19.6C388.9,21.6,374.5,16.4,363.4,16.2c0,0-0.1,5,0,5c9.3,0.2,19.7,3.4,25,11.6c2.2,3.4,2.8,5.7,1.8,8.7
			c-1.4,4-4.3,7.3-7.7,9.7c-8.6,6-20.6,7.1-30.4,3.7c-2.2-0.7-4.2-1.7-6.2-2.9c-1.8-1.1-1.2-1-3.2-0.5c-1,0.2-2,0.8-3,1.2
			c-5.9,1.9-12.4,2.1-18.3,0.5c-1.1-0.3-2.7-1.2-3.8-1.3c-1.4,0-1.7,0.5-3,1.4c-2.1,1.4-4.3,2.6-6.6,3.5c-5.4,2.1-11.2,2.9-16.9,2.6
			c-9.1-0.5-18.8-3.9-24.7-11.3c-5.3-6.7-5-12.5,0.8-19c6.5-7.3,16.7-10.4,26.2-10.4c3.3,0,6.5,0.4,9.7,1.1c1.4,0.3,2.7,0.7,4,1.2
			c0.8,0.3,3.6,2,4.4,1.9c0.8,0,3.1-2,3.8-2.4c1.4-0.7,2.9-1.3,4.4-1.8c3.2-1,6.6-1.5,9.9-1.5c5.7,0,11.4,1.4,16.2,4.4
			c0.8,0.5,1.9,1.7,2.9,2c1.4,0.5,3.3-0.7,4.9-1.1c3.2-0.9,6.5-1.3,9.9-1.3C363.5,21.2,363.4,16.2,363.4,16.2z"/>
	</g>
</g>
<path class="st39" d="M1324.4,7.6c-5.2,0-10.1,1.1-14.3,2.9c-4.8-4.2-11.8-6.9-19.6-6.9c-7,0-13.4,2.2-18.2,5.7
	c-5.1-2.7-11.4-4.2-18.2-4.2C1237,5.2,1223,15.4,1223,28c0,12.6,14,22.9,31.3,22.9c9.4,0,17.8-3,23.5-7.8c3.8,1.7,8.2,2.6,12.8,2.6
	c5.3,0,10.3-1.3,14.4-3.4c5,3.6,11.8,5.9,19.4,5.9c15.2,0,27.6-9.1,27.6-20.3S1339.7,7.6,1324.4,7.6z"/>
<g>
	<path class="st7" d="M806.9,80.2c-4.3,0-9,1.3-13.7,3.5c-1-5-4.9-8.2-11.3-8.2c-5.8,0-12.5,2.6-18.9,6.8c-2.3-3.2-6.4-5.1-11.9-5.1
		c-14.2,0-32.8,12.2-41.6,27.3c-8.8,15.1-4.4,27.3,9.7,27.3c7.7,0,16.7-3.6,24.7-9.3c2,2,4.9,3.1,8.7,3.1c4.4,0,9.3-1.5,14.2-4.1
		c1.6,4.3,5.6,7,11.8,7c12.5,0,28.9-10.8,36.8-24.2C823.2,91,819.4,80.2,806.9,80.2z"/>
	<g>
		<path class="st38" d="M806.9,78.7c-5.1,0.2-9.8,1.6-14.5,3.7c0.7,0.3,1.5,0.6,2.2,0.9c-3.9-15.4-23.4-8-32.4-2.3
			c0.6,0.1,1.2,0.2,1.8,0.2c-7.4-9-21.2-5.3-30.2-1c-11.5,5.6-22.1,15.3-27.5,26.9c-3.6,7.6-5.1,18.6,3.3,23.7
			c10.9,6.6,25.9-0.9,35-7.2c-0.6-0.1-1.2-0.2-1.8-0.2c7.1,6.3,17.2,3,24.7-0.7c-0.7-0.3-1.5-0.6-2.2-0.9c8,19,35.6,1.5,44.3-7.6
			c6-6.3,12.2-15.4,11.1-24.5C820,82.3,813.9,78.9,806.9,78.7c-1.9-0.1-1.9,2.9,0,3c7.7,0.2,12.1,5.2,10.8,12.9
			c-1.3,7.2-6.1,13.7-11.2,18.7c-5.2,5.1-11.5,9.5-18.4,11.9c-6.5,2.3-16.6,3.8-19.9-4.1c-0.4-0.9-1.2-1.4-2.2-0.9
			c-6.1,3-15.2,6.4-21.1,1.2c-0.5-0.4-1.3-0.6-1.8-0.2c-8.1,5.6-21.1,12.6-31.1,7.7c-9.5-4.7-5.1-17.3-1-24.2
			c5.3-8.7,13.4-15.9,22.3-20.8c8-4.3,21.5-9,28.5-0.5c0.4,0.5,1.3,0.6,1.8,0.2c7.1-4.6,24.6-12.6,28,0.5c0.3,1,1.3,1.3,2.2,0.9
			c4.2-1.9,8.4-3.1,13-3.3C808.8,81.6,808.8,78.6,806.9,78.7z"/>
	</g>
</g>
<g>
	<path class="st7" d="M901,81.5c-4.3,0-9,1.3-13.7,3.5c-1-5-4.9-8.2-11.3-8.2c-5.8,0-12.5,2.6-18.9,6.8c-2.3-3.2-6.4-5.1-11.9-5.1
		c-14.2,0-32.8,12.2-41.6,27.3c-8.8,15.1-4.4,27.3,9.7,27.3c7.7,0,16.7-3.6,24.7-9.3c2,2,4.9,3.1,8.7,3.1c4.4,0,9.3-1.5,14.2-4.1
		c1.6,4.3,5.6,7,11.8,7c12.5,0,28.9-10.8,36.8-24.2S913.5,81.5,901,81.5z"/>
	<g>
		<path class="st38" d="M901,80c-5.1,0.2-9.8,1.6-14.5,3.7c0.7,0.3,1.5,0.6,2.2,0.9c-3.9-15.4-23.4-8-32.4-2.3
			c0.6,0.1,1.2,0.2,1.8,0.2c-7.4-9-21.2-5.3-30.2-1c-11.5,5.6-22.1,15.3-27.5,26.9c-3.6,7.6-5.1,18.6,3.3,23.7
			c10.9,6.6,25.9-0.9,35-7.2c-0.6-0.1-1.2-0.2-1.8-0.2c7.1,6.3,17.2,3,24.7-0.7c-0.7-0.3-1.5-0.6-2.2-0.9c8,19,35.6,1.5,44.3-7.6
			c6-6.3,12.2-15.4,11.1-24.5C914.1,83.7,908,80.3,901,80c-1.9-0.1-1.9,2.9,0,3c7.7,0.2,12.1,5.2,10.8,12.9
			c-1.3,7.2-6.1,13.7-11.2,18.7c-5.2,5.1-11.5,9.5-18.4,11.9c-6.5,2.3-16.6,3.8-19.9-4.1c-0.4-0.9-1.2-1.4-2.2-0.9
			c-6.1,3-15.2,6.4-21.1,1.2c-0.5-0.4-1.3-0.6-1.8-0.2c-8.1,5.6-21.1,12.6-31.1,7.7c-9.5-4.7-5.1-17.3-1-24.2
			c5.3-8.7,13.4-15.9,22.3-20.8c8-4.3,21.5-9,28.5-0.5c0.4,0.5,1.3,0.6,1.8,0.2c7.1-4.6,24.6-12.6,28,0.5c0.3,1,1.3,1.3,2.2,0.9
			c4.2-1.9,8.4-3.1,13-3.3C903,83,903,80,901,80z"/>
	</g>
</g>
<g>
	<path class="st7" d="M309.7,43.4c-4.3,0-8.7,1.3-12.7,3.5c-2.5-5-7.3-8.2-13.7-8.2c-5.8,0-11.8,2.6-16.9,6.8
		c-3.3-3.2-7.9-5.1-13.4-5.1c-14.2,0-29.2,12.2-33.5,27.3c-4.3,15.1,3.6,27.3,17.8,27.3c7.7,0,15.6-3.6,22-9.3
		c2.5,2,5.8,3.1,9.6,3.1c4.4,0,8.9-1.5,13-4.1c2.8,4.3,7.7,7,13.9,7c12.5,0,25.7-10.8,29.6-24.2C329.2,54.2,322.2,43.4,309.7,43.4z"
		/>
	<g>
		<path class="st38" d="M309.7,40.9c-3.3,0.1-6.5,0.7-9.6,2c-1.5,0.6-2.3,1.4-3.4,0.9c-0.5-0.2-1.4-2.1-1.8-2.6
			c-3.6-4.2-9.2-5.6-14.5-4.8c-2.5,0.4-4.9,1.2-7.2,2.2c-1.9,0.9-5.7,4.4-7.3,3.9c-2.2-0.6-4.3-3-6.7-3.7c-2.8-0.9-5.9-1-8.8-0.7
			c-10.7,1.1-20.4,8.3-26.2,17.1c-4.5,6.9-6,14.3-5.9,22.4c0.2,7.7,3.2,15,10.7,18.2c4.5,2,9.7,2,14.5,0.9c2.6-0.6,5.2-1.6,7.5-2.8
			c1.5-0.8,2.9-1.6,4.3-2.6c0.9-0.6,1.8-1.3,2.7-2c0.7-1.4,1.6-1.5,2.4-0.3c2.4,0.5,4.3,2,6.9,2.2c2.8,0.3,5.6-0.2,8.2-1
			c1.6-0.5,3.3-1.8,4.9-2.1c2.6-0.5,1.2-0.9,3.2,1.1c1.8,1.9,4.1,3.3,6.6,4.1c9.9,3.2,20.8-2.5,27.4-9.7c6.5-7,9.1-15.4,8.9-24.8
			C326.4,48.7,320.3,41.2,309.7,40.9c0,0-0.1,5,0,5c7.9,0.2,15.5,5.1,16.4,13.5c0.9,8.1-5.9,17.3-11.8,22.3
			c-6.5,5.5-15.8,9.4-24.3,6.7c-2.1-0.7-4-1.8-5.7-3.2c-0.4-0.4-1.2-1.5-1.7-1.9c-0.3-0.3-0.5-0.7-0.8-1c-1,0.6-2.1,1.2-3.2,1.7
			c-4.9,2.2-10.7,3.3-15.8,1.3c-0.9-0.3-1.7-1-2.5-1.3c-2.4-0.8-0.5-0.5-2.4,0.3c-2.4,1-4.6,3.4-7,4.6c-4.6,2.4-9.8,3.8-15,3.5
			c-7.7-0.4-14.3-5.1-16.7-12.5c-2.8-8.7,3.2-18.7,9-24.9c6-6.5,14.4-11.5,23.4-12c2.8-0.2,5.6,0.2,8.2,1.1c1.1,0.4,2.2,0.9,3.3,1.5
			c0.4,0.3,2.9,2.5,3.3,2.5c0.2,0,2.2-1.7,2.6-2c1.5-1,3.2-2,4.9-2.7c2.5-1.1,5.2-1.9,7.9-2.1c4.9-0.3,9.8,1.2,13.1,5
			c0.5,0.6,1,1.6,1.5,2c0.2,1.2,0.6,1.4,1.4,0.7c0.8-0.4,1.5-0.8,2.3-1.1c3.1-1.3,6.3-1.9,9.6-2C309.8,45.9,309.7,40.9,309.7,40.9z"
			/>
	</g>
</g>
<g>
	<path class="st7" d="M404.3,44.7c-4.3,0-8.7,1.3-12.7,3.5c-2.5-5-7.3-8.2-13.7-8.2c-5.8,0-11.8,2.6-16.9,6.8
		c-3.3-3.2-7.9-5.1-13.4-5.1c-14.2,0-29.2,12.2-33.5,27.3s3.6,27.3,17.8,27.3c7.7,0,15.6-3.6,22-9.3c2.5,2,5.8,3.1,9.6,3.1
		c4.4,0,8.9-1.5,13-4.1c2.8,4.3,7.7,7,13.9,7c12.5,0,25.7-10.8,29.6-24.2S416.8,44.7,404.3,44.7z"/>
	<g>
		<path class="st38" d="M404.3,42.2c-3.3,0.1-6.5,0.7-9.6,2c-1.5,0.6-2.3,1.4-3.4,0.9c-0.5-0.2-1.4-2.1-1.8-2.6
			c-3.6-4.2-9.2-5.6-14.5-4.8c-2.5,0.4-4.9,1.2-7.2,2.2c-1.9,0.9-5.7,4.4-7.3,3.9c-2.2-0.6-4.3-3-6.7-3.7c-2.8-0.9-5.9-1-8.8-0.7
			c-10.7,1.1-20.4,8.3-26.2,17.1c-4.5,6.9-6,14.3-5.9,22.4c0.2,7.7,3.2,15,10.7,18.2c4.5,2,9.7,2,14.5,0.9c2.6-0.6,5.2-1.6,7.5-2.8
			c1.5-0.8,2.9-1.6,4.3-2.6c0.9-0.6,1.8-1.3,2.7-2c0.7-1.4,1.6-1.5,2.4-0.3c2.4,0.5,4.3,2,6.9,2.2c2.8,0.3,5.6-0.2,8.2-1
			c1.6-0.5,3.3-1.8,4.9-2.1c2.6-0.5,1.2-0.9,3.2,1.1c1.8,1.9,4.1,3.3,6.6,4.1c9.9,3.2,20.8-2.5,27.4-9.7c6.5-7,9.1-15.4,8.9-24.8
			C420.9,50.1,414.9,42.6,404.3,42.2c0,0-0.1,5,0,5c7.9,0.2,15.5,5.1,16.4,13.5c0.9,8.1-5.9,17.3-11.8,22.3
			c-6.5,5.5-15.8,9.4-24.3,6.7c-2.1-0.7-4-1.8-5.7-3.2c-0.4-0.4-1.2-1.5-1.7-1.9c-0.3-0.3-0.5-0.7-0.8-1c-1,0.6-2.1,1.2-3.2,1.7
			c-4.9,2.2-10.7,3.3-15.8,1.3c-0.9-0.3-1.7-1-2.5-1.3c-2.4-0.8-0.5-0.5-2.4,0.3c-2.4,1-4.6,3.4-7,4.6c-4.6,2.4-9.8,3.8-15,3.5
			c-7.7-0.4-14.3-5.1-16.7-12.5c-2.8-8.7,3.2-18.7,9-24.9c6-6.5,14.4-11.5,23.4-12c2.8-0.2,5.6,0.2,8.2,1.1c1.1,0.4,2.2,0.9,3.3,1.5
			c0.4,0.3,2.9,2.5,3.3,2.5c0.2,0,2.2-1.7,2.6-2c1.5-1,3.2-2,4.9-2.7c2.5-1.1,5.2-1.9,7.9-2.1c4.9-0.3,9.8,1.2,13.1,5
			c0.5,0.6,1,1.6,1.5,2c0.2,1.2,0.6,1.4,1.4,0.7c0.8-0.4,1.5-0.8,2.3-1.1c3.1-1.3,6.3-1.9,9.6-2C404.4,47.2,404.3,42.2,404.3,42.2z"
			/>
	</g>
</g>
<path class="st37" d="M538.4,27.3c-5.2,0-10.1,1.1-14.3,2.9c-4.8-4.2-11.8-6.9-19.6-6.9c-7,0-13.4,2.2-18.2,5.7
	c-5.1-2.7-11.4-4.2-18.2-4.2C451,24.8,437,35,437,47.7c0,12.6,14,22.9,31.3,22.9c9.4,0,17.8-3,23.5-7.8c3.8,1.7,8.2,2.6,12.8,2.6
	c5.3,0,10.3-1.3,14.4-3.4c5,3.6,11.8,5.9,19.4,5.9c15.2,0,27.6-9.1,27.6-20.3S553.7,27.3,538.4,27.3z"/>
<g>
	<path class="st40" d="M2.8,499.5l-0.6-49.8l0-0.1c-1.5-6.4-0.5-11.2,0.6-14.2c2.3-6.1,7-10.3,14.4-12.9c4.2-1.5,7.9-1.9,16.5-1.9
		c5.3,0,12.5,0.2,23.3,0.4c10.4,0.2,24.7,0.6,43.5,0.9l0.1,0c5.4,0.1,33.6,0.7,56.5,1.6c4.5,0.2,9.1,0.4,14.6,0.7
		c20.1,1.1,34.3,2.3,48,3.4l5.5,0.5c2.2,0.2,55.7,5,110.4,7.7c5,0.3,10.6,0.4,16.6,0.4c31.2,0,72.8-3.4,120.9-7.3
		c58.6-4.8,125-10.1,196.9-11.7c6.9-0.1,14.4-0.2,22.9-0.2c49.3,0,125,2.4,262.6,6.8c45.1,1.4,93.3,3.1,93.7,3.1l0.1,0
		c35.6,1.4,50.4,2.4,61.1,3c9.4,0.6,15.1,0.9,28.6,1.2c8.7,0.2,17.1,0.3,25.6,0.3c40.7,0,82.1-2.3,150.6-6.1
		c15.4-0.9,30.7-1.8,45.5-2.7l5.9-0.4l-1.9,77.2H2.8z"/>
	<path class="st41" d="M692.7,417.6c49.3,0,125,2.4,262.6,6.8c44.8,1.4,93.2,3.1,93.7,3.1l0.1,0c35.6,1.4,50.3,2.4,61.1,3
		c9.4,0.6,15.1,0.9,28.6,1.2c8.7,0.2,17.1,0.3,25.6,0.3c40.8,0,82.1-2.3,150.7-6.1c15.3-0.8,30.5-1.8,45.4-2.7l5.3-0.3l-1.8,76.1
		H3.3l-0.6-49.3l0-0.1l0-0.1c-1.4-6.3-0.5-11,0.6-13.9c2.2-6,6.8-10.1,14.1-12.6c4.2-1.4,7.8-1.9,16.3-1.9c5.3,0,12.4,0.2,23.2,0.4
		l0.1,0l0.3,0c10.4,0.2,24.6,0.6,43.2,0.9l0.1,0c3.3,0.1,33.1,0.7,56.5,1.6c4.5,0.2,9.1,0.4,14.6,0.7c20,1.1,34.2,2.3,48,3.4l0.1,0
		l5.4,0.4c2.3,0.2,55.8,5,110.4,7.7c5,0.3,10.6,0.4,16.6,0.4c31.2,0,72.8-3.4,120.9-7.3c58.6-4.8,125-10.1,196.8-11.7
		C676.8,417.6,684.2,417.6,692.7,417.6 M692.7,416.6c-8.5,0-16,0.1-22.9,0.2c-71.8,1.5-138.3,6.9-196.9,11.7
		c-48.1,3.9-89.7,7.3-120.9,7.3c-6,0-11.6-0.1-16.5-0.4c-54.2-2.7-108.1-7.5-110.4-7.7l-5.4-0.4c-13.8-1.1-28-2.3-48.1-3.4
		c-5.4-0.3-10-0.5-14.6-0.7c-24.9-1-56.3-1.6-56.7-1.6c-18.8-0.3-33.1-0.6-43.5-0.9c-10.8-0.2-18-0.4-23.3-0.4
		c-8.6,0-12.3,0.4-16.6,1.9c-7.6,2.6-12.4,6.9-14.7,13.2c-1.2,3.1-2.1,8.1-0.7,14.5L2.3,500h1362.8l1.9-78.2l-6.4,0.4
		c-15,1-30.3,1.9-45.4,2.7c-68.5,3.8-109.9,6.1-150.7,6.1c-8.5,0-16.9-0.1-25.6-0.3c-13.5-0.3-19.2-0.7-28.6-1.2
		c-10.8-0.7-25.6-1.6-61.1-3l-0.1,0c-2.2-0.1-49.5-1.7-93.7-3.1C817.8,419,742,416.6,692.7,416.6L692.7,416.6z"/>
</g>
<g>
	<path class="st40" d="M2.7,492.1l-0.5-38.4l0-0.1c-1-3.3-0.9-6.2,0.3-8.6c1.6-3.1,5.1-5.4,10.3-7c3.3-1,6.3-1.5,15.2-1.5
		c5.3,0,12.5,0.1,23.4,0.4c10.5,0.2,24.9,0.5,43.9,0.8c0.3,0,31.8,0.5,57.1,1.4c4.5,0.2,9.2,0.4,14.6,0.6c20.2,1,34.5,2,48.4,3.1
		l5.4,0.4c2.3,0.2,56.7,4.5,111.5,6.9c5.1,0.2,10.8,0.3,16.9,0.3c31.6,0,73.7-3,122.3-6.5c59.1-4.2,126.1-9,198.4-10.4
		c6.9-0.1,14.5-0.2,23-0.2c49.7,0,126.1,2.2,264.8,6.1c45.4,1.3,94.1,2.7,94.6,2.8c35.9,1.3,50.7,2.1,61.6,2.7
		c9.5,0.5,15.3,0.8,29,1.1c8.8,0.2,17.3,0.3,25.9,0.3c41.3,0,83.1-2,152.3-5.4c15.2-0.7,30.4-1.5,45.3-2.4l-1.5,53.6H2.7z"/>
	<path class="st42" d="M692.9,434c49.6,0,126,2.2,264.7,6.1c44.6,1.3,91.7,2.7,94.6,2.8l0,0l0,0c35.9,1.3,50.7,2.1,61.6,2.7
		c9.5,0.5,15.3,0.8,29,1.1c8.8,0.2,17.3,0.3,26,0.3c41.3,0,83.1-2,152.4-5.4c15-0.7,30-1.5,44.7-2.4l-1.4,52.6H3.2l-0.5-37.8l0-0.1
		l0-0.1c-1-3.1-0.9-5.9,0.3-8.2c1.5-2.9,4.9-5.2,10-6.8c3.3-1,6.2-1.4,15-1.4c5.3,0,12.5,0.1,23.4,0.4c10.5,0.2,24.9,0.5,43.9,0.8
		c0.3,0,32,0.5,57,1.4c4.5,0.2,9.1,0.4,14.6,0.6c20.2,1,34.5,2,48.4,3.1l5.4,0.4c2.3,0.2,56.5,4.4,111.6,6.9
		c5.1,0.2,10.8,0.3,16.9,0.3c31.7,0,73.7-3,122.4-6.5c59.1-4.2,126-9,198.3-10.4C676.9,434,684.4,434,692.9,434 M692.9,433
		c-8.5,0-16.1,0.1-23,0.2c-133.1,2.5-251.4,16.9-320.7,16.9c-6,0-11.7-0.1-16.9-0.3c-55.9-2.5-111.5-6.9-111.5-6.9c0,0,0,0,0,0
		c-15.9-1.2-31-2.3-53.8-3.4c-5.6-0.3-10.2-0.5-14.6-0.6c-25.3-0.9-57.1-1.4-57.1-1.4c-38-0.6-56.7-1.1-67.3-1.1
		c-8.5,0-11.7,0.4-15.3,1.5c-5.4,1.6-14.3,5.6-11,16.2c0.2,12.9,0.3,25.9,0.5,38.8h1363.3c0.5-18.2,1-36.4,1.5-54.6
		c-10.1,0.6-26.1,1.5-45.8,2.4c-70,3.4-111.1,5.4-152.3,5.4c-8.6,0-17.1-0.1-25.9-0.3c-29.1-0.6-22.7-1.4-90.6-3.8c0,0,0,0,0,0
		c0,0-48.7-1.5-94.6-2.8C820.9,435.2,742.6,433,692.9,433L692.9,433z"/>
</g>
<g>
	<linearGradient id="SVGID_5_" gradientUnits="userSpaceOnUse" x1="930.2324" y1="146.7189" x2="1330.7052" y2="146.7189">
		<stop  offset="0.4838" style="stop-color:#EFEEEB"/>
		<stop  offset="1" style="stop-color:#000000"/>
	</linearGradient>
	<path class="st43" d="M930.2,197.2c12.4,0.9,24.8-2.7,34.5-7.8c2.9-1.6,5.4-3.1,7.7-4.7c7.6-5.2,13.2-10.3,16.5-13.6
		c19-18.9,34.2-44.4,59.6-61.6c8-5.4,18.5-11.1,31.8-12.5c0,0,5.4-1.9,10.6-0.2c46.2,15.5,70.5,27.4,70.5,27.4
		c50.6,34.7,62.7,62.6,80,55.2c11.2-4.8,10.3-18.2,22.4-25.4c19.1-11.5,46,7.1,66.8,26"/>
	<g>
		<path class="st7" d="M930.2,201.7c20.9,1.1,39.6-8.1,55.3-21.3c13.5-11.5,24-26,35.6-39.3c12.3-14.1,26.4-28.3,44-35.5
			c7.8-3.2,18.3-6.3,26.6-3.7c9.9,3.2,19.7,6.8,29.4,10.5c11.4,4.3,22.7,8.8,33.7,13.8c10.8,4.9,20.1,13.2,29.2,20.8
			c11.2,9.3,21.3,19.7,32.5,28.9c6.4,5.3,13.9,10.7,22.7,9.1c16.9-3,16.5-25.2,32.6-29.2c9.5-2.4,19.5,1.9,27.6,6.4
			c10.3,5.8,19.5,13.3,28.2,21.2c4.3,3.9,10.7-2.5,6.4-6.4c-13.8-12.5-30.3-26.5-49.2-30.1c-7.7-1.5-15.6-0.9-22.5,3
			c-7.2,4.1-10.9,10.8-14.9,17.7c-5.3,9.2-12.1,10.7-20.4,5.1c-10.5-7.1-19.2-16.9-28.7-25.3c-7.4-6.5-15-12.7-22.9-18.6
			c-4.2-3.1-8.4-6.7-13.1-9c-8.8-4.4-18.1-8-27.2-11.6c-8.4-3.3-16.9-6.5-25.4-9.5c-9.3-3.3-18.9-8.2-28.9-6.3
			c-8.7,1.7-16.8,3.6-24.8,7.6c-8.2,4.1-15.6,9.7-22.5,15.7c-31.5,27.5-54.5,79.7-103.2,77.1C924.4,192.4,924.5,201.4,930.2,201.7
			L930.2,201.7z"/>
	</g>
</g>
</svg>
