<?xml version="1.0" encoding="utf-8"?>
<!-- Generator: Adobe Illustrator 23.0.1, SVG Export Plug-In . SVG Version: 6.00 Build 0)  -->
<svg version="1.1" id="Layer_1" xmlns="http://www.w3.org/2000/svg" xmlns:xlink="http://www.w3.org/1999/xlink" x="0px" y="0px"
	 viewBox="0 0 1280 1024" style="enable-background:new 0 0 1280 1024;" xml:space="preserve">
<style type="text/css">
	.st0{fill:#8100A2;stroke:#000000;stroke-miterlimit:10;}
	.st1{fill:#FFFFFF;stroke:#000000;stroke-miterlimit:10;}
	.st2{fill:#FFFFFF;}
	.st3{fill:#6E00B3;}
	.st4{fill:#9600B8;}
	.st5{fill:#FFFFFF;stroke:#FFFFFF;stroke-miterlimit:10;}
</style>
<ellipse class="st1" cx="639" cy="571.5" rx="57.5" ry="61"/>
<path class="st2" d="M363,452c-46.6,170.1,112.2,375.6,280,363c146.5-11,276.5-186.5,235-349c-29-113.9-139.9-211.9-272-206
	C487.2,265.3,390.2,352.9,363,452z"/>
<path class="st3" d="M399.7,419.8C460.7,555.2,521.8,690.6,582.9,826c74-137.7,147.9-275.4,221.9-413
	c5.6-116.4-93-213.1-208.6-209.9C482.3,206.2,390.1,305.3,399.7,419.8z"/>
<circle class="st5" cx="601" cy="402" r="73.5"/>
</svg>
