<?xml version="1.0" encoding="utf-8"?>
<!-- Generator: Adobe Illustrator 23.0.1, SVG Export Plug-In . SVG Version: 6.00 Build 0)  -->
<svg version="1.1" id="Layer_1" xmlns="http://www.w3.org/2000/svg" xmlns:xlink="http://www.w3.org/1999/xlink" x="0px" y="0px"
	 viewBox="0 0 1366 768" style="enable-background:new 0 0 1366 768;" xml:space="preserve">
<style type="text/css">
	.st0{fill:#32BAFF;}
	.st1{fill:#FFFFFF;}
	.st2{fill:#FFFFFF;stroke:#FFFFFF;stroke-miterlimit:10;}
	.st3{stroke:#FFFFFF;stroke-miterlimit:10;}
	.st4{fill:#75ACFF;stroke:#FFFFFF;stroke-miterlimit:10;}
</style>
<path class="st2" d="M719.5,396c0-4.14,0-7.5,0-7.5S719.5,391.86,719.5,396s0,7.5,0,7.5S719.5,400.14,719.5,396z"/>
<path class="st4" d="M387.5,524l-69,147.5c228-147.5,228-147.5,228-147.5"/>
<path class="st4" d="M1016.85,524.5h-725.7c-52.27,0-94.65-42.38-94.65-94.65v-171.7c0-52.27,42.38-94.65,94.65-94.65h725.7
	c52.27,0,94.65,42.38,94.65,94.65v171.7C1111.5,482.12,1069.12,524.5,1016.85,524.5z"/>
<ellipse class="st2" cx="408.5" cy="356.5" rx="90" ry="72"/>
<ellipse class="st2" cx="925.5" cy="356.5" rx="90" ry="72"/>
<ellipse class="st2" cx="653.5" cy="356.5" rx="90" ry="72"/>
</svg>
